<svg class="railroad-diagram" height="482" viewBox="0 0 415.0 482" width="415.0" xmlns="http://www.w3.org/2000/svg" xmlns:xlink="http://www.w3.org/1999/xlink">
<g transform="translate(.5 .5)">
<g>
<path d="M20 231v20m10 -20v20m-10 -10h20" /></g><path d="M40 241h10" /><g>
<path d="M50 241h0.0" /><path d="M365.0 241h0.0" /><g>
<path d="M50.0 241h0.0" /><path d="M365.0 241h0.0" /><path d="M50.0 241a10 10 0 0 0 10 -10v-22a10 10 0 0 1 10 -10" /><g>
<path d="M70.0 199h0.0" /><path d="M345.0 199h0.0" /><g class="terminal ">
<rect data-text="decimal_floating_point_literal" fill="hsl(120, 100%, 90%)" height="22" stroke="black" stroke-width="3" width="275" x="70" y="188"></rect><text text-anchor="middle" x="207.5" y="203">decimal_floating_point_literal</text></g></g><path d="M345.0 199a10 10 0 0 1 10 10v22a10 10 0 0 0 10 10" /><path d="M50.0 241a10 10 0 0 0 10 -10v-64a10 10 0 0 1 10 -10" /><g>
<path d="M70.0 157h34.0" /><path d="M311.0 157h34.0" /><g class="terminal ">
<rect data-text="binary_integer_literal" fill="hsl(120, 100%, 90%)" height="22" stroke="black" stroke-width="3" width="207" x="104" y="146"></rect><text text-anchor="middle" x="207.5" y="161">binary_integer_literal</text></g></g><path d="M345.0 157a10 10 0 0 1 10 10v64a10 10 0 0 0 10 10" /><path d="M50.0 241a10 10 0 0 0 10 -10v-106a10 10 0 0 1 10 -10" /><g>
<path d="M70.0 115h38.25" /><path d="M306.75 115h38.25" /><g class="terminal ">
<rect data-text="octal_integer_literal" fill="hsl(120, 100%, 90%)" height="22" stroke="black" stroke-width="3" width="198.5" x="108.25" y="104"></rect><text text-anchor="middle" x="207.5" y="119">octal_integer_literal</text></g></g><path d="M345.0 115a10 10 0 0 1 10 10v106a10 10 0 0 0 10 10" /><path d="M50.0 241a10 10 0 0 0 10 -10v-148a10 10 0 0 1 10 -10" /><g>
<path d="M70.0 73h46.75" /><path d="M298.25 73h46.75" /><g class="terminal ">
<rect data-text="hex_integer_literal" fill="hsl(120, 100%, 90%)" height="22" stroke="black" stroke-width="3" width="181.5" x="116.75" y="62"></rect><text text-anchor="middle" x="207.5" y="77">hex_integer_literal</text></g></g><path d="M345.0 73a10 10 0 0 1 10 10v148a10 10 0 0 0 10 10" /><path d="M50.0 241a10 10 0 0 0 10 -10v-190a10 10 0 0 1 10 -10" /><g>
<path d="M70.0 31h29.75" /><path d="M315.25 31h29.75" /><g class="terminal ">
<rect data-text="decimal_integer_literal" fill="hsl(120, 100%, 90%)" height="22" stroke="black" stroke-width="3" width="215.5" x="99.75" y="20"></rect><text text-anchor="middle" x="207.5" y="35">decimal_integer_literal</text></g></g><path d="M345.0 31a10 10 0 0 1 10 10v190a10 10 0 0 0 10 10" /><path d="M50.0 241h20" /><g>
<path d="M70.0 241h17.0" /><path d="M328.0 241h17.0" /><g class="terminal ">
<rect data-text="hex_floating_point_literal" fill="hsl(120, 100%, 90%)" height="22" stroke="black" stroke-width="3" width="241" x="87" y="230"></rect><text text-anchor="middle" x="207.5" y="245">hex_floating_point_literal</text></g></g><path d="M345.0 241h20" /><path d="M50.0 241a10 10 0 0 1 10 10v22a10 10 0 0 0 10 10" /><g>
<path d="M70.0 283h110.5" /><path d="M234.5 283h110.5" /><g class="terminal ">
<rect data-text="true" fill="hsl(120, 100%, 90%)" height="22" stroke="black" stroke-width="3" width="54" x="180.5" y="272"></rect><text text-anchor="middle" x="207.5" y="287">true</text></g></g><path d="M345.0 283a10 10 0 0 0 10 -10v-22a10 10 0 0 1 10 -10" /><path d="M50.0 241a10 10 0 0 1 10 10v64a10 10 0 0 0 10 10" /><g>
<path d="M70.0 325h106.25" /><path d="M238.75 325h106.25" /><g class="terminal ">
<rect data-text="false" fill="hsl(120, 100%, 90%)" height="22" stroke="black" stroke-width="3" width="62.5" x="176.25" y="314"></rect><text text-anchor="middle" x="207.5" y="329">false</text></g></g><path d="M345.0 325a10 10 0 0 0 10 -10v-64a10 10 0 0 1 10 -10" /><path d="M50.0 241a10 10 0 0 1 10 10v106a10 10 0 0 0 10 10" /><g>
<path d="M70.0 367h55.25" /><path d="M289.75 367h55.25" /><g class="terminal ">
<rect data-text="character_literal" fill="hsl(120, 100%, 90%)" height="22" stroke="black" stroke-width="3" width="164.5" x="125.25" y="356"></rect><text text-anchor="middle" x="207.5" y="371">character_literal</text></g></g><path d="M345.0 367a10 10 0 0 0 10 -10v-106a10 10 0 0 1 10 -10" /><path d="M50.0 241a10 10 0 0 1 10 10v148a10 10 0 0 0 10 10" /><g>
<path d="M70.0 409h68.0" /><path d="M277.0 409h68.0" /><g class="terminal ">
<rect data-text="string_literal" fill="hsl(120, 100%, 90%)" height="22" stroke="black" stroke-width="3" width="139" x="138" y="398"></rect><text text-anchor="middle" x="207.5" y="413">string_literal</text></g></g><path d="M345.0 409a10 10 0 0 0 10 -10v-148a10 10 0 0 1 10 -10" /><path d="M50.0 241a10 10 0 0 1 10 10v190a10 10 0 0 0 10 10" /><g>
<path d="M70.0 451h76.5" /><path d="M268.5 451h76.5" /><g class="terminal ">
<rect data-text="null_literal" fill="hsl(120, 100%, 90%)" height="22" stroke="black" stroke-width="3" width="122" x="146.5" y="440"></rect><text text-anchor="middle" x="207.5" y="455">null_literal</text></g></g><path d="M345.0 451a10 10 0 0 0 10 -10v-190a10 10 0 0 1 10 -10" /></g></g><path d="M365.0 241h10" /><path d="M 375.0 241 h 20 m -10 -10 v 20 m 10 -20 v 20"></path></g><style>/* <![CDATA[ */
	svg.railroad-diagram {
		background-color:hsl(30,20%,95%);
	}
	svg.railroad-diagram path {
		stroke-width:3;
		stroke:black;
		fill:rgba(0,0,0,0);
	}
	svg.railroad-diagram text {
		font:bold 14px monospace;
		text-anchor:middle;
	}
	svg.railroad-diagram text.label{
		text-anchor:start;
	}
	svg.railroad-diagram text.comment{
		font:italic 12px monospace;
	}
	svg.railroad-diagram rect{
		stroke-width:3;
		stroke:black;
		fill:hsl(120,100%,90%);
	}
	svg.railroad-diagram rect.group-box {
		stroke: gray;
		stroke-dasharray: 10 5;
		fill: none;
	}

/* ]]> */
</style></svg>