<svg class="railroad-diagram" height="314" viewBox="0 0 347.0 314" width="347.0" xmlns="http://www.w3.org/2000/svg" xmlns:xlink="http://www.w3.org/1999/xlink">
<g transform="translate(.5 .5)">
<g>
<path d="M20 147v20m10 -20v20m-10 -10h20" /></g><path d="M40 157h10" /><g>
<path d="M50 157h0.0" /><path d="M297.0 157h0.0" /><g>
<path d="M50.0 157h0.0" /><path d="M297.0 157h0.0" /><path d="M50.0 157a10 10 0 0 0 10 -10v-22a10 10 0 0 1 10 -10" /><g>
<path d="M70.0 115h12.75" /><path d="M264.25 115h12.75" /><g class="terminal ">
<rect data-text="floating_point_type" fill="hsl(120, 100%, 90%)" height="22" stroke="black" stroke-width="3" width="181.5" x="82.75" y="104"></rect><text text-anchor="middle" x="173.5" y="119">floating_point_type</text></g></g><path d="M277.0 115a10 10 0 0 1 10 10v22a10 10 0 0 0 10 10" /><path d="M50.0 157a10 10 0 0 0 10 -10v-64a10 10 0 0 1 10 -10" /><g>
<path d="M70.0 73h38.25" /><path d="M238.75 73h38.25" /><g class="terminal ">
<rect data-text="integral_type" fill="hsl(120, 100%, 90%)" height="22" stroke="black" stroke-width="3" width="130.5" x="108.25" y="62"></rect><text text-anchor="middle" x="173.5" y="77">integral_type</text></g></g><path d="M277.0 73a10 10 0 0 1 10 10v64a10 10 0 0 0 10 10" /><path d="M50.0 157a10 10 0 0 0 10 -10v-106a10 10 0 0 1 10 -10" /><g>
<path d="M70.0 31h55.25" /><path d="M221.75 31h55.25" /><g class="terminal ">
<rect data-text="void_type" fill="hsl(120, 100%, 90%)" height="22" stroke="black" stroke-width="3" width="96.5" x="125.25" y="20"></rect><text text-anchor="middle" x="173.5" y="35">void_type</text></g></g><path d="M277.0 31a10 10 0 0 1 10 10v106a10 10 0 0 0 10 10" /><path d="M50.0 157h20" /><g>
<path d="M70.0 157h42.5" /><path d="M234.5 157h42.5" /><g class="terminal ">
<rect data-text="boolean_type" fill="hsl(120, 100%, 90%)" height="22" stroke="black" stroke-width="3" width="122" x="112.5" y="146"></rect><text text-anchor="middle" x="173.5" y="161">boolean_type</text></g></g><path d="M277.0 157h20" /><path d="M50.0 157a10 10 0 0 1 10 10v22a10 10 0 0 0 10 10" /><g>
<path d="M70.0 199h51.0" /><path d="M226.0 199h51.0" /><g>
<path d="M121.0 199h0.0" /><path d="M226.0 199h0.0" /><g class="terminal ">
<rect data-text="identifier" fill="hsl(120, 100%, 90%)" height="22" stroke="black" stroke-width="3" width="105" x="121" y="188"></rect><text text-anchor="middle" x="173.5" y="203">identifier</text></g></g></g><path d="M277.0 199a10 10 0 0 0 10 -10v-22a10 10 0 0 1 10 -10" /><path d="M50.0 157a10 10 0 0 1 10 10v64a10 10 0 0 0 10 10" /><g>
<path d="M70.0 241h0.0" /><path d="M277.0 241h0.0" /><g class="terminal ">
<rect data-text="scoped_type_identifier" fill="hsl(120, 100%, 90%)" height="22" stroke="black" stroke-width="3" width="207" x="70" y="230"></rect><text text-anchor="middle" x="173.5" y="245">scoped_type_identifier</text></g></g><path d="M277.0 241a10 10 0 0 0 10 -10v-64a10 10 0 0 1 10 -10" /><path d="M50.0 157a10 10 0 0 1 10 10v106a10 10 0 0 0 10 10" /><g>
<path d="M70.0 283h42.5" /><path d="M234.5 283h42.5" /><g class="terminal ">
<rect data-text="generic_type" fill="hsl(120, 100%, 90%)" height="22" stroke="black" stroke-width="3" width="122" x="112.5" y="272"></rect><text text-anchor="middle" x="173.5" y="287">generic_type</text></g></g><path d="M277.0 283a10 10 0 0 0 10 -10v-106a10 10 0 0 1 10 -10" /></g></g><path d="M297.0 157h10" /><path d="M 307.0 157 h 20 m -10 -10 v 20 m 10 -20 v 20"></path></g><style>/* <![CDATA[ */
	svg.railroad-diagram {
		background-color:hsl(30,20%,95%);
	}
	svg.railroad-diagram path {
		stroke-width:3;
		stroke:black;
		fill:rgba(0,0,0,0);
	}
	svg.railroad-diagram text {
		font:bold 14px monospace;
		text-anchor:middle;
	}
	svg.railroad-diagram text.label{
		text-anchor:start;
	}
	svg.railroad-diagram text.comment{
		font:italic 12px monospace;
	}
	svg.railroad-diagram rect{
		stroke-width:3;
		stroke:black;
		fill:hsl(120,100%,90%);
	}
	svg.railroad-diagram rect.group-box {
		stroke: gray;
		stroke-dasharray: 10 5;
		fill: none;
	}

/* ]]> */
</style></svg>