<svg class="railroad-diagram" height="186" viewBox="0 0 450.0 186" width="450.0" xmlns="http://www.w3.org/2000/svg" xmlns:xlink="http://www.w3.org/1999/xlink">
<g transform="translate(.5 .5)">
<g>
<path d="M20 83v20m10 -20v20m-10 -10h20" /></g><path d="M40 93h10" /><g>
<path d="M50 93h0.0" /><path d="M400.0 93h0.0" /><g class="terminal ">
<rect data-text="" fill="hsl(120, 100%, 90%)" height="22" stroke="black" stroke-width="3" width="20" x="50" y="82"></rect><text text-anchor="middle" x="60" y="97"></text></g><path d="M70.0 93h10" /><g>
<path d="M80.0 93h0.0" /><path d="M370.0 93h0.0" /><path d="M80.0 93a10 10 0 0 0 10 -10v-53a10 10 0 0 1 10 -10" /><g>
<path d="M100.0 20h250.0" /></g><path d="M350.0 20a10 10 0 0 1 10 10v53a10 10 0 0 0 10 10" /><path d="M80.0 93h20" /><g>
<path d="M100.0 93h0.0" /><path d="M350.0 93h0.0" /><path d="M100.0 93h10" /><g>
<path d="M110.0 93h0.0" /><path d="M340.0 93h0.0" /><g>
<path d="M110.0 93h0.0" /><path d="M340.0 93h0.0" /><path d="M110.0 93a10 10 0 0 0 10 -10v-22a10 10 0 0 1 10 -10" /><g>
<path d="M130.0 51h21.25" /><path d="M298.75 51h21.25" /><g class="terminal ">
<rect data-text="string_fragment" fill="hsl(120, 100%, 90%)" height="22" stroke="black" stroke-width="3" width="147.5" x="151.25" y="40"></rect><text text-anchor="middle" x="225" y="55">string_fragment</text></g></g><path d="M320.0 51a10 10 0 0 1 10 10v22a10 10 0 0 0 10 10" /><path d="M110.0 93h20" /><g>
<path d="M130.0 93h21.25" /><path d="M298.75 93h21.25" /><g class="terminal ">
<rect data-text="escape_sequence" fill="hsl(120, 100%, 90%)" height="22" stroke="black" stroke-width="3" width="147.5" x="151.25" y="82"></rect><text text-anchor="middle" x="225" y="97">escape_sequence</text></g></g><path d="M320.0 93h20" /><path d="M110.0 93a10 10 0 0 1 10 10v22a10 10 0 0 0 10 10" /><g>
<path d="M130.0 135h0.0" /><path d="M320.0 135h0.0" /><g class="terminal ">
<rect data-text="string_interpolation" fill="hsl(120, 100%, 90%)" height="22" stroke="black" stroke-width="3" width="190" x="130" y="124"></rect><text text-anchor="middle" x="225" y="139">string_interpolation</text></g></g><path d="M320.0 135a10 10 0 0 0 10 -10v-22a10 10 0 0 1 10 -10" /></g></g><path d="M340.0 93h10" /><path d="M110.0 93a10 10 0 0 0 -10 10v53a10 10 0 0 0 10 10" /><g>
<path d="M110.0 166h230.0" /></g><path d="M340.0 166a10 10 0 0 0 10 -10v-53a10 10 0 0 0 -10 -10" /></g><path d="M350.0 93h20" /></g><path d="M370.0 93h10" /><g class="terminal ">
<rect data-text="" fill="hsl(120, 100%, 90%)" height="22" stroke="black" stroke-width="3" width="20" x="380" y="82"></rect><text text-anchor="middle" x="390" y="97"></text></g></g><path d="M400.0 93h10" /><path d="M 410.0 93 h 20 m -10 -10 v 20 m 10 -20 v 20"></path></g><style>/* <![CDATA[ */
	svg.railroad-diagram {
		background-color:hsl(30,20%,95%);
	}
	svg.railroad-diagram path {
		stroke-width:3;
		stroke:black;
		fill:rgba(0,0,0,0);
	}
	svg.railroad-diagram text {
		font:bold 14px monospace;
		text-anchor:middle;
	}
	svg.railroad-diagram text.label{
		text-anchor:start;
	}
	svg.railroad-diagram text.comment{
		font:italic 12px monospace;
	}
	svg.railroad-diagram rect{
		stroke-width:3;
		stroke:black;
		fill:hsl(120,100%,90%);
	}
	svg.railroad-diagram rect.group-box {
		stroke: gray;
		stroke-dasharray: 10 5;
		fill: none;
	}

/* ]]> */
</style></svg>