<svg class="railroad-diagram" height="104" viewBox="0 0 302.0 104" width="302.0" xmlns="http://www.w3.org/2000/svg" xmlns:xlink="http://www.w3.org/1999/xlink">
<g transform="translate(.5 .5)">
<g>
<path d="M20 63v20m10 -20v20m-10 -10h20" /></g><path d="M40 73h10" /><g>
<path d="M50 73h0.0" /><path d="M252.0 73h0.0" /><g>
<path d="M50.0 73h0.0" /><path d="M252.0 73h0.0" /><path d="M50.0 73a10 10 0 0 0 10 -10v-22a10 10 0 0 1 10 -10" /><g>
<path d="M70.0 31h0.0" /><path d="M232.0 31h0.0" /><g>
<path d="M70.0 31h0.0" /><path d="M232.0 31h0.0" /><g class="terminal ">
<rect data-text="extends" fill="hsl(120, 100%, 90%)" height="22" stroke="black" stroke-width="3" width="79.5" x="70" y="20"></rect><text text-anchor="middle" x="109.75" y="35">extends</text></g><path d="M149.5 31h10" /><path d="M159.5 31h10" /><g class="terminal ">
<rect data-text="_type" fill="hsl(120, 100%, 90%)" height="22" stroke="black" stroke-width="3" width="62.5" x="169.5" y="20"></rect><text text-anchor="middle" x="200.75" y="35">_type</text></g></g></g><path d="M232.0 31a10 10 0 0 1 10 10v22a10 10 0 0 0 10 10" /><path d="M50.0 73h20" /><g>
<path d="M70.0 73h8.5" /><path d="M223.5 73h8.5" /><g>
<path d="M78.5 73h0.0" /><path d="M223.5 73h0.0" /><g class="terminal ">
<rect data-text="super" fill="hsl(120, 100%, 90%)" height="22" stroke="black" stroke-width="3" width="62.5" x="78.5" y="62"></rect><text text-anchor="middle" x="109.75" y="77">super</text></g><path d="M141.0 73h10" /><path d="M151.0 73h10" /><g class="terminal ">
<rect data-text="_type" fill="hsl(120, 100%, 90%)" height="22" stroke="black" stroke-width="3" width="62.5" x="161" y="62"></rect><text text-anchor="middle" x="192.25" y="77">_type</text></g></g></g><path d="M232.0 73h20" /></g></g><path d="M252.0 73h10" /><path d="M 262.0 73 h 20 m -10 -10 v 20 m 10 -20 v 20"></path></g><style>/* <![CDATA[ */
	svg.railroad-diagram {
		background-color:hsl(30,20%,95%);
	}
	svg.railroad-diagram path {
		stroke-width:3;
		stroke:black;
		fill:rgba(0,0,0,0);
	}
	svg.railroad-diagram text {
		font:bold 14px monospace;
		text-anchor:middle;
	}
	svg.railroad-diagram text.label{
		text-anchor:start;
	}
	svg.railroad-diagram text.comment{
		font:italic 12px monospace;
	}
	svg.railroad-diagram rect{
		stroke-width:3;
		stroke:black;
		fill:hsl(120,100%,90%);
	}
	svg.railroad-diagram rect.group-box {
		stroke: gray;
		stroke-dasharray: 10 5;
		fill: none;
	}

/* ]]> */
</style></svg>