<svg class="railroad-diagram" height="164" viewBox="0 0 741.5 164" width="741.5" xmlns="http://www.w3.org/2000/svg" xmlns:xlink="http://www.w3.org/1999/xlink">
<g transform="translate(.5 .5)">
<g>
<path d="M20 103v20m10 -20v20m-10 -10h20" /></g><path d="M40 113h10" /><g>
<path d="M50 113h0.0" /><path d="M691.5 113h0.0" /><g class="terminal ">
<rect data-text="(" fill="hsl(120, 100%, 90%)" height="22" stroke="black" stroke-width="3" width="28.5" x="50" y="102"></rect><text text-anchor="middle" x="64.25" y="117">(</text></g><path d="M78.5 113h10" /><path d="M88.5 113h10" /><g>
<path d="M98.5 113h0.0" /><path d="M643.0 113h0.0" /><g>
<path d="M98.5 113h0.0" /><path d="M643.0 113h0.0" /><path d="M98.5 113a10 10 0 0 0 10 -10v-62a10 10 0 0 1 10 -10" /><g>
<path d="M118.5 31h182.75" /><path d="M440.25 31h182.75" /><g class="terminal ">
<rect data-text="_element_value" fill="hsl(120, 100%, 90%)" height="22" stroke="black" stroke-width="3" width="139" x="301.25" y="20"></rect><text text-anchor="middle" x="370.75" y="35">_element_value</text></g></g><path d="M623.0 31a10 10 0 0 1 10 10v62a10 10 0 0 0 10 10" /><path d="M98.5 113h20" /><g>
<path d="M118.5 113h0.0" /><path d="M623.0 113h0.0" /><g>
<path d="M118.5 113h0.0" /><path d="M623.0 113h0.0" /><path d="M118.5 113a10 10 0 0 0 10 -10v-31a10 10 0 0 1 10 -10" /><g>
<path d="M138.5 62h464.5" /></g><path d="M603.0 62a10 10 0 0 1 10 10v31a10 10 0 0 0 10 10" /><path d="M118.5 113h20" /><g>
<path d="M138.5 113h0.0" /><path d="M603.0 113h0.0" /><g class="terminal ">
<rect data-text="element_value_pair" fill="hsl(120, 100%, 90%)" height="22" stroke="black" stroke-width="3" width="173" x="138.5" y="102"></rect><text text-anchor="middle" x="225" y="117">element_value_pair</text></g><path d="M311.5 113h10" /><g>
<path d="M321.5 113h0.0" /><path d="M603.0 113h0.0" /><path d="M321.5 113a10 10 0 0 0 10 -10v-11a10 10 0 0 1 10 -10" /><g>
<path d="M341.5 82h241.5" /></g><path d="M583.0 82a10 10 0 0 1 10 10v11a10 10 0 0 0 10 10" /><path d="M321.5 113h20" /><g>
<path d="M341.5 113h0.0" /><path d="M583.0 113h0.0" /><path d="M341.5 113h10" /><g>
<path d="M351.5 113h0.0" /><path d="M573.0 113h0.0" /><g class="terminal ">
<rect data-text="," fill="hsl(120, 100%, 90%)" height="22" stroke="black" stroke-width="3" width="28.5" x="351.5" y="102"></rect><text text-anchor="middle" x="365.75" y="117">,</text></g><path d="M380.0 113h10" /><path d="M390.0 113h10" /><g class="terminal ">
<rect data-text="element_value_pair" fill="hsl(120, 100%, 90%)" height="22" stroke="black" stroke-width="3" width="173" x="400" y="102"></rect><text text-anchor="middle" x="486.5" y="117">element_value_pair</text></g></g><path d="M573.0 113h10" /><path d="M351.5 113a10 10 0 0 0 -10 10v11a10 10 0 0 0 10 10" /><g>
<path d="M351.5 144h221.5" /></g><path d="M573.0 144a10 10 0 0 0 10 -10v-11a10 10 0 0 0 -10 -10" /></g><path d="M583.0 113h20" /></g></g><path d="M603.0 113h20" /></g></g><path d="M623.0 113h20" /></g></g><path d="M643.0 113h10" /><path d="M653.0 113h10" /><g class="terminal ">
<rect data-text=")" fill="hsl(120, 100%, 90%)" height="22" stroke="black" stroke-width="3" width="28.5" x="663" y="102"></rect><text text-anchor="middle" x="677.25" y="117">)</text></g></g><path d="M691.5 113h10" /><path d="M 701.5 113 h 20 m -10 -10 v 20 m 10 -20 v 20"></path></g><style>/* <![CDATA[ */
	svg.railroad-diagram {
		background-color:hsl(30,20%,95%);
	}
	svg.railroad-diagram path {
		stroke-width:3;
		stroke:black;
		fill:rgba(0,0,0,0);
	}
	svg.railroad-diagram text {
		font:bold 14px monospace;
		text-anchor:middle;
	}
	svg.railroad-diagram text.label{
		text-anchor:start;
	}
	svg.railroad-diagram text.comment{
		font:italic 12px monospace;
	}
	svg.railroad-diagram rect{
		stroke-width:3;
		stroke:black;
		fill:hsl(120,100%,90%);
	}
	svg.railroad-diagram rect.group-box {
		stroke: gray;
		stroke-dasharray: 10 5;
		fill: none;
	}

/* ]]> */
</style></svg>