<svg class="railroad-diagram" height="122" viewBox="0 0 545.5 122" width="545.5" xmlns="http://www.w3.org/2000/svg" xmlns:xlink="http://www.w3.org/1999/xlink">
<g transform="translate(.5 .5)">
<g>
<path d="M20 61v20m10 -20v20m-10 -10h20" /></g><path d="M40 71h10" /><g>
<path d="M50 71h0.0" /><path d="M495.5 71h0.0" /><g class="terminal ">
<rect data-text="(" fill="hsl(120, 100%, 90%)" height="22" stroke="black" stroke-width="3" width="28.5" x="50" y="60"></rect><text text-anchor="middle" x="64.25" y="75">(</text></g><path d="M78.5 71h10" /><g>
<path d="M88.5 71h0.0" /><path d="M457.0 71h0.0" /><path d="M88.5 71a10 10 0 0 0 10 -10v-31a10 10 0 0 1 10 -10" /><g>
<path d="M108.5 20h328.5" /></g><path d="M437.0 20a10 10 0 0 1 10 10v31a10 10 0 0 0 10 10" /><path d="M88.5 71h20" /><g>
<path d="M108.5 71h0.0" /><path d="M437.0 71h0.0" /><g class="terminal ">
<rect data-text="expression" fill="hsl(120, 100%, 90%)" height="22" stroke="black" stroke-width="3" width="105" x="108.5" y="60"></rect><text text-anchor="middle" x="161" y="75">expression</text></g><path d="M213.5 71h10" /><g>
<path d="M223.5 71h0.0" /><path d="M437.0 71h0.0" /><path d="M223.5 71a10 10 0 0 0 10 -10v-11a10 10 0 0 1 10 -10" /><g>
<path d="M243.5 40h173.5" /></g><path d="M417.0 40a10 10 0 0 1 10 10v11a10 10 0 0 0 10 10" /><path d="M223.5 71h20" /><g>
<path d="M243.5 71h0.0" /><path d="M417.0 71h0.0" /><path d="M243.5 71h10" /><g>
<path d="M253.5 71h0.0" /><path d="M407.0 71h0.0" /><g class="terminal ">
<rect data-text="," fill="hsl(120, 100%, 90%)" height="22" stroke="black" stroke-width="3" width="28.5" x="253.5" y="60"></rect><text text-anchor="middle" x="267.75" y="75">,</text></g><path d="M282.0 71h10" /><path d="M292.0 71h10" /><g class="terminal ">
<rect data-text="expression" fill="hsl(120, 100%, 90%)" height="22" stroke="black" stroke-width="3" width="105" x="302" y="60"></rect><text text-anchor="middle" x="354.5" y="75">expression</text></g></g><path d="M407.0 71h10" /><path d="M253.5 71a10 10 0 0 0 -10 10v11a10 10 0 0 0 10 10" /><g>
<path d="M253.5 102h153.5" /></g><path d="M407.0 102a10 10 0 0 0 10 -10v-11a10 10 0 0 0 -10 -10" /></g><path d="M417.0 71h20" /></g></g><path d="M437.0 71h20" /></g><path d="M457.0 71h10" /><g class="terminal ">
<rect data-text=")" fill="hsl(120, 100%, 90%)" height="22" stroke="black" stroke-width="3" width="28.5" x="467" y="60"></rect><text text-anchor="middle" x="481.25" y="75">)</text></g></g><path d="M495.5 71h10" /><path d="M 505.5 71 h 20 m -10 -10 v 20 m 10 -20 v 20"></path></g><style>/* <![CDATA[ */
	svg.railroad-diagram {
		background-color:hsl(30,20%,95%);
	}
	svg.railroad-diagram path {
		stroke-width:3;
		stroke:black;
		fill:rgba(0,0,0,0);
	}
	svg.railroad-diagram text {
		font:bold 14px monospace;
		text-anchor:middle;
	}
	svg.railroad-diagram text.label{
		text-anchor:start;
	}
	svg.railroad-diagram text.comment{
		font:italic 12px monospace;
	}
	svg.railroad-diagram rect{
		stroke-width:3;
		stroke:black;
		fill:hsl(120,100%,90%);
	}
	svg.railroad-diagram rect.group-box {
		stroke: gray;
		stroke-dasharray: 10 5;
		fill: none;
	}

/* ]]> */
</style></svg>