<svg class="railroad-diagram" height="104" viewBox="0 0 558.0 104" width="558.0" xmlns="http://www.w3.org/2000/svg" xmlns:xlink="http://www.w3.org/1999/xlink">
<g transform="translate(.5 .5)">
<g>
<path d="M20 63v20m10 -20v20m-10 -10h20" /></g><path d="M40 73h10" /><g>
<path d="M50 73h0.0" /><path d="M508.0 73h0.0" /><g>
<path d="M50.0 73h0.0" /><path d="M508.0 73h0.0" /><path d="M50.0 73a10 10 0 0 0 10 -10v-22a10 10 0 0 1 10 -10" /><g>
<path d="M70.0 31h86.75" /><path d="M401.25 31h86.75" /><g>
<path d="M156.75 31h0.0" /><path d="M401.25 31h0.0" /><g class="terminal ">
<rect data-text="assert" fill="hsl(120, 100%, 90%)" height="22" stroke="black" stroke-width="3" width="71" x="156.75" y="20"></rect><text text-anchor="middle" x="192.25" y="35">assert</text></g><path d="M227.75 31h10" /><path d="M237.75 31h10" /><g class="terminal ">
<rect data-text="expression" fill="hsl(120, 100%, 90%)" height="22" stroke="black" stroke-width="3" width="105" x="247.75" y="20"></rect><text text-anchor="middle" x="300.25" y="35">expression</text></g><path d="M352.75 31h10" /><path d="M362.75 31h10" /><g class="terminal ">
<rect data-text=";" fill="hsl(120, 100%, 90%)" height="22" stroke="black" stroke-width="3" width="28.5" x="372.75" y="20"></rect><text text-anchor="middle" x="387" y="35">;</text></g></g></g><path d="M488.0 31a10 10 0 0 1 10 10v22a10 10 0 0 0 10 10" /><path d="M50.0 73h20" /><g>
<path d="M70.0 73h0.0" /><path d="M488.0 73h0.0" /><g>
<path d="M70.0 73h0.0" /><path d="M488.0 73h0.0" /><g class="terminal ">
<rect data-text="assert" fill="hsl(120, 100%, 90%)" height="22" stroke="black" stroke-width="3" width="71" x="70" y="62"></rect><text text-anchor="middle" x="105.5" y="77">assert</text></g><path d="M141.0 73h10" /><path d="M151.0 73h10" /><g class="terminal ">
<rect data-text="expression" fill="hsl(120, 100%, 90%)" height="22" stroke="black" stroke-width="3" width="105" x="161" y="62"></rect><text text-anchor="middle" x="213.5" y="77">expression</text></g><path d="M266.0 73h10" /><path d="M276.0 73h10" /><g class="terminal ">
<rect data-text=":" fill="hsl(120, 100%, 90%)" height="22" stroke="black" stroke-width="3" width="28.5" x="286" y="62"></rect><text text-anchor="middle" x="300.25" y="77">:</text></g><path d="M314.5 73h10" /><path d="M324.5 73h10" /><g class="terminal ">
<rect data-text="expression" fill="hsl(120, 100%, 90%)" height="22" stroke="black" stroke-width="3" width="105" x="334.5" y="62"></rect><text text-anchor="middle" x="387" y="77">expression</text></g><path d="M439.5 73h10" /><path d="M449.5 73h10" /><g class="terminal ">
<rect data-text=";" fill="hsl(120, 100%, 90%)" height="22" stroke="black" stroke-width="3" width="28.5" x="459.5" y="62"></rect><text text-anchor="middle" x="473.75" y="77">;</text></g></g></g><path d="M488.0 73h20" /></g></g><path d="M508.0 73h10" /><path d="M 518.0 73 h 20 m -10 -10 v 20 m 10 -20 v 20"></path></g><style>/* <![CDATA[ */
	svg.railroad-diagram {
		background-color:hsl(30,20%,95%);
	}
	svg.railroad-diagram path {
		stroke-width:3;
		stroke:black;
		fill:rgba(0,0,0,0);
	}
	svg.railroad-diagram text {
		font:bold 14px monospace;
		text-anchor:middle;
	}
	svg.railroad-diagram text.label{
		text-anchor:start;
	}
	svg.railroad-diagram text.comment{
		font:italic 12px monospace;
	}
	svg.railroad-diagram rect{
		stroke-width:3;
		stroke:black;
		fill:hsl(120,100%,90%);
	}
	svg.railroad-diagram rect.group-box {
		stroke: gray;
		stroke-dasharray: 10 5;
		fill: none;
	}

/* ]]> */
</style></svg>