<svg class="railroad-diagram" height="82" viewBox="0 0 583.0 82" width="583.0" xmlns="http://www.w3.org/2000/svg" xmlns:xlink="http://www.w3.org/1999/xlink">
<g transform="translate(.5 .5)">
<g>
<path d="M20 41v20m10 -20v20m-10 -10h20" /></g><path d="M40 51h10" /><g>
<path d="M50 51h0.0" /><path d="M533.0 51h0.0" /><g>
<path d="M50.0 51h0.0" /><path d="M186.5 51h0.0" /><path d="M50.0 51a10 10 0 0 0 10 -10v-11a10 10 0 0 1 10 -10" /><g>
<path d="M70.0 20h96.5" /></g><path d="M166.5 20a10 10 0 0 1 10 10v11a10 10 0 0 0 10 10" /><path d="M50.0 51h20" /><g class="terminal ">
<rect data-text="modifiers" fill="hsl(120, 100%, 90%)" height="22" stroke="black" stroke-width="3" width="96.5" x="70" y="40"></rect><text text-anchor="middle" x="118.25" y="55">modifiers</text></g><path d="M166.5 51h20" /></g><path d="M186.5 51h10" /><g class="terminal ">
<rect data-text="_constructor_declarator" fill="hsl(120, 100%, 90%)" height="22" stroke="black" stroke-width="3" width="215.5" x="196.5" y="40"></rect><text text-anchor="middle" x="304.25" y="55">_constructor_declarator</text></g><path d="M412.0 51h10" /><g>
<path d="M422.0 51h0.0" /><path d="M533.0 51h0.0" /><path d="M422.0 51a10 10 0 0 0 10 -10v-11a10 10 0 0 1 10 -10" /><g>
<path d="M442.0 20h71.0" /></g><path d="M513.0 20a10 10 0 0 1 10 10v11a10 10 0 0 0 10 10" /><path d="M422.0 51h20" /><g class="terminal ">
<rect data-text="throws" fill="hsl(120, 100%, 90%)" height="22" stroke="black" stroke-width="3" width="71" x="442" y="40"></rect><text text-anchor="middle" x="477.5" y="55">throws</text></g><path d="M513.0 51h20" /></g></g><path d="M533.0 51h10" /><path d="M 543.0 51 h 20 m -10 -10 v 20 m 10 -20 v 20"></path></g><style>/* <![CDATA[ */
	svg.railroad-diagram {
		background-color:hsl(30,20%,95%);
	}
	svg.railroad-diagram path {
		stroke-width:3;
		stroke:black;
		fill:rgba(0,0,0,0);
	}
	svg.railroad-diagram text {
		font:bold 14px monospace;
		text-anchor:middle;
	}
	svg.railroad-diagram text.label{
		text-anchor:start;
	}
	svg.railroad-diagram text.comment{
		font:italic 12px monospace;
	}
	svg.railroad-diagram rect{
		stroke-width:3;
		stroke:black;
		fill:hsl(120,100%,90%);
	}
	svg.railroad-diagram rect.group-box {
		stroke: gray;
		stroke-dasharray: 10 5;
		fill: none;
	}

/* ]]> */
</style></svg>