<svg class="railroad-diagram" height="82" viewBox="0 0 381.5 82" width="381.5" xmlns="http://www.w3.org/2000/svg" xmlns:xlink="http://www.w3.org/1999/xlink">
<g transform="translate(.5 .5)">
<g>
<path d="M20 41v20m10 -20v20m-10 -10h20" /></g><path d="M40 51h10" /><g>
<path d="M50 51h0.0" /><path d="M331.5 51h0.0" /><g class="terminal ">
<rect data-text="continue" fill="hsl(120, 100%, 90%)" height="22" stroke="black" stroke-width="3" width="88" x="50" y="40"></rect><text text-anchor="middle" x="94" y="55">continue</text></g><path d="M138.0 51h10" /><g>
<path d="M148.0 51h0.0" /><path d="M293.0 51h0.0" /><path d="M148.0 51a10 10 0 0 0 10 -10v-11a10 10 0 0 1 10 -10" /><g>
<path d="M168.0 20h105.0" /></g><path d="M273.0 20a10 10 0 0 1 10 10v11a10 10 0 0 0 10 10" /><path d="M148.0 51h20" /><g class="terminal ">
<rect data-text="identifier" fill="hsl(120, 100%, 90%)" height="22" stroke="black" stroke-width="3" width="105" x="168" y="40"></rect><text text-anchor="middle" x="220.5" y="55">identifier</text></g><path d="M273.0 51h20" /></g><path d="M293.0 51h10" /><g class="terminal ">
<rect data-text=";" fill="hsl(120, 100%, 90%)" height="22" stroke="black" stroke-width="3" width="28.5" x="303" y="40"></rect><text text-anchor="middle" x="317.25" y="55">;</text></g></g><path d="M331.5 51h10" /><path d="M 341.5 51 h 20 m -10 -10 v 20 m 10 -20 v 20"></path></g><style>/* <![CDATA[ */
	svg.railroad-diagram {
		background-color:hsl(30,20%,95%);
	}
	svg.railroad-diagram path {
		stroke-width:3;
		stroke:black;
		fill:rgba(0,0,0,0);
	}
	svg.railroad-diagram text {
		font:bold 14px monospace;
		text-anchor:middle;
	}
	svg.railroad-diagram text.label{
		text-anchor:start;
	}
	svg.railroad-diagram text.comment{
		font:italic 12px monospace;
	}
	svg.railroad-diagram rect{
		stroke-width:3;
		stroke:black;
		fill:hsl(120,100%,90%);
	}
	svg.railroad-diagram rect.group-box {
		stroke: gray;
		stroke-dasharray: 10 5;
		fill: none;
	}

/* ]]> */
</style></svg>