<svg class="railroad-diagram" height="122" viewBox="0 0 682.0 122" width="682.0" xmlns="http://www.w3.org/2000/svg" xmlns:xlink="http://www.w3.org/1999/xlink">
<g transform="translate(.5 .5)">
<g>
<path d="M20 61v20m10 -20v20m-10 -10h20" /></g><path d="M40 71h10" /><g>
<path d="M50 71h0.0" /><path d="M632.0 71h0.0" /><g class="terminal ">
<rect data-text="{" fill="hsl(120, 100%, 90%)" height="22" stroke="black" stroke-width="3" width="28.5" x="50" y="60"></rect><text text-anchor="middle" x="64.25" y="75">{</text></g><path d="M78.5 71h10" /><g>
<path d="M88.5 71h0.0" /><path d="M525.0 71h0.0" /><path d="M88.5 71a10 10 0 0 0 10 -10v-31a10 10 0 0 1 10 -10" /><g>
<path d="M108.5 20h396.5" /></g><path d="M505.0 20a10 10 0 0 1 10 10v31a10 10 0 0 0 10 10" /><path d="M88.5 71h20" /><g>
<path d="M108.5 71h0.0" /><path d="M505.0 71h0.0" /><g class="terminal ">
<rect data-text="_element_value" fill="hsl(120, 100%, 90%)" height="22" stroke="black" stroke-width="3" width="139" x="108.5" y="60"></rect><text text-anchor="middle" x="178" y="75">_element_value</text></g><path d="M247.5 71h10" /><g>
<path d="M257.5 71h0.0" /><path d="M505.0 71h0.0" /><path d="M257.5 71a10 10 0 0 0 10 -10v-11a10 10 0 0 1 10 -10" /><g>
<path d="M277.5 40h207.5" /></g><path d="M485.0 40a10 10 0 0 1 10 10v11a10 10 0 0 0 10 10" /><path d="M257.5 71h20" /><g>
<path d="M277.5 71h0.0" /><path d="M485.0 71h0.0" /><path d="M277.5 71h10" /><g>
<path d="M287.5 71h0.0" /><path d="M475.0 71h0.0" /><g class="terminal ">
<rect data-text="," fill="hsl(120, 100%, 90%)" height="22" stroke="black" stroke-width="3" width="28.5" x="287.5" y="60"></rect><text text-anchor="middle" x="301.75" y="75">,</text></g><path d="M316.0 71h10" /><path d="M326.0 71h10" /><g class="terminal ">
<rect data-text="_element_value" fill="hsl(120, 100%, 90%)" height="22" stroke="black" stroke-width="3" width="139" x="336" y="60"></rect><text text-anchor="middle" x="405.5" y="75">_element_value</text></g></g><path d="M475.0 71h10" /><path d="M287.5 71a10 10 0 0 0 -10 10v11a10 10 0 0 0 10 10" /><g>
<path d="M287.5 102h187.5" /></g><path d="M475.0 102a10 10 0 0 0 10 -10v-11a10 10 0 0 0 -10 -10" /></g><path d="M485.0 71h20" /></g></g><path d="M505.0 71h20" /></g><g>
<path d="M525.0 71h0.0" /><path d="M593.5 71h0.0" /><path d="M525.0 71a10 10 0 0 0 10 -10v-11a10 10 0 0 1 10 -10" /><g>
<path d="M545.0 40h28.5" /></g><path d="M573.5 40a10 10 0 0 1 10 10v11a10 10 0 0 0 10 10" /><path d="M525.0 71h20" /><g class="terminal ">
<rect data-text="," fill="hsl(120, 100%, 90%)" height="22" stroke="black" stroke-width="3" width="28.5" x="545" y="60"></rect><text text-anchor="middle" x="559.25" y="75">,</text></g><path d="M573.5 71h20" /></g><path d="M593.5 71h10" /><g class="terminal ">
<rect data-text="}" fill="hsl(120, 100%, 90%)" height="22" stroke="black" stroke-width="3" width="28.5" x="603.5" y="60"></rect><text text-anchor="middle" x="617.75" y="75">}</text></g></g><path d="M632.0 71h10" /><path d="M 642.0 71 h 20 m -10 -10 v 20 m 10 -20 v 20"></path></g><style>/* <![CDATA[ */
	svg.railroad-diagram {
		background-color:hsl(30,20%,95%);
	}
	svg.railroad-diagram path {
		stroke-width:3;
		stroke:black;
		fill:rgba(0,0,0,0);
	}
	svg.railroad-diagram text {
		font:bold 14px monospace;
		text-anchor:middle;
	}
	svg.railroad-diagram text.label{
		text-anchor:start;
	}
	svg.railroad-diagram text.comment{
		font:italic 12px monospace;
	}
	svg.railroad-diagram rect{
		stroke-width:3;
		stroke:black;
		fill:hsl(120,100%,90%);
	}
	svg.railroad-diagram rect.group-box {
		stroke: gray;
		stroke-dasharray: 10 5;
		fill: none;
	}

/* ]]> */
</style></svg>