<svg class="railroad-diagram" height="122" viewBox="0 0 912.0 122" width="912.0" xmlns="http://www.w3.org/2000/svg" xmlns:xlink="http://www.w3.org/1999/xlink">
<g transform="translate(.5 .5)">
<g>
<path d="M20 61v20m10 -20v20m-10 -10h20" /></g><path d="M40 71h10" /><g>
<path d="M50 71h0.0" /><path d="M862.0 71h0.0" /><g class="terminal ">
<rect data-text="{" fill="hsl(120, 100%, 90%)" height="22" stroke="black" stroke-width="3" width="28.5" x="50" y="60"></rect><text text-anchor="middle" x="64.25" y="75">{</text></g><path d="M78.5 71h10" /><g>
<path d="M88.5 71h0.0" /><path d="M508.0 71h0.0" /><path d="M88.5 71a10 10 0 0 0 10 -10v-31a10 10 0 0 1 10 -10" /><g>
<path d="M108.5 20h379.5" /></g><path d="M488.0 20a10 10 0 0 1 10 10v31a10 10 0 0 0 10 10" /><path d="M88.5 71h20" /><g>
<path d="M108.5 71h0.0" /><path d="M488.0 71h0.0" /><g class="terminal ">
<rect data-text="enum_constant" fill="hsl(120, 100%, 90%)" height="22" stroke="black" stroke-width="3" width="130.5" x="108.5" y="60"></rect><text text-anchor="middle" x="173.75" y="75">enum_constant</text></g><path d="M239.0 71h10" /><g>
<path d="M249.0 71h0.0" /><path d="M488.0 71h0.0" /><path d="M249.0 71a10 10 0 0 0 10 -10v-11a10 10 0 0 1 10 -10" /><g>
<path d="M269.0 40h199.0" /></g><path d="M468.0 40a10 10 0 0 1 10 10v11a10 10 0 0 0 10 10" /><path d="M249.0 71h20" /><g>
<path d="M269.0 71h0.0" /><path d="M468.0 71h0.0" /><path d="M269.0 71h10" /><g>
<path d="M279.0 71h0.0" /><path d="M458.0 71h0.0" /><g class="terminal ">
<rect data-text="," fill="hsl(120, 100%, 90%)" height="22" stroke="black" stroke-width="3" width="28.5" x="279" y="60"></rect><text text-anchor="middle" x="293.25" y="75">,</text></g><path d="M307.5 71h10" /><path d="M317.5 71h10" /><g class="terminal ">
<rect data-text="enum_constant" fill="hsl(120, 100%, 90%)" height="22" stroke="black" stroke-width="3" width="130.5" x="327.5" y="60"></rect><text text-anchor="middle" x="392.75" y="75">enum_constant</text></g></g><path d="M458.0 71h10" /><path d="M279.0 71a10 10 0 0 0 -10 10v11a10 10 0 0 0 10 10" /><g>
<path d="M279.0 102h179.0" /></g><path d="M458.0 102a10 10 0 0 0 10 -10v-11a10 10 0 0 0 -10 -10" /></g><path d="M468.0 71h20" /></g></g><path d="M488.0 71h20" /></g><g>
<path d="M508.0 71h0.0" /><path d="M576.5 71h0.0" /><path d="M508.0 71a10 10 0 0 0 10 -10v-11a10 10 0 0 1 10 -10" /><g>
<path d="M528.0 40h28.5" /></g><path d="M556.5 40a10 10 0 0 1 10 10v11a10 10 0 0 0 10 10" /><path d="M508.0 71h20" /><g class="terminal ">
<rect data-text="," fill="hsl(120, 100%, 90%)" height="22" stroke="black" stroke-width="3" width="28.5" x="528" y="60"></rect><text text-anchor="middle" x="542.25" y="75">,</text></g><path d="M556.5 71h20" /></g><g>
<path d="M576.5 71h0.0" /><path d="M823.5 71h0.0" /><path d="M576.5 71a10 10 0 0 0 10 -10v-11a10 10 0 0 1 10 -10" /><g>
<path d="M596.5 40h207.0" /></g><path d="M803.5 40a10 10 0 0 1 10 10v11a10 10 0 0 0 10 10" /><path d="M576.5 71h20" /><g class="terminal ">
<rect data-text="enum_body_declarations" fill="hsl(120, 100%, 90%)" height="22" stroke="black" stroke-width="3" width="207" x="596.5" y="60"></rect><text text-anchor="middle" x="700" y="75">enum_body_declarations</text></g><path d="M803.5 71h20" /></g><path d="M823.5 71h10" /><g class="terminal ">
<rect data-text="}" fill="hsl(120, 100%, 90%)" height="22" stroke="black" stroke-width="3" width="28.5" x="833.5" y="60"></rect><text text-anchor="middle" x="847.75" y="75">}</text></g></g><path d="M862.0 71h10" /><path d="M 872.0 71 h 20 m -10 -10 v 20 m 10 -20 v 20"></path></g><style>/* <![CDATA[ */
	svg.railroad-diagram {
		background-color:hsl(30,20%,95%);
	}
	svg.railroad-diagram path {
		stroke-width:3;
		stroke:black;
		fill:rgba(0,0,0,0);
	}
	svg.railroad-diagram text {
		font:bold 14px monospace;
		text-anchor:middle;
	}
	svg.railroad-diagram text.label{
		text-anchor:start;
	}
	svg.railroad-diagram text.comment{
		font:italic 12px monospace;
	}
	svg.railroad-diagram rect{
		stroke-width:3;
		stroke:black;
		fill:hsl(120,100%,90%);
	}
	svg.railroad-diagram rect.group-box {
		stroke: gray;
		stroke-dasharray: 10 5;
		fill: none;
	}

/* ]]> */
</style></svg>