<svg class="railroad-diagram" height="440" viewBox="0 0 338.5 440" width="338.5" xmlns="http://www.w3.org/2000/svg" xmlns:xlink="http://www.w3.org/1999/xlink">
<g transform="translate(.5 .5)">
<g>
<path d="M20 231v20m10 -20v20m-10 -10h20" /></g><path d="M40 241h10" /><g>
<path d="M50 241h0.0" /><path d="M288.5 241h0.0" /><g>
<path d="M50.0 241h0.0" /><path d="M288.5 241h0.0" /><path d="M50.0 241a10 10 0 0 0 10 -10v-22a10 10 0 0 1 10 -10" /><g>
<path d="M70.0 199h12.75" /><path d="M255.75 199h12.75" /><g class="terminal ">
<rect data-text="ternary_expression" fill="hsl(120, 100%, 90%)" height="22" stroke="black" stroke-width="3" width="173" x="82.75" y="188"></rect><text text-anchor="middle" x="169.25" y="203">ternary_expression</text></g></g><path d="M268.5 199a10 10 0 0 1 10 10v22a10 10 0 0 0 10 10" /><path d="M50.0 241a10 10 0 0 0 10 -10v-64a10 10 0 0 1 10 -10" /><g>
<path d="M70.0 157h17.0" /><path d="M251.5 157h17.0" /><g class="terminal ">
<rect data-text="lambda_expression" fill="hsl(120, 100%, 90%)" height="22" stroke="black" stroke-width="3" width="164.5" x="87" y="146"></rect><text text-anchor="middle" x="169.25" y="161">lambda_expression</text></g></g><path d="M268.5 157a10 10 0 0 1 10 10v64a10 10 0 0 0 10 10" /><path d="M50.0 241a10 10 0 0 0 10 -10v-106a10 10 0 0 1 10 -10" /><g>
<path d="M70.0 115h0.0" /><path d="M268.5 115h0.0" /><g class="terminal ">
<rect data-text="instanceof_expression" fill="hsl(120, 100%, 90%)" height="22" stroke="black" stroke-width="3" width="198.5" x="70" y="104"></rect><text text-anchor="middle" x="169.25" y="119">instanceof_expression</text></g></g><path d="M268.5 115a10 10 0 0 1 10 10v106a10 10 0 0 0 10 10" /><path d="M50.0 241a10 10 0 0 0 10 -10v-148a10 10 0 0 1 10 -10" /><g>
<path d="M70.0 73h17.0" /><path d="M251.5 73h17.0" /><g class="terminal ">
<rect data-text="binary_expression" fill="hsl(120, 100%, 90%)" height="22" stroke="black" stroke-width="3" width="164.5" x="87" y="62"></rect><text text-anchor="middle" x="169.25" y="77">binary_expression</text></g></g><path d="M268.5 73a10 10 0 0 1 10 10v148a10 10 0 0 0 10 10" /><path d="M50.0 241a10 10 0 0 0 10 -10v-190a10 10 0 0 1 10 -10" /><g>
<path d="M70.0 31h0.0" /><path d="M268.5 31h0.0" /><g class="terminal ">
<rect data-text="assignment_expression" fill="hsl(120, 100%, 90%)" height="22" stroke="black" stroke-width="3" width="198.5" x="70" y="20"></rect><text text-anchor="middle" x="169.25" y="35">assignment_expression</text></g></g><path d="M268.5 31a10 10 0 0 1 10 10v190a10 10 0 0 0 10 10" /><path d="M50.0 241h20" /><g>
<path d="M70.0 241h17.0" /><path d="M251.5 241h17.0" /><g class="terminal ">
<rect data-text="update_expression" fill="hsl(120, 100%, 90%)" height="22" stroke="black" stroke-width="3" width="164.5" x="87" y="230"></rect><text text-anchor="middle" x="169.25" y="245">update_expression</text></g></g><path d="M268.5 241h20" /><path d="M50.0 241a10 10 0 0 1 10 10v22a10 10 0 0 0 10 10" /><g>
<path d="M70.0 283h12.75" /><path d="M255.75 283h12.75" /><g class="terminal ">
<rect data-text="primary_expression" fill="hsl(120, 100%, 90%)" height="22" stroke="black" stroke-width="3" width="173" x="82.75" y="272"></rect><text text-anchor="middle" x="169.25" y="287">primary_expression</text></g></g><path d="M268.5 283a10 10 0 0 0 10 -10v-22a10 10 0 0 1 10 -10" /><path d="M50.0 241a10 10 0 0 1 10 10v64a10 10 0 0 0 10 10" /><g>
<path d="M70.0 325h21.25" /><path d="M247.25 325h21.25" /><g class="terminal ">
<rect data-text="unary_expression" fill="hsl(120, 100%, 90%)" height="22" stroke="black" stroke-width="3" width="156" x="91.25" y="314"></rect><text text-anchor="middle" x="169.25" y="329">unary_expression</text></g></g><path d="M268.5 325a10 10 0 0 0 10 -10v-64a10 10 0 0 1 10 -10" /><path d="M50.0 241a10 10 0 0 1 10 10v106a10 10 0 0 0 10 10" /><g>
<path d="M70.0 367h25.5" /><path d="M243.0 367h25.5" /><g class="terminal ">
<rect data-text="cast_expression" fill="hsl(120, 100%, 90%)" height="22" stroke="black" stroke-width="3" width="147.5" x="95.5" y="356"></rect><text text-anchor="middle" x="169.25" y="371">cast_expression</text></g></g><path d="M268.5 367a10 10 0 0 0 10 -10v-106a10 10 0 0 1 10 -10" /><path d="M50.0 241a10 10 0 0 1 10 10v148a10 10 0 0 0 10 10" /><g>
<path d="M70.0 409h17.0" /><path d="M251.5 409h17.0" /><g class="terminal ">
<rect data-text="switch_expression" fill="hsl(120, 100%, 90%)" height="22" stroke="black" stroke-width="3" width="164.5" x="87" y="398"></rect><text text-anchor="middle" x="169.25" y="413">switch_expression</text></g></g><path d="M268.5 409a10 10 0 0 0 10 -10v-148a10 10 0 0 1 10 -10" /></g></g><path d="M288.5 241h10" /><path d="M 298.5 241 h 20 m -10 -10 v 20 m 10 -20 v 20"></path></g><style>/* <![CDATA[ */
	svg.railroad-diagram {
		background-color:hsl(30,20%,95%);
	}
	svg.railroad-diagram path {
		stroke-width:3;
		stroke:black;
		fill:rgba(0,0,0,0);
	}
	svg.railroad-diagram text {
		font:bold 14px monospace;
		text-anchor:middle;
	}
	svg.railroad-diagram text.label{
		text-anchor:start;
	}
	svg.railroad-diagram text.comment{
		font:italic 12px monospace;
	}
	svg.railroad-diagram rect{
		stroke-width:3;
		stroke:black;
		fill:hsl(120,100%,90%);
	}
	svg.railroad-diagram rect.group-box {
		stroke: gray;
		stroke-dasharray: 10 5;
		fill: none;
	}

/* ]]> */
</style></svg>