<svg class="railroad-diagram" height="82" viewBox="0 0 589.5 82" width="589.5" xmlns="http://www.w3.org/2000/svg" xmlns:xlink="http://www.w3.org/1999/xlink">
<g transform="translate(.5 .5)">
<g>
<path d="M20 41v20m10 -20v20m-10 -10h20" /></g><path d="M40 51h10" /><g>
<path d="M50 51h0.0" /><path d="M539.5 51h0.0" /><g class="terminal ">
<rect data-text="import" fill="hsl(120, 100%, 90%)" height="22" stroke="black" stroke-width="3" width="71" x="50" y="40"></rect><text text-anchor="middle" x="85.5" y="55">import</text></g><path d="M121.0 51h10" /><g>
<path d="M131.0 51h0.0" /><path d="M242.0 51h0.0" /><path d="M131.0 51a10 10 0 0 0 10 -10v-11a10 10 0 0 1 10 -10" /><g>
<path d="M151.0 20h71.0" /></g><path d="M222.0 20a10 10 0 0 1 10 10v11a10 10 0 0 0 10 10" /><path d="M131.0 51h20" /><g class="terminal ">
<rect data-text="static" fill="hsl(120, 100%, 90%)" height="22" stroke="black" stroke-width="3" width="71" x="151" y="40"></rect><text text-anchor="middle" x="186.5" y="55">static</text></g><path d="M222.0 51h20" /></g><path d="M242.0 51h10" /><g class="terminal ">
<rect data-text="_name" fill="hsl(120, 100%, 90%)" height="22" stroke="black" stroke-width="3" width="62.5" x="252" y="40"></rect><text text-anchor="middle" x="283.25" y="55">_name</text></g><path d="M314.5 51h10" /><g>
<path d="M324.5 51h0.0" /><path d="M501.0 51h0.0" /><path d="M324.5 51a10 10 0 0 0 10 -10v-11a10 10 0 0 1 10 -10" /><g>
<path d="M344.5 20h136.5" /></g><path d="M481.0 20a10 10 0 0 1 10 10v11a10 10 0 0 0 10 10" /><path d="M324.5 51h20" /><g>
<path d="M344.5 51h0.0" /><path d="M481.0 51h0.0" /><g class="terminal ">
<rect data-text="." fill="hsl(120, 100%, 90%)" height="22" stroke="black" stroke-width="3" width="28.5" x="344.5" y="40"></rect><text text-anchor="middle" x="358.75" y="55">.</text></g><path d="M373.0 51h10" /><path d="M383.0 51h10" /><g class="terminal ">
<rect data-text="asterisk" fill="hsl(120, 100%, 90%)" height="22" stroke="black" stroke-width="3" width="88" x="393" y="40"></rect><text text-anchor="middle" x="437" y="55">asterisk</text></g></g><path d="M481.0 51h20" /></g><path d="M501.0 51h10" /><g class="terminal ">
<rect data-text=";" fill="hsl(120, 100%, 90%)" height="22" stroke="black" stroke-width="3" width="28.5" x="511" y="40"></rect><text text-anchor="middle" x="525.25" y="55">;</text></g></g><path d="M539.5 51h10" /><path d="M 549.5 51 h 20 m -10 -10 v 20 m 10 -20 v 20"></path></g><style>/* <![CDATA[ */
	svg.railroad-diagram {
		background-color:hsl(30,20%,95%);
	}
	svg.railroad-diagram path {
		stroke-width:3;
		stroke:black;
		fill:rgba(0,0,0,0);
	}
	svg.railroad-diagram text {
		font:bold 14px monospace;
		text-anchor:middle;
	}
	svg.railroad-diagram text.label{
		text-anchor:start;
	}
	svg.railroad-diagram text.comment{
		font:italic 12px monospace;
	}
	svg.railroad-diagram rect{
		stroke-width:3;
		stroke:black;
		fill:hsl(120,100%,90%);
	}
	svg.railroad-diagram rect.group-box {
		stroke: gray;
		stroke-dasharray: 10 5;
		fill: none;
	}

/* ]]> */
</style></svg>