<svg class="railroad-diagram" height="144" viewBox="0 0 775.5 144" width="775.5" xmlns="http://www.w3.org/2000/svg" xmlns:xlink="http://www.w3.org/1999/xlink">
<g transform="translate(.5 .5)">
<g>
<path d="M20 83v20m10 -20v20m-10 -10h20" /></g><path d="M40 93h10" /><g>
<path d="M50 93h0.0" /><path d="M725.5 93h0.0" /><g class="terminal ">
<rect data-text="(" fill="hsl(120, 100%, 90%)" height="22" stroke="black" stroke-width="3" width="28.5" x="50" y="82"></rect><text text-anchor="middle" x="64.25" y="97">(</text></g><path d="M78.5 93h10" /><path d="M88.5 93h10" /><g>
<path d="M98.5 93h0.0" /><path d="M677.0 93h0.0" /><g>
<path d="M98.5 93h0.0" /><path d="M328.5 93h0.0" /><g>
<path d="M98.5 93h0.0" /><path d="M328.5 93h0.0" /><path d="M98.5 93a10 10 0 0 0 10 -10v-22a10 10 0 0 1 10 -10" /><g>
<path d="M118.5 51h42.5" /><path d="M266.0 51h42.5" /><g class="terminal ">
<rect data-text="identifier" fill="hsl(120, 100%, 90%)" height="22" stroke="black" stroke-width="3" width="105" x="161" y="40"></rect><text text-anchor="middle" x="213.5" y="55">identifier</text></g></g><path d="M308.5 51a10 10 0 0 1 10 10v22a10 10 0 0 0 10 10" /><path d="M98.5 93h20" /><g>
<path d="M118.5 93h0.0" /><path d="M308.5 93h0.0" /><g class="terminal ">
<rect data-text="_reserved_identifier" fill="hsl(120, 100%, 90%)" height="22" stroke="black" stroke-width="3" width="190" x="118.5" y="82"></rect><text text-anchor="middle" x="213.5" y="97">_reserved_identifier</text></g></g><path d="M308.5 93h20" /></g></g><path d="M328.5 93h10" /><g>
<path d="M338.5 93h0.0" /><path d="M677.0 93h0.0" /><path d="M338.5 93a10 10 0 0 0 10 -10v-53a10 10 0 0 1 10 -10" /><g>
<path d="M358.5 20h298.5" /></g><path d="M657.0 20a10 10 0 0 1 10 10v53a10 10 0 0 0 10 10" /><path d="M338.5 93h20" /><g>
<path d="M358.5 93h0.0" /><path d="M657.0 93h0.0" /><path d="M358.5 93h10" /><g>
<path d="M368.5 93h0.0" /><path d="M647.0 93h0.0" /><g class="terminal ">
<rect data-text="," fill="hsl(120, 100%, 90%)" height="22" stroke="black" stroke-width="3" width="28.5" x="368.5" y="82"></rect><text text-anchor="middle" x="382.75" y="97">,</text></g><path d="M397.0 93h10" /><path d="M407.0 93h10" /><g>
<path d="M417.0 93h0.0" /><path d="M647.0 93h0.0" /><g>
<path d="M417.0 93h0.0" /><path d="M647.0 93h0.0" /><path d="M417.0 93a10 10 0 0 0 10 -10v-22a10 10 0 0 1 10 -10" /><g>
<path d="M437.0 51h42.5" /><path d="M584.5 51h42.5" /><g class="terminal ">
<rect data-text="identifier" fill="hsl(120, 100%, 90%)" height="22" stroke="black" stroke-width="3" width="105" x="479.5" y="40"></rect><text text-anchor="middle" x="532" y="55">identifier</text></g></g><path d="M627.0 51a10 10 0 0 1 10 10v22a10 10 0 0 0 10 10" /><path d="M417.0 93h20" /><g>
<path d="M437.0 93h0.0" /><path d="M627.0 93h0.0" /><g class="terminal ">
<rect data-text="_reserved_identifier" fill="hsl(120, 100%, 90%)" height="22" stroke="black" stroke-width="3" width="190" x="437" y="82"></rect><text text-anchor="middle" x="532" y="97">_reserved_identifier</text></g></g><path d="M627.0 93h20" /></g></g></g><path d="M647.0 93h10" /><path d="M368.5 93a10 10 0 0 0 -10 10v11a10 10 0 0 0 10 10" /><g>
<path d="M368.5 124h278.5" /></g><path d="M647.0 124a10 10 0 0 0 10 -10v-11a10 10 0 0 0 -10 -10" /></g><path d="M657.0 93h20" /></g></g><path d="M677.0 93h10" /><path d="M687.0 93h10" /><g class="terminal ">
<rect data-text=")" fill="hsl(120, 100%, 90%)" height="22" stroke="black" stroke-width="3" width="28.5" x="697" y="82"></rect><text text-anchor="middle" x="711.25" y="97">)</text></g></g><path d="M725.5 93h10" /><path d="M 735.5 93 h 20 m -10 -10 v 20 m 10 -20 v 20"></path></g><style>/* <![CDATA[ */
	svg.railroad-diagram {
		background-color:hsl(30,20%,95%);
	}
	svg.railroad-diagram path {
		stroke-width:3;
		stroke:black;
		fill:rgba(0,0,0,0);
	}
	svg.railroad-diagram text {
		font:bold 14px monospace;
		text-anchor:middle;
	}
	svg.railroad-diagram text.label{
		text-anchor:start;
	}
	svg.railroad-diagram text.comment{
		font:italic 12px monospace;
	}
	svg.railroad-diagram rect{
		stroke-width:3;
		stroke:black;
		fill:hsl(120,100%,90%);
	}
	svg.railroad-diagram rect.group-box {
		stroke: gray;
		stroke-dasharray: 10 5;
		fill: none;
	}

/* ]]> */
</style></svg>