<svg class="railroad-diagram" height="230" viewBox="0 0 202.5 230" width="202.5" xmlns="http://www.w3.org/2000/svg" xmlns:xlink="http://www.w3.org/1999/xlink">
<g transform="translate(.5 .5)">
<g>
<path d="M20 105v20m10 -20v20m-10 -10h20" /></g><path d="M40 115h10" /><g>
<path d="M50 115h0.0" /><path d="M152.5 115h0.0" /><g>
<path d="M50.0 115h0.0" /><path d="M152.5 115h0.0" /><path d="M50.0 115a10 10 0 0 0 10 -10v-22a10 10 0 0 1 10 -10" /><g>
<path d="M70.0 73h0.0" /><path d="M132.5 73h0.0" /><g class="terminal ">
<rect data-text="short" fill="hsl(120, 100%, 90%)" height="22" stroke="black" stroke-width="3" width="62.5" x="70" y="62"></rect><text text-anchor="middle" x="101.25" y="77">short</text></g></g><path d="M132.5 73a10 10 0 0 1 10 10v22a10 10 0 0 0 10 10" /><path d="M50.0 115a10 10 0 0 0 10 -10v-64a10 10 0 0 1 10 -10" /><g>
<path d="M70.0 31h4.25" /><path d="M128.25 31h4.25" /><g class="terminal ">
<rect data-text="byte" fill="hsl(120, 100%, 90%)" height="22" stroke="black" stroke-width="3" width="54" x="74.25" y="20"></rect><text text-anchor="middle" x="101.25" y="35">byte</text></g></g><path d="M132.5 31a10 10 0 0 1 10 10v64a10 10 0 0 0 10 10" /><path d="M50.0 115h20" /><g>
<path d="M70.0 115h8.5" /><path d="M124.0 115h8.5" /><g class="terminal ">
<rect data-text="int" fill="hsl(120, 100%, 90%)" height="22" stroke="black" stroke-width="3" width="45.5" x="78.5" y="104"></rect><text text-anchor="middle" x="101.25" y="119">int</text></g></g><path d="M132.5 115h20" /><path d="M50.0 115a10 10 0 0 1 10 10v22a10 10 0 0 0 10 10" /><g>
<path d="M70.0 157h4.25" /><path d="M128.25 157h4.25" /><g class="terminal ">
<rect data-text="long" fill="hsl(120, 100%, 90%)" height="22" stroke="black" stroke-width="3" width="54" x="74.25" y="146"></rect><text text-anchor="middle" x="101.25" y="161">long</text></g></g><path d="M132.5 157a10 10 0 0 0 10 -10v-22a10 10 0 0 1 10 -10" /><path d="M50.0 115a10 10 0 0 1 10 10v64a10 10 0 0 0 10 10" /><g>
<path d="M70.0 199h4.25" /><path d="M128.25 199h4.25" /><g class="terminal ">
<rect data-text="char" fill="hsl(120, 100%, 90%)" height="22" stroke="black" stroke-width="3" width="54" x="74.25" y="188"></rect><text text-anchor="middle" x="101.25" y="203">char</text></g></g><path d="M132.5 199a10 10 0 0 0 10 -10v-64a10 10 0 0 1 10 -10" /></g></g><path d="M152.5 115h10" /><path d="M 162.5 115 h 20 m -10 -10 v 20 m 10 -20 v 20"></path></g><style>/* <![CDATA[ */
	svg.railroad-diagram {
		background-color:hsl(30,20%,95%);
	}
	svg.railroad-diagram path {
		stroke-width:3;
		stroke:black;
		fill:rgba(0,0,0,0);
	}
	svg.railroad-diagram text {
		font:bold 14px monospace;
		text-anchor:middle;
	}
	svg.railroad-diagram text.label{
		text-anchor:start;
	}
	svg.railroad-diagram text.comment{
		font:italic 12px monospace;
	}
	svg.railroad-diagram rect{
		stroke-width:3;
		stroke:black;
		fill:hsl(120,100%,90%);
	}
	svg.railroad-diagram rect.group-box {
		stroke: gray;
		stroke-dasharray: 10 5;
		fill: none;
	}

/* ]]> */
</style></svg>