<svg class="railroad-diagram" height="670" viewBox="0 0 282.0 670" width="282.0" xmlns="http://www.w3.org/2000/svg" xmlns:xlink="http://www.w3.org/1999/xlink">
<g transform="translate(.5 .5)">
<g>
<path d="M20 315v20m10 -20v20m-10 -10h20" /></g><path d="M40 325h10" /><g>
<path d="M50 325h0.0" /><path d="M232.0 325h0.0" /><g>
<path d="M50.0 325h0.0" /><path d="M232.0 325h0.0" /><path d="M50.0 325h10" /><g>
<path d="M60.0 325h0.0" /><path d="M222.0 325h0.0" /><g>
<path d="M60.0 325h0.0" /><path d="M222.0 325h0.0" /><path d="M60.0 325a10 10 0 0 0 10 -10v-22a10 10 0 0 1 10 -10" /><g>
<path d="M80.0 283h29.75" /><path d="M172.25 283h29.75" /><g class="terminal ">
<rect data-text="final" fill="hsl(120, 100%, 90%)" height="22" stroke="black" stroke-width="3" width="62.5" x="109.75" y="272"></rect><text text-anchor="middle" x="141" y="287">final</text></g></g><path d="M202.0 283a10 10 0 0 1 10 10v22a10 10 0 0 0 10 10" /><path d="M60.0 325a10 10 0 0 0 10 -10v-64a10 10 0 0 1 10 -10" /><g>
<path d="M80.0 241h25.5" /><path d="M176.5 241h25.5" /><g class="terminal ">
<rect data-text="static" fill="hsl(120, 100%, 90%)" height="22" stroke="black" stroke-width="3" width="71" x="105.5" y="230"></rect><text text-anchor="middle" x="141" y="245">static</text></g></g><path d="M202.0 241a10 10 0 0 1 10 10v64a10 10 0 0 0 10 10" /><path d="M60.0 325a10 10 0 0 0 10 -10v-106a10 10 0 0 1 10 -10" /><g>
<path d="M80.0 199h17.0" /><path d="M185.0 199h17.0" /><g class="terminal ">
<rect data-text="abstract" fill="hsl(120, 100%, 90%)" height="22" stroke="black" stroke-width="3" width="88" x="97" y="188"></rect><text text-anchor="middle" x="141" y="203">abstract</text></g></g><path d="M202.0 199a10 10 0 0 1 10 10v106a10 10 0 0 0 10 10" /><path d="M60.0 325a10 10 0 0 0 10 -10v-148a10 10 0 0 1 10 -10" /><g>
<path d="M80.0 157h21.25" /><path d="M180.75 157h21.25" /><g class="terminal ">
<rect data-text="private" fill="hsl(120, 100%, 90%)" height="22" stroke="black" stroke-width="3" width="79.5" x="101.25" y="146"></rect><text text-anchor="middle" x="141" y="161">private</text></g></g><path d="M202.0 157a10 10 0 0 1 10 10v148a10 10 0 0 0 10 10" /><path d="M60.0 325a10 10 0 0 0 10 -10v-190a10 10 0 0 1 10 -10" /><g>
<path d="M80.0 115h12.75" /><path d="M189.25 115h12.75" /><g class="terminal ">
<rect data-text="protected" fill="hsl(120, 100%, 90%)" height="22" stroke="black" stroke-width="3" width="96.5" x="92.75" y="104"></rect><text text-anchor="middle" x="141" y="119">protected</text></g></g><path d="M202.0 115a10 10 0 0 1 10 10v190a10 10 0 0 0 10 10" /><path d="M60.0 325a10 10 0 0 0 10 -10v-232a10 10 0 0 1 10 -10" /><g>
<path d="M80.0 73h25.5" /><path d="M176.5 73h25.5" /><g class="terminal ">
<rect data-text="public" fill="hsl(120, 100%, 90%)" height="22" stroke="black" stroke-width="3" width="71" x="105.5" y="62"></rect><text text-anchor="middle" x="141" y="77">public</text></g></g><path d="M202.0 73a10 10 0 0 1 10 10v232a10 10 0 0 0 10 10" /><path d="M60.0 325a10 10 0 0 0 10 -10v-274a10 10 0 0 1 10 -10" /><g>
<path d="M80.0 31h4.25" /><path d="M197.75 31h4.25" /><g class="terminal ">
<rect data-text="_annotation" fill="hsl(120, 100%, 90%)" height="22" stroke="black" stroke-width="3" width="113.5" x="84.25" y="20"></rect><text text-anchor="middle" x="141" y="35">_annotation</text></g></g><path d="M202.0 31a10 10 0 0 1 10 10v274a10 10 0 0 0 10 10" /><path d="M60.0 325h20" /><g>
<path d="M80.0 325h17.0" /><path d="M185.0 325h17.0" /><g class="terminal ">
<rect data-text="strictfp" fill="hsl(120, 100%, 90%)" height="22" stroke="black" stroke-width="3" width="88" x="97" y="314"></rect><text text-anchor="middle" x="141" y="329">strictfp</text></g></g><path d="M202.0 325h20" /><path d="M60.0 325a10 10 0 0 1 10 10v22a10 10 0 0 0 10 10" /><g>
<path d="M80.0 367h21.25" /><path d="M180.75 367h21.25" /><g class="terminal ">
<rect data-text="default" fill="hsl(120, 100%, 90%)" height="22" stroke="black" stroke-width="3" width="79.5" x="101.25" y="356"></rect><text text-anchor="middle" x="141" y="371">default</text></g></g><path d="M202.0 367a10 10 0 0 0 10 -10v-22a10 10 0 0 1 10 -10" /><path d="M60.0 325a10 10 0 0 1 10 10v64a10 10 0 0 0 10 10" /><g>
<path d="M80.0 409h0.0" /><path d="M202.0 409h0.0" /><g class="terminal ">
<rect data-text="synchronized" fill="hsl(120, 100%, 90%)" height="22" stroke="black" stroke-width="3" width="122" x="80" y="398"></rect><text text-anchor="middle" x="141" y="413">synchronized</text></g></g><path d="M202.0 409a10 10 0 0 0 10 -10v-64a10 10 0 0 1 10 -10" /><path d="M60.0 325a10 10 0 0 1 10 10v106a10 10 0 0 0 10 10" /><g>
<path d="M80.0 451h25.5" /><path d="M176.5 451h25.5" /><g class="terminal ">
<rect data-text="native" fill="hsl(120, 100%, 90%)" height="22" stroke="black" stroke-width="3" width="71" x="105.5" y="440"></rect><text text-anchor="middle" x="141" y="455">native</text></g></g><path d="M202.0 451a10 10 0 0 0 10 -10v-106a10 10 0 0 1 10 -10" /><path d="M60.0 325a10 10 0 0 1 10 10v148a10 10 0 0 0 10 10" /><g>
<path d="M80.0 493h12.75" /><path d="M189.25 493h12.75" /><g class="terminal ">
<rect data-text="transient" fill="hsl(120, 100%, 90%)" height="22" stroke="black" stroke-width="3" width="96.5" x="92.75" y="482"></rect><text text-anchor="middle" x="141" y="497">transient</text></g></g><path d="M202.0 493a10 10 0 0 0 10 -10v-148a10 10 0 0 1 10 -10" /><path d="M60.0 325a10 10 0 0 1 10 10v190a10 10 0 0 0 10 10" /><g>
<path d="M80.0 535h17.0" /><path d="M185.0 535h17.0" /><g class="terminal ">
<rect data-text="volatile" fill="hsl(120, 100%, 90%)" height="22" stroke="black" stroke-width="3" width="88" x="97" y="524"></rect><text text-anchor="middle" x="141" y="539">volatile</text></g></g><path d="M202.0 535a10 10 0 0 0 10 -10v-190a10 10 0 0 1 10 -10" /><path d="M60.0 325a10 10 0 0 1 10 10v232a10 10 0 0 0 10 10" /><g>
<path d="M80.0 577h25.5" /><path d="M176.5 577h25.5" /><g class="terminal ">
<rect data-text="sealed" fill="hsl(120, 100%, 90%)" height="22" stroke="black" stroke-width="3" width="71" x="105.5" y="566"></rect><text text-anchor="middle" x="141" y="581">sealed</text></g></g><path d="M202.0 577a10 10 0 0 0 10 -10v-232a10 10 0 0 1 10 -10" /><path d="M60.0 325a10 10 0 0 1 10 10v274a10 10 0 0 0 10 10" /><g>
<path d="M80.0 619h8.5" /><path d="M193.5 619h8.5" /><g class="terminal ">
<rect data-text="non-sealed" fill="hsl(120, 100%, 90%)" height="22" stroke="black" stroke-width="3" width="105" x="88.5" y="608"></rect><text text-anchor="middle" x="141" y="623">non-sealed</text></g></g><path d="M202.0 619a10 10 0 0 0 10 -10v-274a10 10 0 0 1 10 -10" /></g></g><path d="M222.0 325h10" /><path d="M60.0 325a10 10 0 0 0 -10 10v305a10 10 0 0 0 10 10" /><g>
<path d="M60.0 650h162.0" /></g><path d="M222.0 650a10 10 0 0 0 10 -10v-305a10 10 0 0 0 -10 -10" /></g></g><path d="M232.0 325h10" /><path d="M 242.0 325 h 20 m -10 -10 v 20 m 10 -20 v 20"></path></g><style>/* <![CDATA[ */
	svg.railroad-diagram {
		background-color:hsl(30,20%,95%);
	}
	svg.railroad-diagram path {
		stroke-width:3;
		stroke:black;
		fill:rgba(0,0,0,0);
	}
	svg.railroad-diagram text {
		font:bold 14px monospace;
		text-anchor:middle;
	}
	svg.railroad-diagram text.label{
		text-anchor:start;
	}
	svg.railroad-diagram text.comment{
		font:italic 12px monospace;
	}
	svg.railroad-diagram rect{
		stroke-width:3;
		stroke:black;
		fill:hsl(120,100%,90%);
	}
	svg.railroad-diagram rect.group-box {
		stroke: gray;
		stroke-dasharray: 10 5;
		fill: none;
	}

/* ]]> */
</style></svg>