<svg class="railroad-diagram" height="104" viewBox="0 0 733.0 104" width="733.0" xmlns="http://www.w3.org/2000/svg" xmlns:xlink="http://www.w3.org/1999/xlink">
<g transform="translate(.5 .5)">
<g>
<path d="M20 63v20m10 -20v20m-10 -10h20" /></g><path d="M40 73h10" /><g>
<path d="M50 73h0.0" /><path d="M683.0 73h0.0" /><g>
<path d="M50.0 73h0.0" /><path d="M683.0 73h0.0" /><path d="M50.0 73a10 10 0 0 0 10 -10v-22a10 10 0 0 1 10 -10" /><g>
<path d="M70.0 31h120.75" /><path d="M542.25 31h120.75" /><g class="terminal ">
<rect data-text="_unqualified_object_creation_expression" fill="hsl(120, 100%, 90%)" height="22" stroke="black" stroke-width="3" width="351.5" x="190.75" y="20"></rect><text text-anchor="middle" x="366.5" y="35">_unqualified_object_creation_expression</text></g></g><path d="M663.0 31a10 10 0 0 1 10 10v22a10 10 0 0 0 10 10" /><path d="M50.0 73h20" /><g>
<path d="M70.0 73h0.0" /><path d="M663.0 73h0.0" /><g>
<path d="M70.0 73h0.0" /><path d="M663.0 73h0.0" /><g class="terminal ">
<rect data-text="primary_expression" fill="hsl(120, 100%, 90%)" height="22" stroke="black" stroke-width="3" width="173" x="70" y="62"></rect><text text-anchor="middle" x="156.5" y="77">primary_expression</text></g><path d="M243.0 73h10" /><path d="M253.0 73h10" /><g class="terminal ">
<rect data-text="." fill="hsl(120, 100%, 90%)" height="22" stroke="black" stroke-width="3" width="28.5" x="263" y="62"></rect><text text-anchor="middle" x="277.25" y="77">.</text></g><path d="M291.5 73h10" /><path d="M301.5 73h10" /><g class="terminal ">
<rect data-text="_unqualified_object_creation_expression" fill="hsl(120, 100%, 90%)" height="22" stroke="black" stroke-width="3" width="351.5" x="311.5" y="62"></rect><text text-anchor="middle" x="487.25" y="77">_unqualified_object_creation_expression</text></g></g></g><path d="M663.0 73h20" /></g></g><path d="M683.0 73h10" /><path d="M 693.0 73 h 20 m -10 -10 v 20 m 10 -20 v 20"></path></g><style>/* <![CDATA[ */
	svg.railroad-diagram {
		background-color:hsl(30,20%,95%);
	}
	svg.railroad-diagram path {
		stroke-width:3;
		stroke:black;
		fill:rgba(0,0,0,0);
	}
	svg.railroad-diagram text {
		font:bold 14px monospace;
		text-anchor:middle;
	}
	svg.railroad-diagram text.label{
		text-anchor:start;
	}
	svg.railroad-diagram text.comment{
		font:italic 12px monospace;
	}
	svg.railroad-diagram rect{
		stroke-width:3;
		stroke:black;
		fill:hsl(120,100%,90%);
	}
	svg.railroad-diagram rect.group-box {
		stroke: gray;
		stroke-dasharray: 10 5;
		fill: none;
	}

/* ]]> */
</style></svg>