<svg class="railroad-diagram" height="146" viewBox="0 0 554.5 146" width="554.5" xmlns="http://www.w3.org/2000/svg" xmlns:xlink="http://www.w3.org/1999/xlink">
<g transform="translate(.5 .5)">
<g>
<path d="M20 105v20m10 -20v20m-10 -10h20" /></g><path d="M40 115h10" /><g>
<path d="M50 115h0.0" /><path d="M504.5 115h0.0" /><g>
<path d="M50.0 115h0.0" /><path d="M504.5 115h0.0" /><path d="M50.0 115a10 10 0 0 0 10 -10v-64a10 10 0 0 1 10 -10" /><g>
<path d="M70.0 31h120.75" /><path d="M363.75 31h120.75" /><g class="terminal ">
<rect data-text="underscore_pattern" fill="hsl(120, 100%, 90%)" height="22" stroke="black" stroke-width="3" width="173" x="190.75" y="20"></rect><text text-anchor="middle" x="277.25" y="35">underscore_pattern</text></g></g><path d="M484.5 31a10 10 0 0 1 10 10v64a10 10 0 0 0 10 10" /><path d="M50.0 115h20" /><g>
<path d="M70.0 115h0.0" /><path d="M484.5 115h0.0" /><g>
<path d="M70.0 115h0.0" /><path d="M484.5 115h0.0" /><g class="terminal ">
<rect data-text="_unannotated_type" fill="hsl(120, 100%, 90%)" height="22" stroke="black" stroke-width="3" width="164.5" x="70" y="104"></rect><text text-anchor="middle" x="152.25" y="119">_unannotated_type</text></g><path d="M234.5 115h10" /><path d="M244.5 115h10" /><g>
<path d="M254.5 115h0.0" /><path d="M484.5 115h0.0" /><g>
<path d="M254.5 115h0.0" /><path d="M484.5 115h0.0" /><path d="M254.5 115a10 10 0 0 0 10 -10v-22a10 10 0 0 1 10 -10" /><g>
<path d="M274.5 73h42.5" /><path d="M422.0 73h42.5" /><g class="terminal ">
<rect data-text="identifier" fill="hsl(120, 100%, 90%)" height="22" stroke="black" stroke-width="3" width="105" x="317" y="62"></rect><text text-anchor="middle" x="369.5" y="77">identifier</text></g></g><path d="M464.5 73a10 10 0 0 1 10 10v22a10 10 0 0 0 10 10" /><path d="M254.5 115h20" /><g>
<path d="M274.5 115h0.0" /><path d="M464.5 115h0.0" /><g class="terminal ">
<rect data-text="_reserved_identifier" fill="hsl(120, 100%, 90%)" height="22" stroke="black" stroke-width="3" width="190" x="274.5" y="104"></rect><text text-anchor="middle" x="369.5" y="119">_reserved_identifier</text></g></g><path d="M464.5 115h20" /></g></g></g></g><path d="M484.5 115h20" /></g></g><path d="M504.5 115h10" /><path d="M 514.5 115 h 20 m -10 -10 v 20 m 10 -20 v 20"></path></g><style>/* <![CDATA[ */
	svg.railroad-diagram {
		background-color:hsl(30,20%,95%);
	}
	svg.railroad-diagram path {
		stroke-width:3;
		stroke:black;
		fill:rgba(0,0,0,0);
	}
	svg.railroad-diagram text {
		font:bold 14px monospace;
		text-anchor:middle;
	}
	svg.railroad-diagram text.label{
		text-anchor:start;
	}
	svg.railroad-diagram text.comment{
		font:italic 12px monospace;
	}
	svg.railroad-diagram rect{
		stroke-width:3;
		stroke:black;
		fill:hsl(120,100%,90%);
	}
	svg.railroad-diagram rect.group-box {
		stroke: gray;
		stroke-dasharray: 10 5;
		fill: none;
	}

/* ]]> */
</style></svg>