<svg class="railroad-diagram" height="146" viewBox="0 0 531.5 146" width="531.5" xmlns="http://www.w3.org/2000/svg" xmlns:xlink="http://www.w3.org/1999/xlink">
<g transform="translate(.5 .5)">
<g>
<path d="M20 63v20m10 -20v20m-10 -10h20" /></g><path d="M40 73h10" /><g>
<path d="M50 73h0.0" /><path d="M481.5 73h0.0" /><g>
<path d="M50.0 73h0.0" /><path d="M280.0 73h0.0" /><g>
<path d="M50.0 73h0.0" /><path d="M280.0 73h0.0" /><path d="M50.0 73a10 10 0 0 0 10 -10v-22a10 10 0 0 1 10 -10" /><g>
<path d="M70.0 31h42.5" /><path d="M217.5 31h42.5" /><g class="terminal ">
<rect data-text="identifier" fill="hsl(120, 100%, 90%)" height="22" stroke="black" stroke-width="3" width="105" x="112.5" y="20"></rect><text text-anchor="middle" x="165" y="35">identifier</text></g></g><path d="M260.0 31a10 10 0 0 1 10 10v22a10 10 0 0 0 10 10" /><path d="M50.0 73h20" /><g>
<path d="M70.0 73h0.0" /><path d="M260.0 73h0.0" /><g class="terminal ">
<rect data-text="_reserved_identifier" fill="hsl(120, 100%, 90%)" height="22" stroke="black" stroke-width="3" width="190" x="70" y="62"></rect><text text-anchor="middle" x="165" y="77">_reserved_identifier</text></g></g><path d="M260.0 73h20" /><path d="M50.0 73a10 10 0 0 1 10 10v22a10 10 0 0 0 10 10" /><g>
<path d="M70.0 115h34.0" /><path d="M226.0 115h34.0" /><g class="terminal ">
<rect data-text="generic_type" fill="hsl(120, 100%, 90%)" height="22" stroke="black" stroke-width="3" width="122" x="104" y="104"></rect><text text-anchor="middle" x="165" y="119">generic_type</text></g></g><path d="M260.0 115a10 10 0 0 0 10 -10v-22a10 10 0 0 1 10 -10" /></g></g><path d="M280.0 73h10" /><path d="M290.0 73h10" /><g class="terminal ">
<rect data-text="record_pattern_body" fill="hsl(120, 100%, 90%)" height="22" stroke="black" stroke-width="3" width="181.5" x="300" y="62"></rect><text text-anchor="middle" x="390.75" y="77">record_pattern_body</text></g></g><path d="M481.5 73h10" /><path d="M 491.5 73 h 20 m -10 -10 v 20 m 10 -20 v 20"></path></g><style>/* <![CDATA[ */
	svg.railroad-diagram {
		background-color:hsl(30,20%,95%);
	}
	svg.railroad-diagram path {
		stroke-width:3;
		stroke:black;
		fill:rgba(0,0,0,0);
	}
	svg.railroad-diagram text {
		font:bold 14px monospace;
		text-anchor:middle;
	}
	svg.railroad-diagram text.label{
		text-anchor:start;
	}
	svg.railroad-diagram text.comment{
		font:italic 12px monospace;
	}
	svg.railroad-diagram rect{
		stroke-width:3;
		stroke:black;
		fill:hsl(120,100%,90%);
	}
	svg.railroad-diagram rect.group-box {
		stroke: gray;
		stroke-dasharray: 10 5;
		fill: none;
	}

/* ]]> */
</style></svg>