<svg class="railroad-diagram" height="146" viewBox="0 0 694.0 146" width="694.0" xmlns="http://www.w3.org/2000/svg" xmlns:xlink="http://www.w3.org/1999/xlink">
<g transform="translate(.5 .5)">
<g>
<path d="M20 63v20m10 -20v20m-10 -10h20" /></g><path d="M40 73h10" /><g>
<path d="M50 73h0.0" /><path d="M644.0 73h0.0" /><g>
<path d="M50.0 73h0.0" /><path d="M297.0 73h0.0" /><g>
<path d="M50.0 73h0.0" /><path d="M297.0 73h0.0" /><path d="M50.0 73a10 10 0 0 0 10 -10v-22a10 10 0 0 1 10 -10" /><g>
<path d="M70.0 31h51.0" /><path d="M226.0 31h51.0" /><g>
<path d="M121.0 31h0.0" /><path d="M226.0 31h0.0" /><g class="terminal ">
<rect data-text="identifier" fill="hsl(120, 100%, 90%)" height="22" stroke="black" stroke-width="3" width="105" x="121" y="20"></rect><text text-anchor="middle" x="173.5" y="35">identifier</text></g></g></g><path d="M277.0 31a10 10 0 0 1 10 10v22a10 10 0 0 0 10 10" /><path d="M50.0 73h20" /><g>
<path d="M70.0 73h0.0" /><path d="M277.0 73h0.0" /><g class="terminal ">
<rect data-text="scoped_type_identifier" fill="hsl(120, 100%, 90%)" height="22" stroke="black" stroke-width="3" width="207" x="70" y="62"></rect><text text-anchor="middle" x="173.5" y="77">scoped_type_identifier</text></g></g><path d="M277.0 73h20" /><path d="M50.0 73a10 10 0 0 1 10 10v22a10 10 0 0 0 10 10" /><g>
<path d="M70.0 115h42.5" /><path d="M234.5 115h42.5" /><g class="terminal ">
<rect data-text="generic_type" fill="hsl(120, 100%, 90%)" height="22" stroke="black" stroke-width="3" width="122" x="112.5" y="104"></rect><text text-anchor="middle" x="173.5" y="119">generic_type</text></g></g><path d="M277.0 115a10 10 0 0 0 10 -10v-22a10 10 0 0 1 10 -10" /></g></g><path d="M297.0 73h10" /><path d="M307.0 73h10" /><g class="terminal ">
<rect data-text="." fill="hsl(120, 100%, 90%)" height="22" stroke="black" stroke-width="3" width="28.5" x="317" y="62"></rect><text text-anchor="middle" x="331.25" y="77">.</text></g><path d="M345.5 73h10" /><g>
<path d="M355.5 73h0.0" /><path d="M529.0 73h0.0" /><path d="M355.5 73a10 10 0 0 0 10 -10v-11a10 10 0 0 1 10 -10" /><g>
<path d="M375.5 42h133.5" /></g><path d="M509.0 42a10 10 0 0 1 10 10v11a10 10 0 0 0 10 10" /><path d="M355.5 73h20" /><g>
<path d="M375.5 73h0.0" /><path d="M509.0 73h0.0" /><path d="M375.5 73h10" /><g class="terminal ">
<rect data-text="_annotation" fill="hsl(120, 100%, 90%)" height="22" stroke="black" stroke-width="3" width="113.5" x="385.5" y="62"></rect><text text-anchor="middle" x="442.25" y="77">_annotation</text></g><path d="M499.0 73h10" /><path d="M385.5 73a10 10 0 0 0 -10 10v11a10 10 0 0 0 10 10" /><g>
<path d="M385.5 104h113.5" /></g><path d="M499.0 104a10 10 0 0 0 10 -10v-11a10 10 0 0 0 -10 -10" /></g><path d="M509.0 73h20" /></g><path d="M529.0 73h10" /><g>
<path d="M539.0 73h0.0" /><path d="M644.0 73h0.0" /><g class="terminal ">
<rect data-text="identifier" fill="hsl(120, 100%, 90%)" height="22" stroke="black" stroke-width="3" width="105" x="539" y="62"></rect><text text-anchor="middle" x="591.5" y="77">identifier</text></g></g></g><path d="M644.0 73h10" /><path d="M 654.0 73 h 20 m -10 -10 v 20 m 10 -20 v 20"></path></g><style>/* <![CDATA[ */
	svg.railroad-diagram {
		background-color:hsl(30,20%,95%);
	}
	svg.railroad-diagram path {
		stroke-width:3;
		stroke:black;
		fill:rgba(0,0,0,0);
	}
	svg.railroad-diagram text {
		font:bold 14px monospace;
		text-anchor:middle;
	}
	svg.railroad-diagram text.label{
		text-anchor:start;
	}
	svg.railroad-diagram text.comment{
		font:italic 12px monospace;
	}
	svg.railroad-diagram rect{
		stroke-width:3;
		stroke:black;
		fill:hsl(120,100%,90%);
	}
	svg.railroad-diagram rect.group-box {
		stroke: gray;
		stroke-dasharray: 10 5;
		fill: none;
	}

/* ]]> */
</style></svg>