<svg class="railroad-diagram" height="146" viewBox="0 0 554.5 146" width="554.5" xmlns="http://www.w3.org/2000/svg" xmlns:xlink="http://www.w3.org/1999/xlink">
<g transform="translate(.5 .5)">
<g>
<path d="M20 63v20m10 -20v20m-10 -10h20" /></g><path d="M40 73h10" /><g>
<path d="M50 73h0.0" /><path d="M504.5 73h0.0" /><g class="terminal ">
<rect data-text="switch_label" fill="hsl(120, 100%, 90%)" height="22" stroke="black" stroke-width="3" width="122" x="50" y="62"></rect><text text-anchor="middle" x="111" y="77">switch_label</text></g><path d="M172.0 73h10" /><path d="M182.0 73h10" /><g class="terminal ">
<rect data-text="-&amp;gt;" fill="hsl(120, 100%, 90%)" height="22" stroke="black" stroke-width="3" width="62.5" x="192" y="62"></rect><text text-anchor="middle" x="223.25" y="77">-&amp;gt;</text></g><path d="M254.5 73h10" /><path d="M264.5 73h10" /><g>
<path d="M274.5 73h0.0" /><path d="M504.5 73h0.0" /><g>
<path d="M274.5 73h0.0" /><path d="M504.5 73h0.0" /><path d="M274.5 73a10 10 0 0 0 10 -10v-22a10 10 0 0 1 10 -10" /><g>
<path d="M294.5 31h0.0" /><path d="M484.5 31h0.0" /><g class="terminal ">
<rect data-text="expression_statement" fill="hsl(120, 100%, 90%)" height="22" stroke="black" stroke-width="3" width="190" x="294.5" y="20"></rect><text text-anchor="middle" x="389.5" y="35">expression_statement</text></g></g><path d="M484.5 31a10 10 0 0 1 10 10v22a10 10 0 0 0 10 10" /><path d="M274.5 73h20" /><g>
<path d="M294.5 73h21.25" /><path d="M463.25 73h21.25" /><g class="terminal ">
<rect data-text="throw_statement" fill="hsl(120, 100%, 90%)" height="22" stroke="black" stroke-width="3" width="147.5" x="315.75" y="62"></rect><text text-anchor="middle" x="389.5" y="77">throw_statement</text></g></g><path d="M484.5 73h20" /><path d="M274.5 73a10 10 0 0 1 10 10v22a10 10 0 0 0 10 10" /><g>
<path d="M294.5 115h63.75" /><path d="M420.75 115h63.75" /><g class="terminal ">
<rect data-text="block" fill="hsl(120, 100%, 90%)" height="22" stroke="black" stroke-width="3" width="62.5" x="358.25" y="104"></rect><text text-anchor="middle" x="389.5" y="119">block</text></g></g><path d="M484.5 115a10 10 0 0 0 10 -10v-22a10 10 0 0 1 10 -10" /></g></g></g><path d="M504.5 73h10" /><path d="M 514.5 73 h 20 m -10 -10 v 20 m 10 -20 v 20"></path></g><style>/* <![CDATA[ */
	svg.railroad-diagram {
		background-color:hsl(30,20%,95%);
	}
	svg.railroad-diagram path {
		stroke-width:3;
		stroke:black;
		fill:rgba(0,0,0,0);
	}
	svg.railroad-diagram text {
		font:bold 14px monospace;
		text-anchor:middle;
	}
	svg.railroad-diagram text.label{
		text-anchor:start;
	}
	svg.railroad-diagram text.comment{
		font:italic 12px monospace;
	}
	svg.railroad-diagram rect{
		stroke-width:3;
		stroke:black;
		fill:hsl(120,100%,90%);
	}
	svg.railroad-diagram rect.group-box {
		stroke: gray;
		stroke-dasharray: 10 5;
		fill: none;
	}

/* ]]> */
</style></svg>