<svg class="railroad-diagram" height="184" viewBox="0 0 555.0 184" width="555.0" xmlns="http://www.w3.org/2000/svg" xmlns:xlink="http://www.w3.org/1999/xlink">
<g transform="translate(.5 .5)">
<g>
<path d="M20 123v20m10 -20v20m-10 -10h20" /></g><path d="M40 133h10" /><g>
<path d="M50 133h0.0" /><path d="M505.0 133h0.0" /><g class="terminal ">
<rect data-text="{" fill="hsl(120, 100%, 90%)" height="22" stroke="black" stroke-width="3" width="28.5" x="50" y="122"></rect><text text-anchor="middle" x="64.25" y="137">{</text></g><path d="M78.5 133h10" /><path d="M88.5 133h10" /><g>
<path d="M98.5 133h0.0" /><path d="M456.5 133h0.0" /><g>
<path d="M98.5 133h0.0" /><path d="M456.5 133h0.0" /><path d="M98.5 133a10 10 0 0 0 10 -10v-62a10 10 0 0 1 10 -10" /><g>
<path d="M118.5 51h0.0" /><path d="M436.5 51h0.0" /><g>
<path d="M118.5 51h0.0" /><path d="M436.5 51h0.0" /><path d="M118.5 51a10 10 0 0 0 10 -10v-11a10 10 0 0 1 10 -10" /><g>
<path d="M138.5 20h278.0" /></g><path d="M416.5 20a10 10 0 0 1 10 10v11a10 10 0 0 0 10 10" /><path d="M118.5 51h20" /><g>
<path d="M138.5 51h0.0" /><path d="M416.5 51h0.0" /><path d="M138.5 51h10" /><g class="terminal ">
<rect data-text="switch_block_statement_group" fill="hsl(120, 100%, 90%)" height="22" stroke="black" stroke-width="3" width="258" x="148.5" y="40"></rect><text text-anchor="middle" x="277.5" y="55">switch_block_statement_group</text></g><path d="M406.5 51h10" /><path d="M148.5 51a10 10 0 0 0 -10 10v11a10 10 0 0 0 10 10" /><g>
<path d="M148.5 82h258.0" /></g><path d="M406.5 82a10 10 0 0 0 10 -10v-11a10 10 0 0 0 -10 -10" /></g><path d="M416.5 51h20" /></g></g><path d="M436.5 51a10 10 0 0 1 10 10v62a10 10 0 0 0 10 10" /><path d="M98.5 133h20" /><g>
<path d="M118.5 133h72.25" /><path d="M364.25 133h72.25" /><g>
<path d="M190.75 133h0.0" /><path d="M364.25 133h0.0" /><path d="M190.75 133a10 10 0 0 0 10 -10v-11a10 10 0 0 1 10 -10" /><g>
<path d="M210.75 102h133.5" /></g><path d="M344.25 102a10 10 0 0 1 10 10v11a10 10 0 0 0 10 10" /><path d="M190.75 133h20" /><g>
<path d="M210.75 133h0.0" /><path d="M344.25 133h0.0" /><path d="M210.75 133h10" /><g class="terminal ">
<rect data-text="switch_rule" fill="hsl(120, 100%, 90%)" height="22" stroke="black" stroke-width="3" width="113.5" x="220.75" y="122"></rect><text text-anchor="middle" x="277.5" y="137">switch_rule</text></g><path d="M334.25 133h10" /><path d="M220.75 133a10 10 0 0 0 -10 10v11a10 10 0 0 0 10 10" /><g>
<path d="M220.75 164h113.5" /></g><path d="M334.25 164a10 10 0 0 0 10 -10v-11a10 10 0 0 0 -10 -10" /></g><path d="M344.25 133h20" /></g></g><path d="M436.5 133h20" /></g></g><path d="M456.5 133h10" /><path d="M466.5 133h10" /><g class="terminal ">
<rect data-text="}" fill="hsl(120, 100%, 90%)" height="22" stroke="black" stroke-width="3" width="28.5" x="476.5" y="122"></rect><text text-anchor="middle" x="490.75" y="137">}</text></g></g><path d="M505.0 133h10" /><path d="M 515.0 133 h 20 m -10 -10 v 20 m 10 -20 v 20"></path></g><style>/* <![CDATA[ */
	svg.railroad-diagram {
		background-color:hsl(30,20%,95%);
	}
	svg.railroad-diagram path {
		stroke-width:3;
		stroke:black;
		fill:rgba(0,0,0,0);
	}
	svg.railroad-diagram text {
		font:bold 14px monospace;
		text-anchor:middle;
	}
	svg.railroad-diagram text.label{
		text-anchor:start;
	}
	svg.railroad-diagram text.comment{
		font:italic 12px monospace;
	}
	svg.railroad-diagram rect{
		stroke-width:3;
		stroke:black;
		fill:hsl(120,100%,90%);
	}
	svg.railroad-diagram rect.group-box {
		stroke: gray;
		stroke-dasharray: 10 5;
		fill: none;
	}

/* ]]> */
</style></svg>