<svg class="railroad-diagram" height="102" viewBox="0 0 644.5 102" width="644.5" xmlns="http://www.w3.org/2000/svg" xmlns:xlink="http://www.w3.org/1999/xlink">
<g transform="translate(.5 .5)">
<g>
<path d="M20 41v20m10 -20v20m-10 -10h20" /></g><path d="M40 51h10" /><g>
<path d="M50 51h0.0" /><path d="M594.5 51h0.0" /><g class="terminal ">
<rect data-text="&amp;lt;" fill="hsl(120, 100%, 90%)" height="22" stroke="black" stroke-width="3" width="54" x="50" y="40"></rect><text text-anchor="middle" x="77" y="55">&amp;lt;</text></g><path d="M104.0 51h10" /><path d="M114.0 51h10" /><g>
<path d="M124.0 51h0.0" /><path d="M520.5 51h0.0" /><g class="terminal ">
<rect data-text="type_parameter" fill="hsl(120, 100%, 90%)" height="22" stroke="black" stroke-width="3" width="139" x="124" y="40"></rect><text text-anchor="middle" x="193.5" y="55">type_parameter</text></g><path d="M263.0 51h10" /><g>
<path d="M273.0 51h0.0" /><path d="M520.5 51h0.0" /><path d="M273.0 51a10 10 0 0 0 10 -10v-11a10 10 0 0 1 10 -10" /><g>
<path d="M293.0 20h207.5" /></g><path d="M500.5 20a10 10 0 0 1 10 10v11a10 10 0 0 0 10 10" /><path d="M273.0 51h20" /><g>
<path d="M293.0 51h0.0" /><path d="M500.5 51h0.0" /><path d="M293.0 51h10" /><g>
<path d="M303.0 51h0.0" /><path d="M490.5 51h0.0" /><g class="terminal ">
<rect data-text="," fill="hsl(120, 100%, 90%)" height="22" stroke="black" stroke-width="3" width="28.5" x="303" y="40"></rect><text text-anchor="middle" x="317.25" y="55">,</text></g><path d="M331.5 51h10" /><path d="M341.5 51h10" /><g class="terminal ">
<rect data-text="type_parameter" fill="hsl(120, 100%, 90%)" height="22" stroke="black" stroke-width="3" width="139" x="351.5" y="40"></rect><text text-anchor="middle" x="421" y="55">type_parameter</text></g></g><path d="M490.5 51h10" /><path d="M303.0 51a10 10 0 0 0 -10 10v11a10 10 0 0 0 10 10" /><g>
<path d="M303.0 82h187.5" /></g><path d="M490.5 82a10 10 0 0 0 10 -10v-11a10 10 0 0 0 -10 -10" /></g><path d="M500.5 51h20" /></g></g><path d="M520.5 51h10" /><path d="M530.5 51h10" /><g class="terminal ">
<rect data-text="&amp;gt;" fill="hsl(120, 100%, 90%)" height="22" stroke="black" stroke-width="3" width="54" x="540.5" y="40"></rect><text text-anchor="middle" x="567.5" y="55">&amp;gt;</text></g></g><path d="M594.5 51h10" /><path d="M 604.5 51 h 20 m -10 -10 v 20 m 10 -20 v 20"></path></g><style>/* <![CDATA[ */
	svg.railroad-diagram {
		background-color:hsl(30,20%,95%);
	}
	svg.railroad-diagram path {
		stroke-width:3;
		stroke:black;
		fill:rgba(0,0,0,0);
	}
	svg.railroad-diagram text {
		font:bold 14px monospace;
		text-anchor:middle;
	}
	svg.railroad-diagram text.label{
		text-anchor:start;
	}
	svg.railroad-diagram text.comment{
		font:italic 12px monospace;
	}
	svg.railroad-diagram rect{
		stroke-width:3;
		stroke:black;
		fill:hsl(120,100%,90%);
	}
	svg.railroad-diagram rect.group-box {
		stroke: gray;
		stroke-dasharray: 10 5;
		fill: none;
	}

/* ]]> */
</style></svg>