<svg class="railroad-diagram" height="102" viewBox="0 0 343.5 102" width="343.5" xmlns="http://www.w3.org/2000/svg" xmlns:xlink="http://www.w3.org/1999/xlink">
<g transform="translate(.5 .5)">
<g>
<path d="M20 41v20m10 -20v20m-10 -10h20" /></g><path d="M40 51h10" /><g>
<path d="M50 51h0.0" /><path d="M293.5 51h0.0" /><g class="terminal ">
<rect data-text="_type" fill="hsl(120, 100%, 90%)" height="22" stroke="black" stroke-width="3" width="62.5" x="50" y="40"></rect><text text-anchor="middle" x="81.25" y="55">_type</text></g><path d="M112.5 51h10" /><g>
<path d="M122.5 51h0.0" /><path d="M293.5 51h0.0" /><path d="M122.5 51a10 10 0 0 0 10 -10v-11a10 10 0 0 1 10 -10" /><g>
<path d="M142.5 20h131.0" /></g><path d="M273.5 20a10 10 0 0 1 10 10v11a10 10 0 0 0 10 10" /><path d="M122.5 51h20" /><g>
<path d="M142.5 51h0.0" /><path d="M273.5 51h0.0" /><path d="M142.5 51h10" /><g>
<path d="M152.5 51h0.0" /><path d="M263.5 51h0.0" /><g class="terminal ">
<rect data-text="," fill="hsl(120, 100%, 90%)" height="22" stroke="black" stroke-width="3" width="28.5" x="152.5" y="40"></rect><text text-anchor="middle" x="166.75" y="55">,</text></g><path d="M181.0 51h10" /><path d="M191.0 51h10" /><g class="terminal ">
<rect data-text="_type" fill="hsl(120, 100%, 90%)" height="22" stroke="black" stroke-width="3" width="62.5" x="201" y="40"></rect><text text-anchor="middle" x="232.25" y="55">_type</text></g></g><path d="M263.5 51h10" /><path d="M152.5 51a10 10 0 0 0 -10 10v11a10 10 0 0 0 10 10" /><g>
<path d="M152.5 82h111.0" /></g><path d="M263.5 82a10 10 0 0 0 10 -10v-11a10 10 0 0 0 -10 -10" /></g><path d="M273.5 51h20" /></g></g><path d="M293.5 51h10" /><path d="M 303.5 51 h 20 m -10 -10 v 20 m 10 -20 v 20"></path></g><style>/* <![CDATA[ */
	svg.railroad-diagram {
		background-color:hsl(30,20%,95%);
	}
	svg.railroad-diagram path {
		stroke-width:3;
		stroke:black;
		fill:rgba(0,0,0,0);
	}
	svg.railroad-diagram text {
		font:bold 14px monospace;
		text-anchor:middle;
	}
	svg.railroad-diagram text.label{
		text-anchor:start;
	}
	svg.railroad-diagram text.comment{
		font:italic 12px monospace;
	}
	svg.railroad-diagram rect{
		stroke-width:3;
		stroke:black;
		fill:hsl(120,100%,90%);
	}
	svg.railroad-diagram rect.group-box {
		stroke: gray;
		stroke-dasharray: 10 5;
		fill: none;
	}

/* ]]> */
</style></svg>