<svg class="railroad-diagram" height="164" viewBox="0 0 642.5 164" width="642.5" xmlns="http://www.w3.org/2000/svg" xmlns:xlink="http://www.w3.org/1999/xlink">
<g transform="translate(.5 .5)">
<g>
<path d="M20 103v20m10 -20v20m-10 -10h20" /></g><path d="M40 113h10" /><g>
<path d="M50 113h0.0" /><path d="M592.5 113h0.0" /><g class="terminal ">
<rect data-text="&amp;lt;" fill="hsl(120, 100%, 90%)" height="22" stroke="black" stroke-width="3" width="54" x="50" y="102"></rect><text text-anchor="middle" x="77" y="117">&amp;lt;</text></g><path d="M104.0 113h10" /><g>
<path d="M114.0 113h0.0" /><path d="M528.5 113h0.0" /><path d="M114.0 113a10 10 0 0 0 10 -10v-73a10 10 0 0 1 10 -10" /><g>
<path d="M134.0 20h374.5" /></g><path d="M508.5 20a10 10 0 0 1 10 10v73a10 10 0 0 0 10 10" /><path d="M114.0 113h20" /><g>
<path d="M134.0 113h0.0" /><path d="M508.5 113h0.0" /><g>
<path d="M134.0 113h0.0" /><path d="M262.0 113h0.0" /><g>
<path d="M134.0 113h0.0" /><path d="M262.0 113h0.0" /><path d="M134.0 113a10 10 0 0 0 10 -10v-22a10 10 0 0 1 10 -10" /><g>
<path d="M154.0 71h12.75" /><path d="M229.25 71h12.75" /><g class="terminal ">
<rect data-text="_type" fill="hsl(120, 100%, 90%)" height="22" stroke="black" stroke-width="3" width="62.5" x="166.75" y="60"></rect><text text-anchor="middle" x="198" y="75">_type</text></g></g><path d="M242.0 71a10 10 0 0 1 10 10v22a10 10 0 0 0 10 10" /><path d="M134.0 113h20" /><g>
<path d="M154.0 113h0.0" /><path d="M242.0 113h0.0" /><g class="terminal ">
<rect data-text="wildcard" fill="hsl(120, 100%, 90%)" height="22" stroke="black" stroke-width="3" width="88" x="154" y="102"></rect><text text-anchor="middle" x="198" y="117">wildcard</text></g></g><path d="M242.0 113h20" /></g></g><path d="M262.0 113h10" /><g>
<path d="M272.0 113h0.0" /><path d="M508.5 113h0.0" /><path d="M272.0 113a10 10 0 0 0 10 -10v-53a10 10 0 0 1 10 -10" /><g>
<path d="M292.0 40h196.5" /></g><path d="M488.5 40a10 10 0 0 1 10 10v53a10 10 0 0 0 10 10" /><path d="M272.0 113h20" /><g>
<path d="M292.0 113h0.0" /><path d="M488.5 113h0.0" /><path d="M292.0 113h10" /><g>
<path d="M302.0 113h0.0" /><path d="M478.5 113h0.0" /><g class="terminal ">
<rect data-text="," fill="hsl(120, 100%, 90%)" height="22" stroke="black" stroke-width="3" width="28.5" x="302" y="102"></rect><text text-anchor="middle" x="316.25" y="117">,</text></g><path d="M330.5 113h10" /><path d="M340.5 113h10" /><g>
<path d="M350.5 113h0.0" /><path d="M478.5 113h0.0" /><g>
<path d="M350.5 113h0.0" /><path d="M478.5 113h0.0" /><path d="M350.5 113a10 10 0 0 0 10 -10v-22a10 10 0 0 1 10 -10" /><g>
<path d="M370.5 71h12.75" /><path d="M445.75 71h12.75" /><g class="terminal ">
<rect data-text="_type" fill="hsl(120, 100%, 90%)" height="22" stroke="black" stroke-width="3" width="62.5" x="383.25" y="60"></rect><text text-anchor="middle" x="414.5" y="75">_type</text></g></g><path d="M458.5 71a10 10 0 0 1 10 10v22a10 10 0 0 0 10 10" /><path d="M350.5 113h20" /><g>
<path d="M370.5 113h0.0" /><path d="M458.5 113h0.0" /><g class="terminal ">
<rect data-text="wildcard" fill="hsl(120, 100%, 90%)" height="22" stroke="black" stroke-width="3" width="88" x="370.5" y="102"></rect><text text-anchor="middle" x="414.5" y="117">wildcard</text></g></g><path d="M458.5 113h20" /></g></g></g><path d="M478.5 113h10" /><path d="M302.0 113a10 10 0 0 0 -10 10v11a10 10 0 0 0 10 10" /><g>
<path d="M302.0 144h176.5" /></g><path d="M478.5 144a10 10 0 0 0 10 -10v-11a10 10 0 0 0 -10 -10" /></g><path d="M488.5 113h20" /></g></g><path d="M508.5 113h20" /></g><path d="M528.5 113h10" /><g class="terminal ">
<rect data-text="&amp;gt;" fill="hsl(120, 100%, 90%)" height="22" stroke="black" stroke-width="3" width="54" x="538.5" y="102"></rect><text text-anchor="middle" x="565.5" y="117">&amp;gt;</text></g></g><path d="M592.5 113h10" /><path d="M 602.5 113 h 20 m -10 -10 v 20 m 10 -20 v 20"></path></g><style>/* <![CDATA[ */
	svg.railroad-diagram {
		background-color:hsl(30,20%,95%);
	}
	svg.railroad-diagram path {
		stroke-width:3;
		stroke:black;
		fill:rgba(0,0,0,0);
	}
	svg.railroad-diagram text {
		font:bold 14px monospace;
		text-anchor:middle;
	}
	svg.railroad-diagram text.label{
		text-anchor:start;
	}
	svg.railroad-diagram text.comment{
		font:italic 12px monospace;
	}
	svg.railroad-diagram rect{
		stroke-width:3;
		stroke:black;
		fill:hsl(120,100%,90%);
	}
	svg.railroad-diagram rect.group-box {
		stroke: gray;
		stroke-dasharray: 10 5;
		fill: none;
	}

/* ]]> */
</style></svg>