<svg class="railroad-diagram" height="146" viewBox="0 0 517.5 146" width="517.5" xmlns="http://www.w3.org/2000/svg" xmlns:xlink="http://www.w3.org/1999/xlink">
<g transform="translate(.5 .5)">
<g>
<path d="M20 63v20m10 -20v20m-10 -10h20" /></g><path d="M40 73h10" /><g>
<path d="M50 73h0.0" /><path d="M467.5 73h0.0" /><g class="terminal ">
<rect data-text="(" fill="hsl(120, 100%, 90%)" height="22" stroke="black" stroke-width="3" width="28.5" x="50" y="62"></rect><text text-anchor="middle" x="64.25" y="77">(</text></g><path d="M78.5 73h10" /><path d="M88.5 73h10" /><g class="terminal ">
<rect data-text="exp" fill="hsl(120, 100%, 90%)" height="22" stroke="black" stroke-width="3" width="45.5" x="98.5" y="62"></rect><text text-anchor="middle" x="121.25" y="77">exp</text></g><path d="M144.0 73h10" /><path d="M154.0 73h10" /><g class="terminal ">
<rect data-text=")?" fill="hsl(120, 100%, 90%)" height="22" stroke="black" stroke-width="3" width="37" x="164" y="62"></rect><text text-anchor="middle" x="182.5" y="77">)?</text></g><path d="M201.0 73h10" /><path d="M211.0 73h10" /><g class="terminal ">
<rect data-text="=" fill="hsl(120, 100%, 90%)" height="22" stroke="black" stroke-width="3" width="28.5" x="221" y="62"></rect><text text-anchor="middle" x="235.25" y="77">=</text></g><path d="M249.5 73h10" /><g>
<path d="M259.5 73h0.0" /><path d="M467.5 73h0.0" /><path d="M259.5 73a10 10 0 0 0 10 -10v-22a10 10 0 0 1 10 -10" /><g>
<path d="M279.5 31h61.25" /><path d="M386.25 31h61.25" /><g class="terminal ">
<rect data-text="exp" fill="hsl(120, 100%, 90%)" height="22" stroke="black" stroke-width="3" width="45.5" x="340.75" y="20"></rect><text text-anchor="middle" x="363.5" y="35">exp</text></g></g><path d="M447.5 31a10 10 0 0 1 10 10v22a10 10 0 0 0 10 10" /><path d="M259.5 73h20" /><g>
<path d="M279.5 73h0.0" /><path d="M447.5 73h0.0" /><g class="terminal ">
<rect data-text="Name" fill="hsl(120, 100%, 90%)" height="22" stroke="black" stroke-width="3" width="54" x="279.5" y="62"></rect><text text-anchor="middle" x="306.5" y="77">Name</text></g><path d="M333.5 73h10" /><path d="M343.5 73h10" /><g class="terminal ">
<rect data-text="=" fill="hsl(120, 100%, 90%)" height="22" stroke="black" stroke-width="3" width="28.5" x="353.5" y="62"></rect><text text-anchor="middle" x="367.75" y="77">=</text></g><path d="M382.0 73h10" /><path d="M392.0 73h10" /><g class="terminal ">
<rect data-text="exp" fill="hsl(120, 100%, 90%)" height="22" stroke="black" stroke-width="3" width="45.5" x="402" y="62"></rect><text text-anchor="middle" x="424.75" y="77">exp</text></g></g><path d="M447.5 73h20" /><path d="M259.5 73a10 10 0 0 1 10 10v22a10 10 0 0 0 10 10" /><g>
<path d="M279.5 115h61.25" /><path d="M386.25 115h61.25" /><g class="terminal ">
<rect data-text="exp" fill="hsl(120, 100%, 90%)" height="22" stroke="black" stroke-width="3" width="45.5" x="340.75" y="104"></rect><text text-anchor="middle" x="363.5" y="119">exp</text></g></g><path d="M447.5 115a10 10 0 0 0 10 -10v-22a10 10 0 0 1 10 -10" /></g></g><path d="M467.5 73h10" /><path d="M 477.5 73 h 20 m -10 -10 v 20 m 10 -20 v 20"></path></g><style>/* <![CDATA[ */
	svg.railroad-diagram {
		background-color:hsl(30,20%,95%);
	}
	svg.railroad-diagram path {
		stroke-width:3;
		stroke:black;
		fill:rgba(0,0,0,0);
	}
	svg.railroad-diagram text {
		font:bold 14px monospace;
		text-anchor:middle;
	}
	svg.railroad-diagram text.label{
		text-anchor:start;
	}
	svg.railroad-diagram text.comment{
		font:italic 12px monospace;
	}
	svg.railroad-diagram rect{
		stroke-width:3;
		stroke:black;
		fill:hsl(120,100%,90%);
	}
	svg.railroad-diagram rect.group-box {
		stroke: gray;
		stroke-dasharray: 10 5;
		fill: none;
	}

/* ]]> */
</style></svg>