<svg class="railroad-diagram" height="102" viewBox="0 0 531.0 102" width="531.0" xmlns="http://www.w3.org/2000/svg" xmlns:xlink="http://www.w3.org/1999/xlink">
<g transform="translate(.5 .5)">
<g>
<path d="M20 41v20m10 -20v20m-10 -10h20" /></g><path d="M40 51h10" /><g>
<path d="M50 51h0.0" /><path d="M481.0 51h0.0" /><g class="terminal ">
<rect data-text="field" fill="hsl(120, 100%, 90%)" height="22" stroke="black" stroke-width="3" width="62.5" x="50" y="40"></rect><text text-anchor="middle" x="81.25" y="55">field</text></g><path d="M112.5 51h10" /><g>
<path d="M122.5 51h0.0" /><path d="M353.0 51h0.0" /><path d="M122.5 51a10 10 0 0 0 10 -10v-11a10 10 0 0 1 10 -10" /><g>
<path d="M142.5 20h190.5" /></g><path d="M333.0 20a10 10 0 0 1 10 10v11a10 10 0 0 0 10 10" /><path d="M122.5 51h20" /><g>
<path d="M142.5 51h0.0" /><path d="M333.0 51h0.0" /><path d="M142.5 51h10" /><g>
<path d="M152.5 51h0.0" /><path d="M323.0 51h0.0" /><g class="terminal ">
<rect data-text="fieldsep" fill="hsl(120, 100%, 90%)" height="22" stroke="black" stroke-width="3" width="88" x="152.5" y="40"></rect><text text-anchor="middle" x="196.5" y="55">fieldsep</text></g><path d="M240.5 51h10" /><path d="M250.5 51h10" /><g class="terminal ">
<rect data-text="field" fill="hsl(120, 100%, 90%)" height="22" stroke="black" stroke-width="3" width="62.5" x="260.5" y="40"></rect><text text-anchor="middle" x="291.75" y="55">field</text></g></g><path d="M323.0 51h10" /><path d="M152.5 51a10 10 0 0 0 -10 10v11a10 10 0 0 0 10 10" /><g>
<path d="M152.5 82h170.5" /></g><path d="M323.0 82a10 10 0 0 0 10 -10v-11a10 10 0 0 0 -10 -10" /></g><path d="M333.0 51h20" /></g><g>
<path d="M353.0 51h0.0" /><path d="M481.0 51h0.0" /><path d="M353.0 51a10 10 0 0 0 10 -10v-11a10 10 0 0 1 10 -10" /><g>
<path d="M373.0 20h88.0" /></g><path d="M461.0 20a10 10 0 0 1 10 10v11a10 10 0 0 0 10 10" /><path d="M353.0 51h20" /><g>
<path d="M373.0 51h0.0" /><path d="M461.0 51h0.0" /><g class="terminal ">
<rect data-text="fieldsep" fill="hsl(120, 100%, 90%)" height="22" stroke="black" stroke-width="3" width="88" x="373" y="40"></rect><text text-anchor="middle" x="417" y="55">fieldsep</text></g></g><path d="M461.0 51h20" /></g></g><path d="M481.0 51h10" /><path d="M 491.0 51 h 20 m -10 -10 v 20 m 10 -20 v 20"></path></g><style>/* <![CDATA[ */
	svg.railroad-diagram {
		background-color:hsl(30,20%,95%);
	}
	svg.railroad-diagram path {
		stroke-width:3;
		stroke:black;
		fill:rgba(0,0,0,0);
	}
	svg.railroad-diagram text {
		font:bold 14px monospace;
		text-anchor:middle;
	}
	svg.railroad-diagram text.label{
		text-anchor:start;
	}
	svg.railroad-diagram text.comment{
		font:italic 12px monospace;
	}
	svg.railroad-diagram rect{
		stroke-width:3;
		stroke:black;
		fill:hsl(120,100%,90%);
	}
	svg.railroad-diagram rect.group-box {
		stroke: gray;
		stroke-dasharray: 10 5;
		fill: none;
	}

/* ]]> */
</style></svg>