<svg class="railroad-diagram" height="102" viewBox="0 0 469.0 102" width="469.0" xmlns="http://www.w3.org/2000/svg" xmlns:xlink="http://www.w3.org/1999/xlink">
<g transform="translate(.5 .5)">
<g>
<path d="M20 41v20m10 -20v20m-10 -10h20" /></g><path d="M40 51h10" /><g>
<path d="M50 51h0.0" /><path d="M419.0 51h0.0" /><g class="terminal ">
<rect data-text="Name" fill="hsl(120, 100%, 90%)" height="22" stroke="black" stroke-width="3" width="54" x="50" y="40"></rect><text text-anchor="middle" x="77" y="55">Name</text></g><path d="M104.0 51h10" /><g>
<path d="M114.0 51h0.0" /><path d="M276.5 51h0.0" /><path d="M114.0 51a10 10 0 0 0 10 -10v-11a10 10 0 0 1 10 -10" /><g>
<path d="M134.0 20h122.5" /></g><path d="M256.5 20a10 10 0 0 1 10 10v11a10 10 0 0 0 10 10" /><path d="M114.0 51h20" /><g>
<path d="M134.0 51h0.0" /><path d="M256.5 51h0.0" /><path d="M134.0 51h10" /><g>
<path d="M144.0 51h0.0" /><path d="M246.5 51h0.0" /><g class="terminal ">
<rect data-text="." fill="hsl(120, 100%, 90%)" height="22" stroke="black" stroke-width="3" width="28.5" x="144" y="40"></rect><text text-anchor="middle" x="158.25" y="55">.</text></g><path d="M172.5 51h10" /><path d="M182.5 51h10" /><g class="terminal ">
<rect data-text="Name" fill="hsl(120, 100%, 90%)" height="22" stroke="black" stroke-width="3" width="54" x="192.5" y="40"></rect><text text-anchor="middle" x="219.5" y="55">Name</text></g></g><path d="M246.5 51h10" /><path d="M144.0 51a10 10 0 0 0 -10 10v11a10 10 0 0 0 10 10" /><g>
<path d="M144.0 82h102.5" /></g><path d="M246.5 82a10 10 0 0 0 10 -10v-11a10 10 0 0 0 -10 -10" /></g><path d="M256.5 51h20" /></g><g>
<path d="M276.5 51h0.0" /><path d="M419.0 51h0.0" /><path d="M276.5 51a10 10 0 0 0 10 -10v-11a10 10 0 0 1 10 -10" /><g>
<path d="M296.5 20h102.5" /></g><path d="M399.0 20a10 10 0 0 1 10 10v11a10 10 0 0 0 10 10" /><path d="M276.5 51h20" /><g>
<path d="M296.5 51h0.0" /><path d="M399.0 51h0.0" /><g class="terminal ">
<rect data-text=":" fill="hsl(120, 100%, 90%)" height="22" stroke="black" stroke-width="3" width="28.5" x="296.5" y="40"></rect><text text-anchor="middle" x="310.75" y="55">:</text></g><path d="M325.0 51h10" /><path d="M335.0 51h10" /><g class="terminal ">
<rect data-text="Name" fill="hsl(120, 100%, 90%)" height="22" stroke="black" stroke-width="3" width="54" x="345" y="40"></rect><text text-anchor="middle" x="372" y="55">Name</text></g></g><path d="M399.0 51h20" /></g></g><path d="M419.0 51h10" /><path d="M 429.0 51 h 20 m -10 -10 v 20 m 10 -20 v 20"></path></g><style>/* <![CDATA[ */
	svg.railroad-diagram {
		background-color:hsl(30,20%,95%);
	}
	svg.railroad-diagram path {
		stroke-width:3;
		stroke:black;
		fill:rgba(0,0,0,0);
	}
	svg.railroad-diagram text {
		font:bold 14px monospace;
		text-anchor:middle;
	}
	svg.railroad-diagram text.label{
		text-anchor:start;
	}
	svg.railroad-diagram text.comment{
		font:italic 12px monospace;
	}
	svg.railroad-diagram rect{
		stroke-width:3;
		stroke:black;
		fill:hsl(120,100%,90%);
	}
	svg.railroad-diagram rect.group-box {
		stroke: gray;
		stroke-dasharray: 10 5;
		fill: none;
	}

/* ]]> */
</style></svg>