<svg class="railroad-diagram" height="104" viewBox="0 0 539.5 104" width="539.5" xmlns="http://www.w3.org/2000/svg" xmlns:xlink="http://www.w3.org/1999/xlink">
<g transform="translate(.5 .5)">
<g>
<path d="M20 63v20m10 -20v20m-10 -10h20" /></g><path d="M40 73h10" /><g>
<path d="M50 73h0.0" /><path d="M489.5 73h0.0" /><g class="terminal ">
<rect data-text="prefixexp" fill="hsl(120, 100%, 90%)" height="22" stroke="black" stroke-width="3" width="96.5" x="50" y="62"></rect><text text-anchor="middle" x="98.25" y="77">prefixexp</text></g><path d="M146.5 73h10" /><g>
<path d="M156.5 73h0.0" /><path d="M489.5 73h0.0" /><path d="M156.5 73a10 10 0 0 0 10 -10v-22a10 10 0 0 1 10 -10" /><g>
<path d="M176.5 31h119.5" /><path d="M350.0 31h119.5" /><g class="terminal ">
<rect data-text="args" fill="hsl(120, 100%, 90%)" height="22" stroke="black" stroke-width="3" width="54" x="296" y="20"></rect><text text-anchor="middle" x="323" y="35">args</text></g></g><path d="M469.5 31a10 10 0 0 1 10 10v22a10 10 0 0 0 10 10" /><path d="M156.5 73h20" /><g>
<path d="M176.5 73h0.0" /><path d="M469.5 73h0.0" /><g class="terminal ">
<rect data-text="prefixexp" fill="hsl(120, 100%, 90%)" height="22" stroke="black" stroke-width="3" width="96.5" x="176.5" y="62"></rect><text text-anchor="middle" x="224.75" y="77">prefixexp</text></g><path d="M273.0 73h10" /><path d="M283.0 73h10" /><g class="terminal ">
<rect data-text=":" fill="hsl(120, 100%, 90%)" height="22" stroke="black" stroke-width="3" width="28.5" x="293" y="62"></rect><text text-anchor="middle" x="307.25" y="77">:</text></g><path d="M321.5 73h10" /><path d="M331.5 73h10" /><g class="terminal ">
<rect data-text="Name" fill="hsl(120, 100%, 90%)" height="22" stroke="black" stroke-width="3" width="54" x="341.5" y="62"></rect><text text-anchor="middle" x="368.5" y="77">Name</text></g><path d="M395.5 73h10" /><path d="M405.5 73h10" /><g class="terminal ">
<rect data-text="args" fill="hsl(120, 100%, 90%)" height="22" stroke="black" stroke-width="3" width="54" x="415.5" y="62"></rect><text text-anchor="middle" x="442.5" y="77">args</text></g></g><path d="M469.5 73h20" /></g></g><path d="M489.5 73h10" /><path d="M 499.5 73 h 20 m -10 -10 v 20 m 10 -20 v 20"></path></g><style>/* <![CDATA[ */
	svg.railroad-diagram {
		background-color:hsl(30,20%,95%);
	}
	svg.railroad-diagram path {
		stroke-width:3;
		stroke:black;
		fill:rgba(0,0,0,0);
	}
	svg.railroad-diagram text {
		font:bold 14px monospace;
		text-anchor:middle;
	}
	svg.railroad-diagram text.label{
		text-anchor:start;
	}
	svg.railroad-diagram text.comment{
		font:italic 12px monospace;
	}
	svg.railroad-diagram rect{
		stroke-width:3;
		stroke:black;
		fill:hsl(120,100%,90%);
	}
	svg.railroad-diagram rect.group-box {
		stroke: gray;
		stroke-dasharray: 10 5;
		fill: none;
	}

/* ]]> */
</style></svg>