<svg class="railroad-diagram" height="124" viewBox="0 0 340.5 124" width="340.5" xmlns="http://www.w3.org/2000/svg" xmlns:xlink="http://www.w3.org/1999/xlink">
<g transform="translate(.5 .5)">
<g>
<path d="M20 83v20m10 -20v20m-10 -10h20" /></g><path d="M40 93h10" /><g>
<path d="M50 93h0.0" /><path d="M290.5 93h0.0" /><g class="terminal ">
<rect data-text="return" fill="hsl(120, 100%, 90%)" height="22" stroke="black" stroke-width="3" width="71" x="50" y="82"></rect><text text-anchor="middle" x="85.5" y="97">return</text></g><path d="M121.0 93h10" /><g>
<path d="M131.0 93h0.0" /><path d="M290.5 93h0.0" /><path d="M131.0 93a10 10 0 0 0 10 -10v-22a10 10 0 0 1 10 -10" /><g>
<path d="M151.0 51h0.0" /><path d="M270.5 51h0.0" /><g>
<path d="M151.0 51h0.0" /><path d="M270.5 51h0.0" /><path d="M151.0 51a10 10 0 0 0 10 -10v-11a10 10 0 0 1 10 -10" /><g>
<path d="M171.0 20h79.5" /></g><path d="M250.5 20a10 10 0 0 1 10 10v11a10 10 0 0 0 10 10" /><path d="M151.0 51h20" /><g class="terminal ">
<rect data-text="explist" fill="hsl(120, 100%, 90%)" height="22" stroke="black" stroke-width="3" width="79.5" x="171" y="40"></rect><text text-anchor="middle" x="210.75" y="55">explist</text></g><path d="M250.5 51h20" /></g></g><path d="M270.5 51a10 10 0 0 1 10 10v22a10 10 0 0 0 10 10" /><path d="M131.0 93h20" /><g>
<path d="M151.0 93h28.5" /><path d="M242.0 93h28.5" /><g class="terminal ">
<rect data-text="break" fill="hsl(120, 100%, 90%)" height="22" stroke="black" stroke-width="3" width="62.5" x="179.5" y="82"></rect><text text-anchor="middle" x="210.75" y="97">break</text></g></g><path d="M270.5 93h20" /></g></g><path d="M290.5 93h10" /><path d="M 300.5 93 h 20 m -10 -10 v 20 m 10 -20 v 20"></path></g><style>/* <![CDATA[ */
	svg.railroad-diagram {
		background-color:hsl(30,20%,95%);
	}
	svg.railroad-diagram path {
		stroke-width:3;
		stroke:black;
		fill:rgba(0,0,0,0);
	}
	svg.railroad-diagram text {
		font:bold 14px monospace;
		text-anchor:middle;
	}
	svg.railroad-diagram text.label{
		text-anchor:start;
	}
	svg.railroad-diagram text.comment{
		font:italic 12px monospace;
	}
	svg.railroad-diagram rect{
		stroke-width:3;
		stroke:black;
		fill:hsl(120,100%,90%);
	}
	svg.railroad-diagram rect.group-box {
		stroke: gray;
		stroke-dasharray: 10 5;
		fill: none;
	}

/* ]]> */
</style></svg>