<svg class="railroad-diagram" height="146" viewBox="0 0 282.5 146" width="282.5" xmlns="http://www.w3.org/2000/svg" xmlns:xlink="http://www.w3.org/1999/xlink">
<g transform="translate(.5 .5)">
<g>
<path d="M20 63v20m10 -20v20m-10 -10h20" /></g><path d="M40 73h10" /><g>
<path d="M50 73h0.0" /><path d="M232.5 73h0.0" /><g>
<path d="M50.0 73h0.0" /><path d="M232.5 73h0.0" /><path d="M50.0 73a10 10 0 0 0 10 -10v-22a10 10 0 0 1 10 -10" /><g>
<path d="M70.0 31h48.5" /><path d="M164.0 31h48.5" /><g class="terminal ">
<rect data-text="var" fill="hsl(120, 100%, 90%)" height="22" stroke="black" stroke-width="3" width="45.5" x="118.5" y="20"></rect><text text-anchor="middle" x="141.25" y="35">var</text></g></g><path d="M212.5 31a10 10 0 0 1 10 10v22a10 10 0 0 0 10 10" /><path d="M50.0 73h20" /><g>
<path d="M70.0 73h10.25" /><path d="M202.25 73h10.25" /><g class="terminal ">
<rect data-text="functioncall" fill="hsl(120, 100%, 90%)" height="22" stroke="black" stroke-width="3" width="122" x="80.25" y="62"></rect><text text-anchor="middle" x="141.25" y="77">functioncall</text></g></g><path d="M212.5 73h20" /><path d="M50.0 73a10 10 0 0 1 10 10v22a10 10 0 0 0 10 10" /><g>
<path d="M70.0 115h0.0" /><path d="M212.5 115h0.0" /><g class="terminal ">
<rect data-text="(" fill="hsl(120, 100%, 90%)" height="22" stroke="black" stroke-width="3" width="28.5" x="70" y="104"></rect><text text-anchor="middle" x="84.25" y="119">(</text></g><path d="M98.5 115h10" /><path d="M108.5 115h10" /><g class="terminal ">
<rect data-text="exp" fill="hsl(120, 100%, 90%)" height="22" stroke="black" stroke-width="3" width="45.5" x="118.5" y="104"></rect><text text-anchor="middle" x="141.25" y="119">exp</text></g><path d="M164.0 115h10" /><path d="M174.0 115h10" /><g class="terminal ">
<rect data-text=")" fill="hsl(120, 100%, 90%)" height="22" stroke="black" stroke-width="3" width="28.5" x="184" y="104"></rect><text text-anchor="middle" x="198.25" y="119">)</text></g></g><path d="M212.5 115a10 10 0 0 0 10 -10v-22a10 10 0 0 1 10 -10" /></g></g><path d="M232.5 73h10" /><path d="M 242.5 73 h 20 m -10 -10 v 20 m 10 -20 v 20"></path></g><style>/* <![CDATA[ */
	svg.railroad-diagram {
		background-color:hsl(30,20%,95%);
	}
	svg.railroad-diagram path {
		stroke-width:3;
		stroke:black;
		fill:rgba(0,0,0,0);
	}
	svg.railroad-diagram text {
		font:bold 14px monospace;
		text-anchor:middle;
	}
	svg.railroad-diagram text.label{
		text-anchor:start;
	}
	svg.railroad-diagram text.comment{
		font:italic 12px monospace;
	}
	svg.railroad-diagram rect{
		stroke-width:3;
		stroke:black;
		fill:hsl(120,100%,90%);
	}
	svg.railroad-diagram rect.group-box {
		stroke: gray;
		stroke-dasharray: 10 5;
		fill: none;
	}

/* ]]> */
</style></svg>