<svg class="railroad-diagram" height="102" viewBox="0 0 685.0 102" width="685.0" xmlns="http://www.w3.org/2000/svg" xmlns:xlink="http://www.w3.org/1999/xlink">
<g transform="translate(.5 .5)">
<g>
<path d="M20 41v20m10 -20v20m-10 -10h20" /></g><path d="M40 51h10" /><g>
<path d="M50 51h0.0" /><path d="M635.0 51h0.0" /><g class="terminal ">
<rect data-text="" fill="hsl(120, 100%, 90%)" height="22" stroke="black" stroke-width="3" width="20" x="50" y="40"></rect><text text-anchor="middle" x="60" y="55"></text></g><path d="M70.0 51h10" /><path d="M80.0 51h10" /><g class="terminal ">
<rect data-text=" [^" fill="hsl(120, 100%, 90%)" height="22" stroke="black" stroke-width="3" width="45.5" x="90" y="40"></rect><text text-anchor="middle" x="112.75" y="55"> [^</text></g><path d="M135.5 51h10" /><g>
<path d="M145.5 51h0.0" /><path d="M234.0 51h0.0" /><path d="M145.5 51a10 10 0 0 0 10 -10v-11a10 10 0 0 1 10 -10" /><g>
<path d="M165.5 20h48.5" /></g><path d="M214.0 20a10 10 0 0 1 10 10v11a10 10 0 0 0 10 10" /><path d="M145.5 51h20" /><g>
<path d="M165.5 51h0.0" /><path d="M214.0 51h0.0" /><path d="M165.5 51h10" /><g class="terminal ">
<rect data-text="]" fill="hsl(120, 100%, 90%)" height="22" stroke="black" stroke-width="3" width="28.5" x="175.5" y="40"></rect><text text-anchor="middle" x="189.75" y="55">]</text></g><path d="M204.0 51h10" /><path d="M175.5 51a10 10 0 0 0 -10 10v11a10 10 0 0 0 10 10" /><g>
<path d="M175.5 82h28.5" /></g><path d="M204.0 82a10 10 0 0 0 10 -10v-11a10 10 0 0 0 -10 -10" /></g><path d="M214.0 51h20" /></g><path d="M234.0 51h10" /><g class="terminal ">
<rect data-text="" fill="hsl(120, 100%, 90%)" height="22" stroke="black" stroke-width="3" width="20" x="244" y="40"></rect><text text-anchor="middle" x="254" y="55"></text></g><path d="M264.0 51h10" /><path d="M274.0 51h10" /><g class="terminal ">
<rect data-text=" | " fill="hsl(120, 100%, 90%)" height="22" stroke="black" stroke-width="3" width="45.5" x="284" y="40"></rect><text text-anchor="middle" x="306.75" y="55"> | </text></g><path d="M329.5 51h10" /><path d="M339.5 51h10" /><g class="terminal ">
<rect data-text="" fill="hsl(120, 100%, 90%)" height="22" stroke="black" stroke-width="3" width="20" x="349.5" y="40"></rect><text text-anchor="middle" x="359.5" y="55"></text></g><path d="M369.5 51h10" /><path d="M379.5 51h10" /><g class="terminal ">
<rect data-text="[^" fill="hsl(120, 100%, 90%)" height="22" stroke="black" stroke-width="3" width="37" x="389.5" y="40"></rect><text text-anchor="middle" x="408" y="55">[^</text></g><path d="M426.5 51h10" /><path d="M436.5 51h10" /><g class="terminal ">
<rect data-text="" fill="hsl(120, 100%, 90%)" height="22" stroke="black" stroke-width="3" width="20" x="446.5" y="40"></rect><text text-anchor="middle" x="456.5" y="55"></text></g><path d="M466.5 51h10" /><g>
<path d="M476.5 51h0.0" /><path d="M565.0 51h0.0" /><path d="M476.5 51a10 10 0 0 0 10 -10v-11a10 10 0 0 1 10 -10" /><g>
<path d="M496.5 20h48.5" /></g><path d="M545.0 20a10 10 0 0 1 10 10v11a10 10 0 0 0 10 10" /><path d="M476.5 51h20" /><g>
<path d="M496.5 51h0.0" /><path d="M545.0 51h0.0" /><path d="M496.5 51h10" /><g class="terminal ">
<rect data-text="]" fill="hsl(120, 100%, 90%)" height="22" stroke="black" stroke-width="3" width="28.5" x="506.5" y="40"></rect><text text-anchor="middle" x="520.75" y="55">]</text></g><path d="M535.0 51h10" /><path d="M506.5 51a10 10 0 0 0 -10 10v11a10 10 0 0 0 10 10" /><g>
<path d="M506.5 82h28.5" /></g><path d="M535.0 82a10 10 0 0 0 10 -10v-11a10 10 0 0 0 -10 -10" /></g><path d="M545.0 51h20" /></g><path d="M565.0 51h10" /><g class="terminal ">
<rect data-text="" fill="hsl(120, 100%, 90%)" height="22" stroke="black" stroke-width="3" width="20" x="575" y="40"></rect><text text-anchor="middle" x="585" y="55"></text></g><path d="M595.0 51h10" /><path d="M605.0 51h10" /><g class="terminal ">
<rect data-text="" fill="hsl(120, 100%, 90%)" height="22" stroke="black" stroke-width="3" width="20" x="615" y="40"></rect><text text-anchor="middle" x="625" y="55"></text></g></g><path d="M635.0 51h10" /><path d="M 645.0 51 h 20 m -10 -10 v 20 m 10 -20 v 20"></path></g><style>/* <![CDATA[ */
	svg.railroad-diagram {
		background-color:hsl(30,20%,95%);
	}
	svg.railroad-diagram path {
		stroke-width:3;
		stroke:black;
		fill:rgba(0,0,0,0);
	}
	svg.railroad-diagram text {
		font:bold 14px monospace;
		text-anchor:middle;
	}
	svg.railroad-diagram text.label{
		text-anchor:start;
	}
	svg.railroad-diagram text.comment{
		font:italic 12px monospace;
	}
	svg.railroad-diagram rect{
		stroke-width:3;
		stroke:black;
		fill:hsl(120,100%,90%);
	}
	svg.railroad-diagram rect.group-box {
		stroke: gray;
		stroke-dasharray: 10 5;
		fill: none;
	}

/* ]]> */
</style></svg>