<svg class="railroad-diagram" height="102" viewBox="0 0 309.5 102" width="309.5" xmlns="http://www.w3.org/2000/svg" xmlns:xlink="http://www.w3.org/1999/xlink">
<g transform="translate(.5 .5)">
<g>
<path d="M20 41v20m10 -20v20m-10 -10h20" /></g><path d="M40 51h10" /><g>
<path d="M50 51h0.0" /><path d="M259.5 51h0.0" /><g class="terminal ">
<rect data-text="var" fill="hsl(120, 100%, 90%)" height="22" stroke="black" stroke-width="3" width="45.5" x="50" y="40"></rect><text text-anchor="middle" x="72.75" y="55">var</text></g><path d="M95.5 51h10" /><g>
<path d="M105.5 51h0.0" /><path d="M259.5 51h0.0" /><path d="M105.5 51a10 10 0 0 0 10 -10v-11a10 10 0 0 1 10 -10" /><g>
<path d="M125.5 20h114.0" /></g><path d="M239.5 20a10 10 0 0 1 10 10v11a10 10 0 0 0 10 10" /><path d="M105.5 51h20" /><g>
<path d="M125.5 51h0.0" /><path d="M239.5 51h0.0" /><path d="M125.5 51h10" /><g>
<path d="M135.5 51h0.0" /><path d="M229.5 51h0.0" /><g class="terminal ">
<rect data-text="," fill="hsl(120, 100%, 90%)" height="22" stroke="black" stroke-width="3" width="28.5" x="135.5" y="40"></rect><text text-anchor="middle" x="149.75" y="55">,</text></g><path d="M164.0 51h10" /><path d="M174.0 51h10" /><g class="terminal ">
<rect data-text="var" fill="hsl(120, 100%, 90%)" height="22" stroke="black" stroke-width="3" width="45.5" x="184" y="40"></rect><text text-anchor="middle" x="206.75" y="55">var</text></g></g><path d="M229.5 51h10" /><path d="M135.5 51a10 10 0 0 0 -10 10v11a10 10 0 0 0 10 10" /><g>
<path d="M135.5 82h94.0" /></g><path d="M229.5 82a10 10 0 0 0 10 -10v-11a10 10 0 0 0 -10 -10" /></g><path d="M239.5 51h20" /></g></g><path d="M259.5 51h10" /><path d="M 269.5 51 h 20 m -10 -10 v 20 m 10 -20 v 20"></path></g><style>/* <![CDATA[ */
	svg.railroad-diagram {
		background-color:hsl(30,20%,95%);
	}
	svg.railroad-diagram path {
		stroke-width:3;
		stroke:black;
		fill:rgba(0,0,0,0);
	}
	svg.railroad-diagram text {
		font:bold 14px monospace;
		text-anchor:middle;
	}
	svg.railroad-diagram text.label{
		text-anchor:start;
	}
	svg.railroad-diagram text.comment{
		font:italic 12px monospace;
	}
	svg.railroad-diagram rect{
		stroke-width:3;
		stroke:black;
		fill:hsl(120,100%,90%);
	}
	svg.railroad-diagram rect.group-box {
		stroke: gray;
		stroke-dasharray: 10 5;
		fill: none;
	}

/* ]]> */
</style></svg>