<svg class="railroad-diagram" height="104" viewBox="0 0 434.0 104" width="434.0" xmlns="http://www.w3.org/2000/svg" xmlns:xlink="http://www.w3.org/1999/xlink">
<g transform="translate(.5 .5)">
<g>
<path d="M20 63v20m10 -20v20m-10 -10h20" /></g><path d="M40 73h10" /><g>
<path d="M50 73h0.0" /><path d="M384.0 73h0.0" /><g>
<path d="M50.0 73h0.0" /><path d="M186.5 73h0.0" /><g>
<path d="M50.0 73h0.0" /><path d="M186.5 73h0.0" /><path d="M50.0 73a10 10 0 0 0 10 -10v-22a10 10 0 0 1 10 -10" /><g>
<path d="M70.0 31h8.5" /><path d="M158.0 31h8.5" /><g class="terminal ">
<rect data-text="private" fill="hsl(120, 100%, 90%)" height="22" stroke="black" stroke-width="3" width="79.5" x="78.5" y="20"></rect><text text-anchor="middle" x="118.25" y="35">private</text></g></g><path d="M166.5 31a10 10 0 0 1 10 10v22a10 10 0 0 0 10 10" /><path d="M50.0 73h20" /><g>
<path d="M70.0 73h0.0" /><path d="M166.5 73h0.0" /><g class="terminal ">
<rect data-text="protected" fill="hsl(120, 100%, 90%)" height="22" stroke="black" stroke-width="3" width="96.5" x="70" y="62"></rect><text text-anchor="middle" x="118.25" y="77">protected</text></g></g><path d="M166.5 73h20" /></g></g><path d="M186.5 73h10" /><g>
<path d="M196.5 73h0.0" /><path d="M384.0 73h0.0" /><path d="M196.5 73a10 10 0 0 0 10 -10v-11a10 10 0 0 1 10 -10" /><g>
<path d="M216.5 42h147.5" /></g><path d="M364.0 42a10 10 0 0 1 10 10v11a10 10 0 0 0 10 10" /><path d="M196.5 73h20" /><g class="terminal ">
<rect data-text="AccessQualifier" fill="hsl(120, 100%, 90%)" height="22" stroke="black" stroke-width="3" width="147.5" x="216.5" y="62"></rect><text text-anchor="middle" x="290.25" y="77">AccessQualifier</text></g><path d="M364.0 73h20" /></g></g><path d="M384.0 73h10" /><path d="M 394.0 73 h 20 m -10 -10 v 20 m 10 -20 v 20"></path></g><style>/* <![CDATA[ */
	svg.railroad-diagram {
		background-color:hsl(30,20%,95%);
	}
	svg.railroad-diagram path {
		stroke-width:3;
		stroke:black;
		fill:rgba(0,0,0,0);
	}
	svg.railroad-diagram text {
		font:bold 14px monospace;
		text-anchor:middle;
	}
	svg.railroad-diagram text.label{
		text-anchor:start;
	}
	svg.railroad-diagram text.comment{
		font:italic 12px monospace;
	}
	svg.railroad-diagram rect{
		stroke-width:3;
		stroke:black;
		fill:hsl(120,100%,90%);
	}
	svg.railroad-diagram rect.group-box {
		stroke: gray;
		stroke-dasharray: 10 5;
		fill: none;
	}

/* ]]> */
</style></svg>