<svg class="railroad-diagram" height="104" viewBox="0 0 291.0 104" width="291.0" xmlns="http://www.w3.org/2000/svg" xmlns:xlink="http://www.w3.org/1999/xlink">
<g transform="translate(.5 .5)">
<g>
<path d="M20 63v20m10 -20v20m-10 -10h20" /></g><path d="M40 73h10" /><g>
<path d="M50 73h0.0" /><path d="M241.0 73h0.0" /><g class="terminal ">
<rect data-text="[" fill="hsl(120, 100%, 90%)" height="22" stroke="black" stroke-width="3" width="28.5" x="50" y="62"></rect><text text-anchor="middle" x="64.25" y="77">[</text></g><path d="M78.5 73h10" /><path d="M88.5 73h10" /><g>
<path d="M98.5 73h0.0" /><path d="M192.5 73h0.0" /><g>
<path d="M98.5 73h0.0" /><path d="M192.5 73h0.0" /><path d="M98.5 73a10 10 0 0 0 10 -10v-22a10 10 0 0 1 10 -10" /><g>
<path d="M118.5 31h8.5" /><path d="M164.0 31h8.5" /><g class="terminal ">
<rect data-text="id" fill="hsl(120, 100%, 90%)" height="22" stroke="black" stroke-width="3" width="37" x="127" y="20"></rect><text text-anchor="middle" x="145.5" y="35">id</text></g></g><path d="M172.5 31a10 10 0 0 1 10 10v22a10 10 0 0 0 10 10" /><path d="M98.5 73h20" /><g>
<path d="M118.5 73h0.0" /><path d="M172.5 73h0.0" /><g class="terminal ">
<rect data-text="this" fill="hsl(120, 100%, 90%)" height="22" stroke="black" stroke-width="3" width="54" x="118.5" y="62"></rect><text text-anchor="middle" x="145.5" y="77">this</text></g></g><path d="M172.5 73h20" /></g></g><path d="M192.5 73h10" /><path d="M202.5 73h10" /><g class="terminal ">
<rect data-text="]" fill="hsl(120, 100%, 90%)" height="22" stroke="black" stroke-width="3" width="28.5" x="212.5" y="62"></rect><text text-anchor="middle" x="226.75" y="77">]</text></g></g><path d="M241.0 73h10" /><path d="M 251.0 73 h 20 m -10 -10 v 20 m 10 -20 v 20"></path></g><style>/* <![CDATA[ */
	svg.railroad-diagram {
		background-color:hsl(30,20%,95%);
	}
	svg.railroad-diagram path {
		stroke-width:3;
		stroke:black;
		fill:rgba(0,0,0,0);
	}
	svg.railroad-diagram text {
		font:bold 14px monospace;
		text-anchor:middle;
	}
	svg.railroad-diagram text.label{
		text-anchor:start;
	}
	svg.railroad-diagram text.comment{
		font:italic 12px monospace;
	}
	svg.railroad-diagram rect{
		stroke-width:3;
		stroke:black;
		fill:hsl(120,100%,90%);
	}
	svg.railroad-diagram rect.group-box {
		stroke: gray;
		stroke-dasharray: 10 5;
		fill: none;
	}

/* ]]> */
</style></svg>