<svg class="railroad-diagram" height="104" viewBox="0 0 329.5 104" width="329.5" xmlns="http://www.w3.org/2000/svg" xmlns:xlink="http://www.w3.org/1999/xlink">
<g transform="translate(.5 .5)">
<g>
<path d="M20 63v20m10 -20v20m-10 -10h20" /></g><path d="M40 73h10" /><g>
<path d="M50 73h0.0" /><path d="M279.5 73h0.0" /><g>
<path d="M50.0 73h0.0" /><path d="M127.0 73h0.0" /><g>
<path d="M50.0 73h0.0" /><path d="M127.0 73h0.0" /><path d="M50.0 73a10 10 0 0 0 10 -10v-22a10 10 0 0 1 10 -10" /><g>
<path d="M70.0 31h0.0" /><path d="M107.0 31h0.0" /><g class="terminal ">
<rect data-text="id" fill="hsl(120, 100%, 90%)" height="22" stroke="black" stroke-width="3" width="37" x="70" y="20"></rect><text text-anchor="middle" x="88.5" y="35">id</text></g></g><path d="M107.0 31a10 10 0 0 1 10 10v22a10 10 0 0 0 10 10" /><path d="M50.0 73h20" /><g>
<path d="M70.0 73h4.25" /><path d="M102.75 73h4.25" /><g class="terminal ">
<rect data-text="_" fill="hsl(120, 100%, 90%)" height="22" stroke="black" stroke-width="3" width="28.5" x="74.25" y="62"></rect><text text-anchor="middle" x="88.5" y="77">_</text></g></g><path d="M107.0 73h20" /></g></g><path d="M127.0 73h10" /><g>
<path d="M137.0 73h0.0" /><path d="M279.5 73h0.0" /><path d="M137.0 73a10 10 0 0 0 10 -10v-11a10 10 0 0 1 10 -10" /><g>
<path d="M157.0 42h102.5" /></g><path d="M259.5 42a10 10 0 0 1 10 10v11a10 10 0 0 0 10 10" /><path d="M137.0 73h20" /><g>
<path d="M157.0 73h0.0" /><path d="M259.5 73h0.0" /><g class="terminal ">
<rect data-text=":" fill="hsl(120, 100%, 90%)" height="22" stroke="black" stroke-width="3" width="28.5" x="157" y="62"></rect><text text-anchor="middle" x="171.25" y="77">:</text></g><path d="M185.5 73h10" /><path d="M195.5 73h10" /><g class="terminal ">
<rect data-text="Type" fill="hsl(120, 100%, 90%)" height="22" stroke="black" stroke-width="3" width="54" x="205.5" y="62"></rect><text text-anchor="middle" x="232.5" y="77">Type</text></g></g><path d="M259.5 73h20" /></g></g><path d="M279.5 73h10" /><path d="M 289.5 73 h 20 m -10 -10 v 20 m 10 -20 v 20"></path></g><style>/* <![CDATA[ */
	svg.railroad-diagram {
		background-color:hsl(30,20%,95%);
	}
	svg.railroad-diagram path {
		stroke-width:3;
		stroke:black;
		fill:rgba(0,0,0,0);
	}
	svg.railroad-diagram text {
		font:bold 14px monospace;
		text-anchor:middle;
	}
	svg.railroad-diagram text.label{
		text-anchor:start;
	}
	svg.railroad-diagram text.comment{
		font:italic 12px monospace;
	}
	svg.railroad-diagram rect{
		stroke-width:3;
		stroke:black;
		fill:hsl(120,100%,90%);
	}
	svg.railroad-diagram rect.group-box {
		stroke: gray;
		stroke-dasharray: 10 5;
		fill: none;
	}

/* ]]> */
</style></svg>