<svg class="railroad-diagram" height="144" viewBox="0 0 568.5 144" width="568.5" xmlns="http://www.w3.org/2000/svg" xmlns:xlink="http://www.w3.org/1999/xlink">
<g transform="translate(.5 .5)">
<g>
<path d="M20 83v20m10 -20v20m-10 -10h20" /></g><path d="M40 93h10" /><g>
<path d="M50 93h0.0" /><path d="M518.5 93h0.0" /><g class="terminal ">
<rect data-text="{" fill="hsl(120, 100%, 90%)" height="22" stroke="black" stroke-width="3" width="28.5" x="50" y="82"></rect><text text-anchor="middle" x="64.25" y="97">{</text></g><path d="M78.5 93h10" /><path d="M88.5 93h10" /><g class="terminal ">
<rect data-text="CaseClauses" fill="hsl(120, 100%, 90%)" height="22" stroke="black" stroke-width="3" width="113.5" x="98.5" y="82"></rect><text text-anchor="middle" x="155.25" y="97">CaseClauses</text></g><path d="M212.0 93h10" /><g>
<path d="M222.0 93h0.0" /><path d="M518.5 93h0.0" /><path d="M222.0 93a10 10 0 0 0 10 -10v-42a10 10 0 0 1 10 -10" /><g>
<path d="M242.0 31h114.0" /><path d="M384.5 31h114.0" /><g class="terminal ">
<rect data-text="}" fill="hsl(120, 100%, 90%)" height="22" stroke="black" stroke-width="3" width="28.5" x="356" y="20"></rect><text text-anchor="middle" x="370.25" y="35">}</text></g></g><path d="M498.5 31a10 10 0 0 1 10 10v42a10 10 0 0 0 10 10" /><path d="M222.0 93h20" /><g>
<path d="M242.0 93h0.0" /><path d="M498.5 93h0.0" /><g class="terminal ">
<rect data-text="{" fill="hsl(120, 100%, 90%)" height="22" stroke="black" stroke-width="3" width="28.5" x="242" y="82"></rect><text text-anchor="middle" x="256.25" y="97">{</text></g><path d="M270.5 93h10" /><g>
<path d="M280.5 93h0.0" /><path d="M377.5 93h0.0" /><path d="M280.5 93a10 10 0 0 0 10 -10v-11a10 10 0 0 1 10 -10" /><g>
<path d="M300.5 62h57.0" /></g><path d="M357.5 62a10 10 0 0 1 10 10v11a10 10 0 0 0 10 10" /><path d="M280.5 93h20" /><g>
<path d="M300.5 93h0.0" /><path d="M357.5 93h0.0" /><path d="M300.5 93h10" /><g class="terminal ">
<rect data-text="nl" fill="hsl(120, 100%, 90%)" height="22" stroke="black" stroke-width="3" width="37" x="310.5" y="82"></rect><text text-anchor="middle" x="329" y="97">nl</text></g><path d="M347.5 93h10" /><path d="M310.5 93a10 10 0 0 0 -10 10v11a10 10 0 0 0 10 10" /><g>
<path d="M310.5 124h37.0" /></g><path d="M347.5 124a10 10 0 0 0 10 -10v-11a10 10 0 0 0 -10 -10" /></g><path d="M357.5 93h20" /></g><path d="M377.5 93h10" /><g class="terminal ">
<rect data-text="Block" fill="hsl(120, 100%, 90%)" height="22" stroke="black" stroke-width="3" width="62.5" x="387.5" y="82"></rect><text text-anchor="middle" x="418.75" y="97">Block</text></g><path d="M450.0 93h10" /><path d="M460.0 93h10" /><g class="terminal ">
<rect data-text="}" fill="hsl(120, 100%, 90%)" height="22" stroke="black" stroke-width="3" width="28.5" x="470" y="82"></rect><text text-anchor="middle" x="484.25" y="97">}</text></g></g><path d="M498.5 93h20" /></g></g><path d="M518.5 93h10" /><path d="M 528.5 93 h 20 m -10 -10 v 20 m 10 -20 v 20"></path></g><style>/* <![CDATA[ */
	svg.railroad-diagram {
		background-color:hsl(30,20%,95%);
	}
	svg.railroad-diagram path {
		stroke-width:3;
		stroke:black;
		fill:rgba(0,0,0,0);
	}
	svg.railroad-diagram text {
		font:bold 14px monospace;
		text-anchor:middle;
	}
	svg.railroad-diagram text.label{
		text-anchor:start;
	}
	svg.railroad-diagram text.comment{
		font:italic 12px monospace;
	}
	svg.railroad-diagram rect{
		stroke-width:3;
		stroke:black;
		fill:hsl(120,100%,90%);
	}
	svg.railroad-diagram rect.group-box {
		stroke: gray;
		stroke-dasharray: 10 5;
		fill: none;
	}

/* ]]> */
</style></svg>