<svg class="railroad-diagram" height="122" viewBox="0 0 484.0 122" width="484.0" xmlns="http://www.w3.org/2000/svg" xmlns:xlink="http://www.w3.org/1999/xlink">
<g transform="translate(.5 .5)">
<g>
<path d="M20 61v20m10 -20v20m-10 -10h20" /></g><path d="M40 71h10" /><g>
<path d="M50 71h0.0" /><path d="M434.0 71h0.0" /><g class="terminal ">
<rect data-text="CaseClause" fill="hsl(120, 100%, 90%)" height="22" stroke="black" stroke-width="3" width="105" x="50" y="60"></rect><text text-anchor="middle" x="102.5" y="75">CaseClause</text></g><path d="M155.0 71h10" /><g>
<path d="M165.0 71h0.0" /><path d="M434.0 71h0.0" /><path d="M165.0 71a10 10 0 0 0 10 -10v-31a10 10 0 0 1 10 -10" /><g>
<path d="M185.0 20h229.0" /></g><path d="M414.0 20a10 10 0 0 1 10 10v31a10 10 0 0 0 10 10" /><path d="M165.0 71h20" /><g>
<path d="M185.0 71h0.0" /><path d="M414.0 71h0.0" /><path d="M185.0 71h10" /><g>
<path d="M195.0 71h0.0" /><path d="M404.0 71h0.0" /><g>
<path d="M195.0 71h0.0" /><path d="M289.0 71h0.0" /><path d="M195.0 71a10 10 0 0 0 10 -10v-11a10 10 0 0 1 10 -10" /><g>
<path d="M215.0 40h54.0" /></g><path d="M269.0 40a10 10 0 0 1 10 10v11a10 10 0 0 0 10 10" /><path d="M195.0 71h20" /><g class="terminal ">
<rect data-text="semi" fill="hsl(120, 100%, 90%)" height="22" stroke="black" stroke-width="3" width="54" x="215" y="60"></rect><text text-anchor="middle" x="242" y="75">semi</text></g><path d="M269.0 71h20" /></g><path d="M289.0 71h10" /><g class="terminal ">
<rect data-text="CaseClause" fill="hsl(120, 100%, 90%)" height="22" stroke="black" stroke-width="3" width="105" x="299" y="60"></rect><text text-anchor="middle" x="351.5" y="75">CaseClause</text></g></g><path d="M404.0 71h10" /><path d="M195.0 71a10 10 0 0 0 -10 10v11a10 10 0 0 0 10 10" /><g>
<path d="M195.0 102h209.0" /></g><path d="M404.0 102a10 10 0 0 0 10 -10v-11a10 10 0 0 0 -10 -10" /></g><path d="M414.0 71h20" /></g></g><path d="M434.0 71h10" /><path d="M 444.0 71 h 20 m -10 -10 v 20 m 10 -20 v 20"></path></g><style>/* <![CDATA[ */
	svg.railroad-diagram {
		background-color:hsl(30,20%,95%);
	}
	svg.railroad-diagram path {
		stroke-width:3;
		stroke:black;
		fill:rgba(0,0,0,0);
	}
	svg.railroad-diagram text {
		font:bold 14px monospace;
		text-anchor:middle;
	}
	svg.railroad-diagram text.label{
		text-anchor:start;
	}
	svg.railroad-diagram text.comment{
		font:italic 12px monospace;
	}
	svg.railroad-diagram rect{
		stroke-width:3;
		stroke:black;
		fill:hsl(120,100%,90%);
	}
	svg.railroad-diagram rect.group-box {
		stroke: gray;
		stroke-dasharray: 10 5;
		fill: none;
	}

/* ]]> */
</style></svg>