<svg class="railroad-diagram" height="62" viewBox="0 0 526.5 62" width="526.5" xmlns="http://www.w3.org/2000/svg" xmlns:xlink="http://www.w3.org/1999/xlink">
<g transform="translate(.5 .5)">
<g>
<path d="M20 21v20m10 -20v20m-10 -10h20" /></g><path d="M40 31h10" /><g>
<path d="M50 31h0.0" /><path d="M476.5 31h0.0" /><g class="terminal ">
<rect data-text="PostfixExpr" fill="hsl(120, 100%, 90%)" height="22" stroke="black" stroke-width="3" width="113.5" x="50" y="20"></rect><text text-anchor="middle" x="106.75" y="35">PostfixExpr</text></g><path d="M163.5 31h10" /><path d="M173.5 31h10" /><g class="terminal ">
<rect data-text="match" fill="hsl(120, 100%, 90%)" height="22" stroke="black" stroke-width="3" width="62.5" x="183.5" y="20"></rect><text text-anchor="middle" x="214.75" y="35">match</text></g><path d="M246.0 31h10" /><path d="M256.0 31h10" /><g class="terminal ">
<rect data-text="{" fill="hsl(120, 100%, 90%)" height="22" stroke="black" stroke-width="3" width="28.5" x="266" y="20"></rect><text text-anchor="middle" x="280.25" y="35">{</text></g><path d="M294.5 31h10" /><path d="M304.5 31h10" /><g class="terminal ">
<rect data-text="CaseClauses" fill="hsl(120, 100%, 90%)" height="22" stroke="black" stroke-width="3" width="113.5" x="314.5" y="20"></rect><text text-anchor="middle" x="371.25" y="35">CaseClauses</text></g><path d="M428.0 31h10" /><path d="M438.0 31h10" /><g class="terminal ">
<rect data-text="}" fill="hsl(120, 100%, 90%)" height="22" stroke="black" stroke-width="3" width="28.5" x="448" y="20"></rect><text text-anchor="middle" x="462.25" y="35">}</text></g></g><path d="M476.5 31h10" /><path d="M 486.5 31 h 20 m -10 -10 v 20 m 10 -20 v 20"></path></g><style>/* <![CDATA[ */
	svg.railroad-diagram {
		background-color:hsl(30,20%,95%);
	}
	svg.railroad-diagram path {
		stroke-width:3;
		stroke:black;
		fill:rgba(0,0,0,0);
	}
	svg.railroad-diagram text {
		font:bold 14px monospace;
		text-anchor:middle;
	}
	svg.railroad-diagram text.label{
		text-anchor:start;
	}
	svg.railroad-diagram text.comment{
		font:italic 12px monospace;
	}
	svg.railroad-diagram rect{
		stroke-width:3;
		stroke:black;
		fill:hsl(120,100%,90%);
	}
	svg.railroad-diagram rect.group-box {
		stroke: gray;
		stroke-dasharray: 10 5;
		fill: none;
	}

/* ]]> */
</style></svg>