<svg class="railroad-diagram" height="102" viewBox="0 0 1001.0 102" width="1001.0" xmlns="http://www.w3.org/2000/svg" xmlns:xlink="http://www.w3.org/1999/xlink">
<g transform="translate(.5 .5)">
<g>
<path d="M20 41v20m10 -20v20m-10 -10h20" /></g><path d="M40 51h10" /><g>
<path d="M50 51h0.0" /><path d="M951.0 51h0.0" /><g class="terminal ">
<rect data-text="id" fill="hsl(120, 100%, 90%)" height="22" stroke="black" stroke-width="3" width="37" x="50" y="40"></rect><text text-anchor="middle" x="68.5" y="55">id</text></g><path d="M87.0 51h10" /><g>
<path d="M97.0 51h0.0" /><path d="M284.5 51h0.0" /><path d="M97.0 51a10 10 0 0 0 10 -10v-11a10 10 0 0 1 10 -10" /><g>
<path d="M117.0 20h147.5" /></g><path d="M264.5 20a10 10 0 0 1 10 10v11a10 10 0 0 0 10 10" /><path d="M97.0 51h20" /><g class="terminal ">
<rect data-text="TypeParamClause" fill="hsl(120, 100%, 90%)" height="22" stroke="black" stroke-width="3" width="147.5" x="117" y="40"></rect><text text-anchor="middle" x="190.75" y="55">TypeParamClause</text></g><path d="M264.5 51h20" /></g><g>
<path d="M284.5 51h0.0" /><path d="M500.5 51h0.0" /><path d="M284.5 51a10 10 0 0 0 10 -10v-11a10 10 0 0 1 10 -10" /><g>
<path d="M304.5 20h176.0" /></g><path d="M480.5 20a10 10 0 0 1 10 10v11a10 10 0 0 0 10 10" /><path d="M284.5 51h20" /><g>
<path d="M304.5 51h0.0" /><path d="M480.5 51h0.0" /><path d="M304.5 51h10" /><g class="terminal ">
<rect data-text="ConstrAnnotation" fill="hsl(120, 100%, 90%)" height="22" stroke="black" stroke-width="3" width="156" x="314.5" y="40"></rect><text text-anchor="middle" x="392.5" y="55">ConstrAnnotation</text></g><path d="M470.5 51h10" /><path d="M314.5 51a10 10 0 0 0 -10 10v11a10 10 0 0 0 10 10" /><g>
<path d="M314.5 82h156.0" /></g><path d="M470.5 82a10 10 0 0 0 10 -10v-11a10 10 0 0 0 -10 -10" /></g><path d="M480.5 51h20" /></g><g>
<path d="M500.5 51h0.0" /><path d="M679.5 51h0.0" /><path d="M500.5 51a10 10 0 0 0 10 -10v-11a10 10 0 0 1 10 -10" /><g>
<path d="M520.5 20h139.0" /></g><path d="M659.5 20a10 10 0 0 1 10 10v11a10 10 0 0 0 10 10" /><path d="M500.5 51h20" /><g class="terminal ">
<rect data-text="AccessModifier" fill="hsl(120, 100%, 90%)" height="22" stroke="black" stroke-width="3" width="139" x="520.5" y="40"></rect><text text-anchor="middle" x="590" y="55">AccessModifier</text></g><path d="M659.5 51h20" /></g><path d="M679.5 51h10" /><g class="terminal ">
<rect data-text="$" fill="hsl(120, 100%, 90%)" height="22" stroke="black" stroke-width="3" width="28.5" x="689.5" y="40"></rect><text text-anchor="middle" x="703.75" y="55">$</text></g><path d="M718.0 51h10" /><path d="M728.0 51h10" /><g class="terminal ">
<rect data-text="ClassParamClauses" fill="hsl(120, 100%, 90%)" height="22" stroke="black" stroke-width="3" width="164.5" x="738" y="40"></rect><text text-anchor="middle" x="820.25" y="55">ClassParamClauses</text></g><path d="M902.5 51h10" /><path d="M912.5 51h10" /><g class="terminal ">
<rect data-text="$" fill="hsl(120, 100%, 90%)" height="22" stroke="black" stroke-width="3" width="28.5" x="922.5" y="40"></rect><text text-anchor="middle" x="936.75" y="55">$</text></g></g><path d="M951.0 51h10" /><path d="M 961.0 51 h 20 m -10 -10 v 20 m 10 -20 v 20"></path></g><style>/* <![CDATA[ */
	svg.railroad-diagram {
		background-color:hsl(30,20%,95%);
	}
	svg.railroad-diagram path {
		stroke-width:3;
		stroke:black;
		fill:rgba(0,0,0,0);
	}
	svg.railroad-diagram text {
		font:bold 14px monospace;
		text-anchor:middle;
	}
	svg.railroad-diagram text.label{
		text-anchor:start;
	}
	svg.railroad-diagram text.comment{
		font:italic 12px monospace;
	}
	svg.railroad-diagram rect{
		stroke-width:3;
		stroke:black;
		fill:hsl(120,100%,90%);
	}
	svg.railroad-diagram rect.group-box {
		stroke: gray;
		stroke-dasharray: 10 5;
		fill: none;
	}

/* ]]> */
</style></svg>