<svg class="railroad-diagram" height="144" viewBox="0 0 903.0 144" width="903.0" xmlns="http://www.w3.org/2000/svg" xmlns:xlink="http://www.w3.org/1999/xlink">
<g transform="translate(.5 .5)">
<g>
<path d="M20 83v20m10 -20v20m-10 -10h20" /></g><path d="M40 93h10" /><g>
<path d="M50 93h0.0" /><path d="M853.0 93h0.0" /><g>
<path d="M50.0 93h0.0" /><path d="M215.0 93h0.0" /><path d="M50.0 93a10 10 0 0 0 10 -10v-11a10 10 0 0 1 10 -10" /><g>
<path d="M70.0 62h125.0" /></g><path d="M195.0 62a10 10 0 0 1 10 10v11a10 10 0 0 0 10 10" /><path d="M50.0 93h20" /><g>
<path d="M70.0 93h0.0" /><path d="M195.0 93h0.0" /><path d="M70.0 93h10" /><g class="terminal ">
<rect data-text="Annotation" fill="hsl(120, 100%, 90%)" height="22" stroke="black" stroke-width="3" width="105" x="80" y="82"></rect><text text-anchor="middle" x="132.5" y="97">Annotation</text></g><path d="M185.0 93h10" /><path d="M80.0 93a10 10 0 0 0 -10 10v11a10 10 0 0 0 10 10" /><g>
<path d="M80.0 124h105.0" /></g><path d="M185.0 124a10 10 0 0 0 10 -10v-11a10 10 0 0 0 -10 -10" /></g><path d="M195.0 93h20" /></g><g>
<path d="M215.0 93h0.0" /><path d="M363.0 93h0.0" /><path d="M215.0 93a10 10 0 0 0 10 -10v-11a10 10 0 0 1 10 -10" /><g>
<path d="M235.0 62h108.0" /></g><path d="M343.0 62a10 10 0 0 1 10 10v11a10 10 0 0 0 10 10" /><path d="M215.0 93h20" /><g>
<path d="M235.0 93h0.0" /><path d="M343.0 93h0.0" /><path d="M235.0 93h10" /><g class="terminal ">
<rect data-text="Modifier" fill="hsl(120, 100%, 90%)" height="22" stroke="black" stroke-width="3" width="88" x="245" y="82"></rect><text text-anchor="middle" x="289" y="97">Modifier</text></g><path d="M333.0 93h10" /><path d="M245.0 93a10 10 0 0 0 -10 10v11a10 10 0 0 0 10 10" /><g>
<path d="M245.0 124h88.0" /></g><path d="M333.0 124a10 10 0 0 0 10 -10v-11a10 10 0 0 0 -10 -10" /></g><path d="M343.0 93h20" /></g><g>
<path d="M363.0 93h0.0" /><path d="M488.5 93h0.0" /><path d="M363.0 93a10 10 0 0 0 10 -10v-53a10 10 0 0 1 10 -10" /><g>
<path d="M383.0 20h85.5" /></g><path d="M468.5 20a10 10 0 0 1 10 10v53a10 10 0 0 0 10 10" /><path d="M363.0 93h20" /><g>
<path d="M383.0 93h0.0" /><path d="M468.5 93h0.0" /><g>
<path d="M383.0 93h0.0" /><path d="M468.5 93h0.0" /><g>
<path d="M383.0 93h0.0" /><path d="M468.5 93h0.0" /><path d="M383.0 93a10 10 0 0 0 10 -10v-22a10 10 0 0 1 10 -10" /><g>
<path d="M403.0 51h0.0" /><path d="M448.5 51h0.0" /><g class="terminal ">
<rect data-text="val" fill="hsl(120, 100%, 90%)" height="22" stroke="black" stroke-width="3" width="45.5" x="403" y="40"></rect><text text-anchor="middle" x="425.75" y="55">val</text></g></g><path d="M448.5 51a10 10 0 0 1 10 10v22a10 10 0 0 0 10 10" /><path d="M383.0 93h20" /><g>
<path d="M403.0 93h0.0" /><path d="M448.5 93h0.0" /><g class="terminal ">
<rect data-text="var" fill="hsl(120, 100%, 90%)" height="22" stroke="black" stroke-width="3" width="45.5" x="403" y="82"></rect><text text-anchor="middle" x="425.75" y="97">var</text></g></g><path d="M448.5 93h20" /></g></g></g><path d="M468.5 93h20" /></g><path d="M488.5 93h10" /><g class="terminal ">
<rect data-text="id" fill="hsl(120, 100%, 90%)" height="22" stroke="black" stroke-width="3" width="37" x="498.5" y="82"></rect><text text-anchor="middle" x="517" y="97">id</text></g><path d="M535.5 93h10" /><path d="M545.5 93h10" /><g class="terminal ">
<rect data-text=":" fill="hsl(120, 100%, 90%)" height="22" stroke="black" stroke-width="3" width="28.5" x="555.5" y="82"></rect><text text-anchor="middle" x="569.75" y="97">:</text></g><path d="M584.0 93h10" /><path d="M594.0 93h10" /><g class="terminal ">
<rect data-text="ParamType" fill="hsl(120, 100%, 90%)" height="22" stroke="black" stroke-width="3" width="96.5" x="604" y="82"></rect><text text-anchor="middle" x="652.25" y="97">ParamType</text></g><path d="M700.5 93h10" /><g>
<path d="M710.5 93h0.0" /><path d="M853.0 93h0.0" /><path d="M710.5 93a10 10 0 0 0 10 -10v-11a10 10 0 0 1 10 -10" /><g>
<path d="M730.5 62h102.5" /></g><path d="M833.0 62a10 10 0 0 1 10 10v11a10 10 0 0 0 10 10" /><path d="M710.5 93h20" /><g>
<path d="M730.5 93h0.0" /><path d="M833.0 93h0.0" /><g class="terminal ">
<rect data-text="=" fill="hsl(120, 100%, 90%)" height="22" stroke="black" stroke-width="3" width="28.5" x="730.5" y="82"></rect><text text-anchor="middle" x="744.75" y="97">=</text></g><path d="M759.0 93h10" /><path d="M769.0 93h10" /><g class="terminal ">
<rect data-text="Expr" fill="hsl(120, 100%, 90%)" height="22" stroke="black" stroke-width="3" width="54" x="779" y="82"></rect><text text-anchor="middle" x="806" y="97">Expr</text></g></g><path d="M833.0 93h20" /></g></g><path d="M853.0 93h10" /><path d="M 863.0 93 h 20 m -10 -10 v 20 m 10 -20 v 20"></path></g><style>/* <![CDATA[ */
	svg.railroad-diagram {
		background-color:hsl(30,20%,95%);
	}
	svg.railroad-diagram path {
		stroke-width:3;
		stroke:black;
		fill:rgba(0,0,0,0);
	}
	svg.railroad-diagram text {
		font:bold 14px monospace;
		text-anchor:middle;
	}
	svg.railroad-diagram text.label{
		text-anchor:start;
	}
	svg.railroad-diagram text.comment{
		font:italic 12px monospace;
	}
	svg.railroad-diagram rect{
		stroke-width:3;
		stroke:black;
		fill:hsl(120,100%,90%);
	}
	svg.railroad-diagram rect.group-box {
		stroke: gray;
		stroke-dasharray: 10 5;
		fill: none;
	}

/* ]]> */
</style></svg>