<svg class="railroad-diagram" height="102" viewBox="0 0 669.0 102" width="669.0" xmlns="http://www.w3.org/2000/svg" xmlns:xlink="http://www.w3.org/1999/xlink">
<g transform="translate(.5 .5)">
<g>
<path d="M20 41v20m10 -20v20m-10 -10h20" /></g><path d="M40 51h10" /><g>
<path d="M50 51h0.0" /><path d="M619.0 51h0.0" /><g class="terminal ">
<rect data-text="{" fill="hsl(120, 100%, 90%)" height="22" stroke="black" stroke-width="3" width="28.5" x="50" y="40"></rect><text text-anchor="middle" x="64.25" y="55">{</text></g><path d="M78.5 51h10" /><path d="M88.5 51h10" /><g class="terminal ">
<rect data-text="SelfInvocation" fill="hsl(120, 100%, 90%)" height="22" stroke="black" stroke-width="3" width="139" x="98.5" y="40"></rect><text text-anchor="middle" x="168" y="55">SelfInvocation</text></g><path d="M237.5 51h10" /><g>
<path d="M247.5 51h0.0" /><path d="M478.0 51h0.0" /><path d="M247.5 51a10 10 0 0 0 10 -10v-11a10 10 0 0 1 10 -10" /><g>
<path d="M267.5 20h190.5" /></g><path d="M458.0 20a10 10 0 0 1 10 10v11a10 10 0 0 0 10 10" /><path d="M247.5 51h20" /><g>
<path d="M267.5 51h0.0" /><path d="M458.0 51h0.0" /><path d="M267.5 51h10" /><g>
<path d="M277.5 51h0.0" /><path d="M448.0 51h0.0" /><g class="terminal ">
<rect data-text="semi" fill="hsl(120, 100%, 90%)" height="22" stroke="black" stroke-width="3" width="54" x="277.5" y="40"></rect><text text-anchor="middle" x="304.5" y="55">semi</text></g><path d="M331.5 51h10" /><path d="M341.5 51h10" /><g class="terminal ">
<rect data-text="BlockStat" fill="hsl(120, 100%, 90%)" height="22" stroke="black" stroke-width="3" width="96.5" x="351.5" y="40"></rect><text text-anchor="middle" x="399.75" y="55">BlockStat</text></g></g><path d="M448.0 51h10" /><path d="M277.5 51a10 10 0 0 0 -10 10v11a10 10 0 0 0 10 10" /><g>
<path d="M277.5 82h170.5" /></g><path d="M448.0 82a10 10 0 0 0 10 -10v-11a10 10 0 0 0 -10 -10" /></g><path d="M458.0 51h20" /></g><g>
<path d="M478.0 51h0.0" /><path d="M580.5 51h0.0" /><path d="M478.0 51a10 10 0 0 0 10 -10v-11a10 10 0 0 1 10 -10" /><g>
<path d="M498.0 20h62.5" /></g><path d="M560.5 20a10 10 0 0 1 10 10v11a10 10 0 0 0 10 10" /><path d="M478.0 51h20" /><g class="terminal ">
<rect data-text="empty" fill="hsl(120, 100%, 90%)" height="22" stroke="black" stroke-width="3" width="62.5" x="498" y="40"></rect><text text-anchor="middle" x="529.25" y="55">empty</text></g><path d="M560.5 51h20" /></g><path d="M580.5 51h10" /><g class="terminal ">
<rect data-text="}" fill="hsl(120, 100%, 90%)" height="22" stroke="black" stroke-width="3" width="28.5" x="590.5" y="40"></rect><text text-anchor="middle" x="604.75" y="55">}</text></g></g><path d="M619.0 51h10" /><path d="M 629.0 51 h 20 m -10 -10 v 20 m 10 -20 v 20"></path></g><style>/* <![CDATA[ */
	svg.railroad-diagram {
		background-color:hsl(30,20%,95%);
	}
	svg.railroad-diagram path {
		stroke-width:3;
		stroke:black;
		fill:rgba(0,0,0,0);
	}
	svg.railroad-diagram text {
		font:bold 14px monospace;
		text-anchor:middle;
	}
	svg.railroad-diagram text.label{
		text-anchor:start;
	}
	svg.railroad-diagram text.comment{
		font:italic 12px monospace;
	}
	svg.railroad-diagram rect{
		stroke-width:3;
		stroke:black;
		fill:hsl(120,100%,90%);
	}
	svg.railroad-diagram rect.group-box {
		stroke: gray;
		stroke-dasharray: 10 5;
		fill: none;
	}

/* ]]> */
</style></svg>