<svg class="railroad-diagram" height="122" viewBox="0 0 611.0 122" width="611.0" xmlns="http://www.w3.org/2000/svg" xmlns:xlink="http://www.w3.org/1999/xlink">
<g transform="translate(.5 .5)">
<g>
<path d="M20 61v20m10 -20v20m-10 -10h20" /></g><path d="M40 71h10" /><g>
<path d="M50 71h0.0" /><path d="M561.0 71h0.0" /><g class="terminal ">
<rect data-text="{" fill="hsl(120, 100%, 90%)" height="22" stroke="black" stroke-width="3" width="28.5" x="50" y="60"></rect><text text-anchor="middle" x="64.25" y="75">{</text></g><path d="M78.5 71h10" /><g>
<path d="M88.5 71h0.0" /><path d="M448.5 71h0.0" /><path d="M88.5 71a10 10 0 0 0 10 -10v-31a10 10 0 0 1 10 -10" /><g>
<path d="M108.5 20h320.0" /></g><path d="M428.5 20a10 10 0 0 1 10 10v31a10 10 0 0 0 10 10" /><path d="M88.5 71h20" /><g>
<path d="M108.5 71h0.0" /><path d="M428.5 71h0.0" /><g class="terminal ">
<rect data-text="EarlyDef" fill="hsl(120, 100%, 90%)" height="22" stroke="black" stroke-width="3" width="88" x="108.5" y="60"></rect><text text-anchor="middle" x="152.5" y="75">EarlyDef</text></g><path d="M196.5 71h10" /><g>
<path d="M206.5 71h0.0" /><path d="M428.5 71h0.0" /><path d="M206.5 71a10 10 0 0 0 10 -10v-11a10 10 0 0 1 10 -10" /><g>
<path d="M226.5 40h182.0" /></g><path d="M408.5 40a10 10 0 0 1 10 10v11a10 10 0 0 0 10 10" /><path d="M206.5 71h20" /><g>
<path d="M226.5 71h0.0" /><path d="M408.5 71h0.0" /><path d="M226.5 71h10" /><g>
<path d="M236.5 71h0.0" /><path d="M398.5 71h0.0" /><g class="terminal ">
<rect data-text="semi" fill="hsl(120, 100%, 90%)" height="22" stroke="black" stroke-width="3" width="54" x="236.5" y="60"></rect><text text-anchor="middle" x="263.5" y="75">semi</text></g><path d="M290.5 71h10" /><path d="M300.5 71h10" /><g class="terminal ">
<rect data-text="EarlyDef" fill="hsl(120, 100%, 90%)" height="22" stroke="black" stroke-width="3" width="88" x="310.5" y="60"></rect><text text-anchor="middle" x="354.5" y="75">EarlyDef</text></g></g><path d="M398.5 71h10" /><path d="M236.5 71a10 10 0 0 0 -10 10v11a10 10 0 0 0 10 10" /><g>
<path d="M236.5 102h162.0" /></g><path d="M398.5 102a10 10 0 0 0 10 -10v-11a10 10 0 0 0 -10 -10" /></g><path d="M408.5 71h20" /></g></g><path d="M428.5 71h20" /></g><path d="M448.5 71h10" /><g class="terminal ">
<rect data-text="}" fill="hsl(120, 100%, 90%)" height="22" stroke="black" stroke-width="3" width="28.5" x="458.5" y="60"></rect><text text-anchor="middle" x="472.75" y="75">}</text></g><path d="M487.0 71h10" /><path d="M497.0 71h10" /><g class="terminal ">
<rect data-text="with" fill="hsl(120, 100%, 90%)" height="22" stroke="black" stroke-width="3" width="54" x="507" y="60"></rect><text text-anchor="middle" x="534" y="75">with</text></g></g><path d="M561.0 71h10" /><path d="M 571.0 71 h 20 m -10 -10 v 20 m 10 -20 v 20"></path></g><style>/* <![CDATA[ */
	svg.railroad-diagram {
		background-color:hsl(30,20%,95%);
	}
	svg.railroad-diagram path {
		stroke-width:3;
		stroke:black;
		fill:rgba(0,0,0,0);
	}
	svg.railroad-diagram text {
		font:bold 14px monospace;
		text-anchor:middle;
	}
	svg.railroad-diagram text.label{
		text-anchor:start;
	}
	svg.railroad-diagram text.comment{
		font:italic 12px monospace;
	}
	svg.railroad-diagram rect{
		stroke-width:3;
		stroke:black;
		fill:hsl(120,100%,90%);
	}
	svg.railroad-diagram rect.group-box {
		stroke: gray;
		stroke-dasharray: 10 5;
		fill: none;
	}

/* ]]> */
</style></svg>