<svg class="railroad-diagram" height="102" viewBox="0 0 708.5 102" width="708.5" xmlns="http://www.w3.org/2000/svg" xmlns:xlink="http://www.w3.org/1999/xlink">
<g transform="translate(.5 .5)">
<g>
<path d="M20 41v20m10 -20v20m-10 -10h20" /></g><path d="M40 51h10" /><g>
<path d="M50 51h0.0" /><path d="M658.5 51h0.0" /><g class="terminal ">
<rect data-text="forSome" fill="hsl(120, 100%, 90%)" height="22" stroke="black" stroke-width="3" width="79.5" x="50" y="40"></rect><text text-anchor="middle" x="89.75" y="55">forSome</text></g><path d="M129.5 51h10" /><path d="M139.5 51h10" /><g class="terminal ">
<rect data-text="{" fill="hsl(120, 100%, 90%)" height="22" stroke="black" stroke-width="3" width="28.5" x="149.5" y="40"></rect><text text-anchor="middle" x="163.75" y="55">{</text></g><path d="M178.0 51h10" /><path d="M188.0 51h10" /><g class="terminal ">
<rect data-text="ExistentialDcl" fill="hsl(120, 100%, 90%)" height="22" stroke="black" stroke-width="3" width="139" x="198" y="40"></rect><text text-anchor="middle" x="267.5" y="55">ExistentialDcl</text></g><path d="M337.0 51h10" /><g>
<path d="M347.0 51h0.0" /><path d="M620.0 51h0.0" /><path d="M347.0 51a10 10 0 0 0 10 -10v-11a10 10 0 0 1 10 -10" /><g>
<path d="M367.0 20h233.0" /></g><path d="M600.0 20a10 10 0 0 1 10 10v11a10 10 0 0 0 10 10" /><path d="M347.0 51h20" /><g>
<path d="M367.0 51h0.0" /><path d="M600.0 51h0.0" /><path d="M367.0 51h10" /><g>
<path d="M377.0 51h0.0" /><path d="M590.0 51h0.0" /><g class="terminal ">
<rect data-text="semi" fill="hsl(120, 100%, 90%)" height="22" stroke="black" stroke-width="3" width="54" x="377" y="40"></rect><text text-anchor="middle" x="404" y="55">semi</text></g><path d="M431.0 51h10" /><path d="M441.0 51h10" /><g class="terminal ">
<rect data-text="ExistentialDcl" fill="hsl(120, 100%, 90%)" height="22" stroke="black" stroke-width="3" width="139" x="451" y="40"></rect><text text-anchor="middle" x="520.5" y="55">ExistentialDcl</text></g></g><path d="M590.0 51h10" /><path d="M377.0 51a10 10 0 0 0 -10 10v11a10 10 0 0 0 10 10" /><g>
<path d="M377.0 82h213.0" /></g><path d="M590.0 82a10 10 0 0 0 10 -10v-11a10 10 0 0 0 -10 -10" /></g><path d="M600.0 51h20" /></g><path d="M620.0 51h10" /><g class="terminal ">
<rect data-text="}" fill="hsl(120, 100%, 90%)" height="22" stroke="black" stroke-width="3" width="28.5" x="630" y="40"></rect><text text-anchor="middle" x="644.25" y="55">}</text></g></g><path d="M658.5 51h10" /><path d="M 668.5 51 h 20 m -10 -10 v 20 m 10 -20 v 20"></path></g><style>/* <![CDATA[ */
	svg.railroad-diagram {
		background-color:hsl(30,20%,95%);
	}
	svg.railroad-diagram path {
		stroke-width:3;
		stroke:black;
		fill:rgba(0,0,0,0);
	}
	svg.railroad-diagram text {
		font:bold 14px monospace;
		text-anchor:middle;
	}
	svg.railroad-diagram text.label{
		text-anchor:start;
	}
	svg.railroad-diagram text.comment{
		font:italic 12px monospace;
	}
	svg.railroad-diagram rect{
		stroke-width:3;
		stroke:black;
		fill:hsl(120,100%,90%);
	}
	svg.railroad-diagram rect.group-box {
		stroke: gray;
		stroke-dasharray: 10 5;
		fill: none;
	}

/* ]]> */
</style></svg>