<svg class="railroad-diagram" height="104" viewBox="0 0 340.5 104" width="340.5" xmlns="http://www.w3.org/2000/svg" xmlns:xlink="http://www.w3.org/1999/xlink">
<g transform="translate(.5 .5)">
<g>
<path d="M20 63v20m10 -20v20m-10 -10h20" /></g><path d="M40 73h10" /><g>
<path d="M50 73h0.0" /><path d="M290.5 73h0.0" /><g class="terminal ">
<rect data-text="type" fill="hsl(120, 100%, 90%)" height="22" stroke="black" stroke-width="3" width="54" x="50" y="62"></rect><text text-anchor="middle" x="77" y="77">type</text></g><path d="M104.0 73h10" /><g>
<path d="M114.0 73h0.0" /><path d="M290.5 73h0.0" /><path d="M114.0 73a10 10 0 0 0 10 -10v-22a10 10 0 0 1 10 -10" /><g>
<path d="M134.0 31h28.5" /><path d="M242.0 31h28.5" /><g class="terminal ">
<rect data-text="TypeDcl" fill="hsl(120, 100%, 90%)" height="22" stroke="black" stroke-width="3" width="79.5" x="162.5" y="20"></rect><text text-anchor="middle" x="202.25" y="35">TypeDcl</text></g></g><path d="M270.5 31a10 10 0 0 1 10 10v22a10 10 0 0 0 10 10" /><path d="M114.0 73h20" /><g>
<path d="M134.0 73h0.0" /><path d="M270.5 73h0.0" /><g class="terminal ">
<rect data-text="val" fill="hsl(120, 100%, 90%)" height="22" stroke="black" stroke-width="3" width="45.5" x="134" y="62"></rect><text text-anchor="middle" x="156.75" y="77">val</text></g><path d="M179.5 73h10" /><path d="M189.5 73h10" /><g class="terminal ">
<rect data-text="ValDcl" fill="hsl(120, 100%, 90%)" height="22" stroke="black" stroke-width="3" width="71" x="199.5" y="62"></rect><text text-anchor="middle" x="235" y="77">ValDcl</text></g></g><path d="M270.5 73h20" /></g></g><path d="M290.5 73h10" /><path d="M 300.5 73 h 20 m -10 -10 v 20 m 10 -20 v 20"></path></g><style>/* <![CDATA[ */
	svg.railroad-diagram {
		background-color:hsl(30,20%,95%);
	}
	svg.railroad-diagram path {
		stroke-width:3;
		stroke:black;
		fill:rgba(0,0,0,0);
	}
	svg.railroad-diagram text {
		font:bold 14px monospace;
		text-anchor:middle;
	}
	svg.railroad-diagram text.label{
		text-anchor:start;
	}
	svg.railroad-diagram text.comment{
		font:italic 12px monospace;
	}
	svg.railroad-diagram rect{
		stroke-width:3;
		stroke:black;
		fill:hsl(120,100%,90%);
	}
	svg.railroad-diagram rect.group-box {
		stroke: gray;
		stroke-dasharray: 10 5;
		fill: none;
	}

/* ]]> */
</style></svg>