<svg class="railroad-diagram" height="144" viewBox="0 0 538.5 144" width="538.5" xmlns="http://www.w3.org/2000/svg" xmlns:xlink="http://www.w3.org/1999/xlink">
<g transform="translate(.5 .5)">
<g>
<path d="M20 83v20m10 -20v20m-10 -10h20" /></g><path d="M40 93h10" /><g>
<path d="M50 93h0.0" /><path d="M488.5 93h0.0" /><g>
<path d="M50.0 93h0.0" /><path d="M488.5 93h0.0" /><path d="M50.0 93a10 10 0 0 0 10 -10v-42a10 10 0 0 1 10 -10" /><g>
<path d="M70.0 31h151.0" /><path d="M317.5 31h151.0" /><g class="terminal ">
<rect data-text="InfixType" fill="hsl(120, 100%, 90%)" height="22" stroke="black" stroke-width="3" width="96.5" x="221" y="20"></rect><text text-anchor="middle" x="269.25" y="35">InfixType</text></g></g><path d="M468.5 31a10 10 0 0 1 10 10v42a10 10 0 0 0 10 10" /><path d="M50.0 93h20" /><g>
<path d="M70.0 93h0.0" /><path d="M468.5 93h0.0" /><g class="terminal ">
<rect data-text="(" fill="hsl(120, 100%, 90%)" height="22" stroke="black" stroke-width="3" width="28.5" x="70" y="82"></rect><text text-anchor="middle" x="84.25" y="97">(</text></g><path d="M98.5 93h10" /><path d="M108.5 93h10" /><g class="terminal ">
<rect data-text="ParamType" fill="hsl(120, 100%, 90%)" height="22" stroke="black" stroke-width="3" width="96.5" x="118.5" y="82"></rect><text text-anchor="middle" x="166.75" y="97">ParamType</text></g><path d="M215.0 93h10" /><g>
<path d="M225.0 93h0.0" /><path d="M430.0 93h0.0" /><path d="M225.0 93a10 10 0 0 0 10 -10v-11a10 10 0 0 1 10 -10" /><g>
<path d="M245.0 62h165.0" /></g><path d="M410.0 62a10 10 0 0 1 10 10v11a10 10 0 0 0 10 10" /><path d="M225.0 93h20" /><g>
<path d="M245.0 93h0.0" /><path d="M410.0 93h0.0" /><path d="M245.0 93h10" /><g>
<path d="M255.0 93h0.0" /><path d="M400.0 93h0.0" /><g class="terminal ">
<rect data-text="," fill="hsl(120, 100%, 90%)" height="22" stroke="black" stroke-width="3" width="28.5" x="255" y="82"></rect><text text-anchor="middle" x="269.25" y="97">,</text></g><path d="M283.5 93h10" /><path d="M293.5 93h10" /><g class="terminal ">
<rect data-text="ParamType" fill="hsl(120, 100%, 90%)" height="22" stroke="black" stroke-width="3" width="96.5" x="303.5" y="82"></rect><text text-anchor="middle" x="351.75" y="97">ParamType</text></g></g><path d="M400.0 93h10" /><path d="M255.0 93a10 10 0 0 0 -10 10v11a10 10 0 0 0 10 10" /><g>
<path d="M255.0 124h145.0" /></g><path d="M400.0 124a10 10 0 0 0 10 -10v-11a10 10 0 0 0 -10 -10" /></g><path d="M410.0 93h20" /></g><path d="M430.0 93h10" /><g class="terminal ">
<rect data-text=")" fill="hsl(120, 100%, 90%)" height="22" stroke="black" stroke-width="3" width="28.5" x="440" y="82"></rect><text text-anchor="middle" x="454.25" y="97">)</text></g></g><path d="M468.5 93h20" /></g></g><path d="M488.5 93h10" /><path d="M 498.5 93 h 20 m -10 -10 v 20 m 10 -20 v 20"></path></g><style>/* <![CDATA[ */
	svg.railroad-diagram {
		background-color:hsl(30,20%,95%);
	}
	svg.railroad-diagram path {
		stroke-width:3;
		stroke:black;
		fill:rgba(0,0,0,0);
	}
	svg.railroad-diagram text {
		font:bold 14px monospace;
		text-anchor:middle;
	}
	svg.railroad-diagram text.label{
		text-anchor:start;
	}
	svg.railroad-diagram text.comment{
		font:italic 12px monospace;
	}
	svg.railroad-diagram rect{
		stroke-width:3;
		stroke:black;
		fill:hsl(120,100%,90%);
	}
	svg.railroad-diagram rect.group-box {
		stroke: gray;
		stroke-dasharray: 10 5;
		fill: none;
	}

/* ]]> */
</style></svg>