<svg class="railroad-diagram" height="82" viewBox="0 0 540.5 82" width="540.5" xmlns="http://www.w3.org/2000/svg" xmlns:xlink="http://www.w3.org/1999/xlink">
<g transform="translate(.5 .5)">
<g>
<path d="M20 41v20m10 -20v20m-10 -10h20" /></g><path d="M40 51h10" /><g>
<path d="M50 51h0.0" /><path d="M490.5 51h0.0" /><g>
<path d="M50.0 51h0.0" /><path d="M490.5 51h0.0" /><g class="terminal ">
<rect data-text="id" fill="hsl(120, 100%, 90%)" height="22" stroke="black" stroke-width="3" width="37" x="50" y="40"></rect><text text-anchor="middle" x="68.5" y="55">id</text></g><path d="M87.0 51h10" /><g>
<path d="M97.0 51h0.0" /><path d="M310.0 51h0.0" /><path d="M97.0 51a10 10 0 0 0 10 -10v-11a10 10 0 0 1 10 -10" /><g>
<path d="M117.0 20h173.0" /></g><path d="M290.0 20a10 10 0 0 1 10 10v11a10 10 0 0 0 10 10" /><path d="M97.0 51h20" /><g class="terminal ">
<rect data-text="FunTypeParamClause" fill="hsl(120, 100%, 90%)" height="22" stroke="black" stroke-width="3" width="173" x="117" y="40"></rect><text text-anchor="middle" x="203.5" y="55">FunTypeParamClause</text></g><path d="M290.0 51h20" /></g><path d="M310.0 51h10" /><g class="terminal ">
<rect data-text="$" fill="hsl(120, 100%, 90%)" height="22" stroke="black" stroke-width="3" width="28.5" x="320" y="40"></rect><text text-anchor="middle" x="334.25" y="55">$</text></g><path d="M348.5 51h10" /><path d="M358.5 51h10" /><g class="terminal ">
<rect data-text="ParamClauses" fill="hsl(120, 100%, 90%)" height="22" stroke="black" stroke-width="3" width="122" x="368.5" y="40"></rect><text text-anchor="middle" x="429.5" y="55">ParamClauses</text></g></g></g><path d="M490.5 51h10" /><path d="M 500.5 51 h 20 m -10 -10 v 20 m 10 -20 v 20"></path></g><style>/* <![CDATA[ */
	svg.railroad-diagram {
		background-color:hsl(30,20%,95%);
	}
	svg.railroad-diagram path {
		stroke-width:3;
		stroke:black;
		fill:rgba(0,0,0,0);
	}
	svg.railroad-diagram text {
		font:bold 14px monospace;
		text-anchor:middle;
	}
	svg.railroad-diagram text.label{
		text-anchor:start;
	}
	svg.railroad-diagram text.comment{
		font:italic 12px monospace;
	}
	svg.railroad-diagram rect{
		stroke-width:3;
		stroke:black;
		fill:hsl(120,100%,90%);
	}
	svg.railroad-diagram rect.group-box {
		stroke: gray;
		stroke-dasharray: 10 5;
		fill: none;
	}

/* ]]> */
</style></svg>