<svg class="railroad-diagram" height="102" viewBox="0 0 498.5 102" width="498.5" xmlns="http://www.w3.org/2000/svg" xmlns:xlink="http://www.w3.org/1999/xlink">
<g transform="translate(.5 .5)">
<g>
<path d="M20 41v20m10 -20v20m-10 -10h20" /></g><path d="M40 51h10" /><g>
<path d="M50 51h0.0" /><path d="M448.5 51h0.0" /><g class="terminal ">
<rect data-text="[" fill="hsl(120, 100%, 90%)" height="22" stroke="black" stroke-width="3" width="28.5" x="50" y="40"></rect><text text-anchor="middle" x="64.25" y="55">[</text></g><path d="M78.5 51h10" /><path d="M88.5 51h10" /><g class="terminal ">
<rect data-text="TypeParam" fill="hsl(120, 100%, 90%)" height="22" stroke="black" stroke-width="3" width="96.5" x="98.5" y="40"></rect><text text-anchor="middle" x="146.75" y="55">TypeParam</text></g><path d="M195.0 51h10" /><g>
<path d="M205.0 51h0.0" /><path d="M410.0 51h0.0" /><path d="M205.0 51a10 10 0 0 0 10 -10v-11a10 10 0 0 1 10 -10" /><g>
<path d="M225.0 20h165.0" /></g><path d="M390.0 20a10 10 0 0 1 10 10v11a10 10 0 0 0 10 10" /><path d="M205.0 51h20" /><g>
<path d="M225.0 51h0.0" /><path d="M390.0 51h0.0" /><path d="M225.0 51h10" /><g>
<path d="M235.0 51h0.0" /><path d="M380.0 51h0.0" /><g class="terminal ">
<rect data-text="," fill="hsl(120, 100%, 90%)" height="22" stroke="black" stroke-width="3" width="28.5" x="235" y="40"></rect><text text-anchor="middle" x="249.25" y="55">,</text></g><path d="M263.5 51h10" /><path d="M273.5 51h10" /><g class="terminal ">
<rect data-text="TypeParam" fill="hsl(120, 100%, 90%)" height="22" stroke="black" stroke-width="3" width="96.5" x="283.5" y="40"></rect><text text-anchor="middle" x="331.75" y="55">TypeParam</text></g></g><path d="M380.0 51h10" /><path d="M235.0 51a10 10 0 0 0 -10 10v11a10 10 0 0 0 10 10" /><g>
<path d="M235.0 82h145.0" /></g><path d="M380.0 82a10 10 0 0 0 10 -10v-11a10 10 0 0 0 -10 -10" /></g><path d="M390.0 51h20" /></g><path d="M410.0 51h10" /><g class="terminal ">
<rect data-text="]" fill="hsl(120, 100%, 90%)" height="22" stroke="black" stroke-width="3" width="28.5" x="420" y="40"></rect><text text-anchor="middle" x="434.25" y="55">]</text></g></g><path d="M448.5 51h10" /><path d="M 458.5 51 h 20 m -10 -10 v 20 m 10 -20 v 20"></path></g><style>/* <![CDATA[ */
	svg.railroad-diagram {
		background-color:hsl(30,20%,95%);
	}
	svg.railroad-diagram path {
		stroke-width:3;
		stroke:black;
		fill:rgba(0,0,0,0);
	}
	svg.railroad-diagram text {
		font:bold 14px monospace;
		text-anchor:middle;
	}
	svg.railroad-diagram text.label{
		text-anchor:start;
	}
	svg.railroad-diagram text.comment{
		font:italic 12px monospace;
	}
	svg.railroad-diagram rect{
		stroke-width:3;
		stroke:black;
		fill:hsl(120,100%,90%);
	}
	svg.railroad-diagram rect.group-box {
		stroke: gray;
		stroke-dasharray: 10 5;
		fill: none;
	}

/* ]]> */
</style></svg>