<svg class="railroad-diagram" height="122" viewBox="0 0 761.0 122" width="761.0" xmlns="http://www.w3.org/2000/svg" xmlns:xlink="http://www.w3.org/1999/xlink">
<g transform="translate(.5 .5)">
<g>
<path d="M20 61v20m10 -20v20m-10 -10h20" /></g><path d="M40 71h10" /><g>
<path d="M50 71h0.0" /><path d="M711.0 71h0.0" /><g>
<path d="M50.0 71h0.0" /><path d="M711.0 71h0.0" /><g class="terminal ">
<rect data-text="if" fill="hsl(120, 100%, 90%)" height="22" stroke="black" stroke-width="3" width="37" x="50" y="60"></rect><text text-anchor="middle" x="68.5" y="75">if</text></g><path d="M87.0 71h10" /><path d="M97.0 71h10" /><g class="terminal ">
<rect data-text="(" fill="hsl(120, 100%, 90%)" height="22" stroke="black" stroke-width="3" width="28.5" x="107" y="60"></rect><text text-anchor="middle" x="121.25" y="75">(</text></g><path d="M135.5 71h10" /><path d="M145.5 71h10" /><g class="terminal ">
<rect data-text="Expr" fill="hsl(120, 100%, 90%)" height="22" stroke="black" stroke-width="3" width="54" x="155.5" y="60"></rect><text text-anchor="middle" x="182.5" y="75">Expr</text></g><path d="M209.5 71h10" /><path d="M219.5 71h10" /><g class="terminal ">
<rect data-text=")" fill="hsl(120, 100%, 90%)" height="22" stroke="black" stroke-width="3" width="28.5" x="229.5" y="60"></rect><text text-anchor="middle" x="243.75" y="75">)</text></g><path d="M258.0 71h10" /><g>
<path d="M268.0 71h0.0" /><path d="M365.0 71h0.0" /><path d="M268.0 71a10 10 0 0 0 10 -10v-11a10 10 0 0 1 10 -10" /><g>
<path d="M288.0 40h57.0" /></g><path d="M345.0 40a10 10 0 0 1 10 10v11a10 10 0 0 0 10 10" /><path d="M268.0 71h20" /><g>
<path d="M288.0 71h0.0" /><path d="M345.0 71h0.0" /><path d="M288.0 71h10" /><g class="terminal ">
<rect data-text="nl" fill="hsl(120, 100%, 90%)" height="22" stroke="black" stroke-width="3" width="37" x="298" y="60"></rect><text text-anchor="middle" x="316.5" y="75">nl</text></g><path d="M335.0 71h10" /><path d="M298.0 71a10 10 0 0 0 -10 10v11a10 10 0 0 0 10 10" /><g>
<path d="M298.0 102h37.0" /></g><path d="M335.0 102a10 10 0 0 0 10 -10v-11a10 10 0 0 0 -10 -10" /></g><path d="M345.0 71h20" /></g><path d="M365.0 71h10" /><g class="terminal ">
<rect data-text="Expr" fill="hsl(120, 100%, 90%)" height="22" stroke="black" stroke-width="3" width="54" x="375" y="60"></rect><text text-anchor="middle" x="402" y="75">Expr</text></g><path d="M429.0 71h10" /><g>
<path d="M439.0 71h0.0" /><path d="M711.0 71h0.0" /><path d="M439.0 71a10 10 0 0 0 10 -10v-31a10 10 0 0 1 10 -10" /><g>
<path d="M459.0 20h232.0" /></g><path d="M691.0 20a10 10 0 0 1 10 10v31a10 10 0 0 0 10 10" /><path d="M439.0 71h20" /><g>
<path d="M459.0 71h0.0" /><path d="M691.0 71h0.0" /><g>
<path d="M459.0 71h0.0" /><path d="M553.0 71h0.0" /><path d="M459.0 71a10 10 0 0 0 10 -10v-11a10 10 0 0 1 10 -10" /><g>
<path d="M479.0 40h54.0" /></g><path d="M533.0 40a10 10 0 0 1 10 10v11a10 10 0 0 0 10 10" /><path d="M459.0 71h20" /><g class="terminal ">
<rect data-text="semi" fill="hsl(120, 100%, 90%)" height="22" stroke="black" stroke-width="3" width="54" x="479" y="60"></rect><text text-anchor="middle" x="506" y="75">semi</text></g><path d="M533.0 71h20" /></g><path d="M553.0 71h10" /><g class="terminal ">
<rect data-text="else" fill="hsl(120, 100%, 90%)" height="22" stroke="black" stroke-width="3" width="54" x="563" y="60"></rect><text text-anchor="middle" x="590" y="75">else</text></g><path d="M617.0 71h10" /><path d="M627.0 71h10" /><g class="terminal ">
<rect data-text="Expr" fill="hsl(120, 100%, 90%)" height="22" stroke="black" stroke-width="3" width="54" x="637" y="60"></rect><text text-anchor="middle" x="664" y="75">Expr</text></g></g><path d="M691.0 71h20" /></g></g></g><path d="M711.0 71h10" /><path d="M 721.0 71 h 20 m -10 -10 v 20 m 10 -20 v 20"></path></g><style>/* <![CDATA[ */
	svg.railroad-diagram {
		background-color:hsl(30,20%,95%);
	}
	svg.railroad-diagram path {
		stroke-width:3;
		stroke:black;
		fill:rgba(0,0,0,0);
	}
	svg.railroad-diagram text {
		font:bold 14px monospace;
		text-anchor:middle;
	}
	svg.railroad-diagram text.label{
		text-anchor:start;
	}
	svg.railroad-diagram text.comment{
		font:italic 12px monospace;
	}
	svg.railroad-diagram rect{
		stroke-width:3;
		stroke:black;
		fill:hsl(120,100%,90%);
	}
	svg.railroad-diagram rect.group-box {
		stroke: gray;
		stroke-dasharray: 10 5;
		fill: none;
	}

/* ]]> */
</style></svg>