<svg class="railroad-diagram" height="62" viewBox="0 0 418.5 62" width="418.5" xmlns="http://www.w3.org/2000/svg" xmlns:xlink="http://www.w3.org/1999/xlink">
<g transform="translate(.5 .5)">
<g>
<path d="M20 21v20m10 -20v20m-10 -10h20" /></g><path d="M40 31h10" /><g>
<path d="M50 31h0.0" /><path d="M368.5 31h0.0" /><g class="terminal ">
<rect data-text="(" fill="hsl(120, 100%, 90%)" height="22" stroke="black" stroke-width="3" width="28.5" x="50" y="20"></rect><text text-anchor="middle" x="64.25" y="35">(</text></g><path d="M78.5 31h10" /><path d="M88.5 31h10" /><g class="terminal ">
<rect data-text="implicit" fill="hsl(120, 100%, 90%)" height="22" stroke="black" stroke-width="3" width="88" x="98.5" y="20"></rect><text text-anchor="middle" x="142.5" y="35">implicit</text></g><path d="M186.5 31h10" /><path d="M196.5 31h10" /><g class="terminal ">
<rect data-text="ClassParams" fill="hsl(120, 100%, 90%)" height="22" stroke="black" stroke-width="3" width="113.5" x="206.5" y="20"></rect><text text-anchor="middle" x="263.25" y="35">ClassParams</text></g><path d="M320.0 31h10" /><path d="M330.0 31h10" /><g class="terminal ">
<rect data-text=")" fill="hsl(120, 100%, 90%)" height="22" stroke="black" stroke-width="3" width="28.5" x="340" y="20"></rect><text text-anchor="middle" x="354.25" y="35">)</text></g></g><path d="M368.5 31h10" /><path d="M 378.5 31 h 20 m -10 -10 v 20 m 10 -20 v 20"></path></g><style>/* <![CDATA[ */
	svg.railroad-diagram {
		background-color:hsl(30,20%,95%);
	}
	svg.railroad-diagram path {
		stroke-width:3;
		stroke:black;
		fill:rgba(0,0,0,0);
	}
	svg.railroad-diagram text {
		font:bold 14px monospace;
		text-anchor:middle;
	}
	svg.railroad-diagram text.label{
		text-anchor:start;
	}
	svg.railroad-diagram text.comment{
		font:italic 12px monospace;
	}
	svg.railroad-diagram rect{
		stroke-width:3;
		stroke:black;
		fill:hsl(120,100%,90%);
	}
	svg.railroad-diagram rect.group-box {
		stroke: gray;
		stroke-dasharray: 10 5;
		fill: none;
	}

/* ]]> */
</style></svg>