<svg class="railroad-diagram" height="124" viewBox="0 0 410.5 124" width="410.5" xmlns="http://www.w3.org/2000/svg" xmlns:xlink="http://www.w3.org/1999/xlink">
<g transform="translate(.5 .5)">
<g>
<path d="M20 83v20m10 -20v20m-10 -10h20" /></g><path d="M40 93h10" /><g>
<path d="M50 93h0.0" /><path d="M360.5 93h0.0" /><g class="terminal ">
<rect data-text="id" fill="hsl(120, 100%, 90%)" height="22" stroke="black" stroke-width="3" width="37" x="50" y="82"></rect><text text-anchor="middle" x="68.5" y="97">id</text></g><path d="M87.0 93h10" /><g>
<path d="M97.0 93h0.0" /><path d="M360.5 93h0.0" /><path d="M97.0 93a10 10 0 0 0 10 -10v-53a10 10 0 0 1 10 -10" /><g>
<path d="M117.0 20h223.5" /></g><path d="M340.5 20a10 10 0 0 1 10 10v53a10 10 0 0 0 10 10" /><path d="M97.0 93h20" /><g>
<path d="M117.0 93h0.0" /><path d="M340.5 93h0.0" /><g class="terminal ">
<rect data-text="=&amp;gt;" fill="hsl(120, 100%, 90%)" height="22" stroke="black" stroke-width="3" width="62.5" x="117" y="82"></rect><text text-anchor="middle" x="148.25" y="97">=&amp;gt;</text></g><path d="M179.5 93h10" /><g>
<path d="M189.5 93h0.0" /><path d="M340.5 93h0.0" /><path d="M189.5 93a10 10 0 0 0 10 -10v-22a10 10 0 0 1 10 -10" /><g>
<path d="M209.5 51h37.0" /><path d="M283.5 51h37.0" /><g class="terminal ">
<rect data-text="id" fill="hsl(120, 100%, 90%)" height="22" stroke="black" stroke-width="3" width="37" x="246.5" y="40"></rect><text text-anchor="middle" x="265" y="55">id</text></g></g><path d="M320.5 51a10 10 0 0 1 10 10v22a10 10 0 0 0 10 10" /><path d="M189.5 93h20" /><g>
<path d="M209.5 93h0.0" /><path d="M320.5 93h0.0" /><g class="terminal ">
<rect data-text="=&amp;gt;" fill="hsl(120, 100%, 90%)" height="22" stroke="black" stroke-width="3" width="62.5" x="209.5" y="82"></rect><text text-anchor="middle" x="240.75" y="97">=&amp;gt;</text></g><path d="M272.0 93h10" /><path d="M282.0 93h10" /><g class="terminal ">
<rect data-text="_" fill="hsl(120, 100%, 90%)" height="22" stroke="black" stroke-width="3" width="28.5" x="292" y="82"></rect><text text-anchor="middle" x="306.25" y="97">_</text></g></g><path d="M320.5 93h20" /></g></g><path d="M340.5 93h20" /></g></g><path d="M360.5 93h10" /><path d="M 370.5 93 h 20 m -10 -10 v 20 m 10 -20 v 20"></path></g><style>/* <![CDATA[ */
	svg.railroad-diagram {
		background-color:hsl(30,20%,95%);
	}
	svg.railroad-diagram path {
		stroke-width:3;
		stroke:black;
		fill:rgba(0,0,0,0);
	}
	svg.railroad-diagram text {
		font:bold 14px monospace;
		text-anchor:middle;
	}
	svg.railroad-diagram text.label{
		text-anchor:start;
	}
	svg.railroad-diagram text.comment{
		font:italic 12px monospace;
	}
	svg.railroad-diagram rect{
		stroke-width:3;
		stroke:black;
		fill:hsl(120,100%,90%);
	}
	svg.railroad-diagram rect.group-box {
		stroke: gray;
		stroke-dasharray: 10 5;
		fill: none;
	}

/* ]]> */
</style></svg>