<svg class="railroad-diagram" height="146" viewBox="0 0 444.0 146" width="444.0" xmlns="http://www.w3.org/2000/svg" xmlns:xlink="http://www.w3.org/1999/xlink">
<g transform="translate(.5 .5)">
<g>
<path d="M20 63v20m10 -20v20m-10 -10h20" /></g><path d="M40 73h10" /><g>
<path d="M50 73h0.0" /><path d="M394.0 73h0.0" /><g>
<path d="M50.0 73h0.0" /><path d="M394.0 73h0.0" /><g class="terminal ">
<rect data-text="StableId" fill="hsl(120, 100%, 90%)" height="22" stroke="black" stroke-width="3" width="88" x="50" y="62"></rect><text text-anchor="middle" x="94" y="77">StableId</text></g><path d="M138.0 73h10" /><path d="M148.0 73h10" /><g class="terminal ">
<rect data-text="." fill="hsl(120, 100%, 90%)" height="22" stroke="black" stroke-width="3" width="28.5" x="158" y="62"></rect><text text-anchor="middle" x="172.25" y="77">.</text></g><path d="M186.5 73h10" /><path d="M196.5 73h10" /><g>
<path d="M206.5 73h0.0" /><path d="M394.0 73h0.0" /><g>
<path d="M206.5 73h0.0" /><path d="M394.0 73h0.0" /><path d="M206.5 73a10 10 0 0 0 10 -10v-22a10 10 0 0 1 10 -10" /><g>
<path d="M226.5 31h55.25" /><path d="M318.75 31h55.25" /><g class="terminal ">
<rect data-text="id" fill="hsl(120, 100%, 90%)" height="22" stroke="black" stroke-width="3" width="37" x="281.75" y="20"></rect><text text-anchor="middle" x="300.25" y="35">id</text></g></g><path d="M374.0 31a10 10 0 0 1 10 10v22a10 10 0 0 0 10 10" /><path d="M206.5 73h20" /><g>
<path d="M226.5 73h59.5" /><path d="M314.5 73h59.5" /><g class="terminal ">
<rect data-text="_" fill="hsl(120, 100%, 90%)" height="22" stroke="black" stroke-width="3" width="28.5" x="286" y="62"></rect><text text-anchor="middle" x="300.25" y="77">_</text></g></g><path d="M374.0 73h20" /><path d="M206.5 73a10 10 0 0 1 10 10v22a10 10 0 0 0 10 10" /><g>
<path d="M226.5 115h0.0" /><path d="M374.0 115h0.0" /><g class="terminal ">
<rect data-text="ImportSelectors" fill="hsl(120, 100%, 90%)" height="22" stroke="black" stroke-width="3" width="147.5" x="226.5" y="104"></rect><text text-anchor="middle" x="300.25" y="119">ImportSelectors</text></g></g><path d="M374.0 115a10 10 0 0 0 10 -10v-22a10 10 0 0 1 10 -10" /></g></g></g></g><path d="M394.0 73h10" /><path d="M 404.0 73 h 20 m -10 -10 v 20 m 10 -20 v 20"></path></g><style>/* <![CDATA[ */
	svg.railroad-diagram {
		background-color:hsl(30,20%,95%);
	}
	svg.railroad-diagram path {
		stroke-width:3;
		stroke:black;
		fill:rgba(0,0,0,0);
	}
	svg.railroad-diagram text {
		font:bold 14px monospace;
		text-anchor:middle;
	}
	svg.railroad-diagram text.label{
		text-anchor:start;
	}
	svg.railroad-diagram text.comment{
		font:italic 12px monospace;
	}
	svg.railroad-diagram rect{
		stroke-width:3;
		stroke:black;
		fill:hsl(120,100%,90%);
	}
	svg.railroad-diagram rect.group-box {
		stroke: gray;
		stroke-dasharray: 10 5;
		fill: none;
	}

/* ]]> */
</style></svg>