<svg class="railroad-diagram" height="82" viewBox="0 0 569.5 82" width="569.5" xmlns="http://www.w3.org/2000/svg" xmlns:xlink="http://www.w3.org/1999/xlink">
<g transform="translate(.5 .5)">
<g>
<path d="M20 41v20m10 -20v20m-10 -10h20" /></g><path d="M40 51h10" /><g>
<path d="M50 51h0.0" /><path d="M519.5 51h0.0" /><g class="terminal ">
<rect data-text="package" fill="hsl(120, 100%, 90%)" height="22" stroke="black" stroke-width="3" width="79.5" x="50" y="40"></rect><text text-anchor="middle" x="89.75" y="55">package</text></g><path d="M129.5 51h10" /><path d="M139.5 51h10" /><g class="terminal ">
<rect data-text="QualId" fill="hsl(120, 100%, 90%)" height="22" stroke="black" stroke-width="3" width="71" x="149.5" y="40"></rect><text text-anchor="middle" x="185" y="55">QualId</text></g><path d="M220.5 51h10" /><g>
<path d="M230.5 51h0.0" /><path d="M307.5 51h0.0" /><path d="M230.5 51a10 10 0 0 0 10 -10v-11a10 10 0 0 1 10 -10" /><g>
<path d="M250.5 20h37.0" /></g><path d="M287.5 20a10 10 0 0 1 10 10v11a10 10 0 0 0 10 10" /><path d="M230.5 51h20" /><g class="terminal ">
<rect data-text="nl" fill="hsl(120, 100%, 90%)" height="22" stroke="black" stroke-width="3" width="37" x="250.5" y="40"></rect><text text-anchor="middle" x="269" y="55">nl</text></g><path d="M287.5 51h20" /></g><path d="M307.5 51h10" /><g class="terminal ">
<rect data-text="{" fill="hsl(120, 100%, 90%)" height="22" stroke="black" stroke-width="3" width="28.5" x="317.5" y="40"></rect><text text-anchor="middle" x="331.75" y="55">{</text></g><path d="M346.0 51h10" /><path d="M356.0 51h10" /><g class="terminal ">
<rect data-text="TopStatSeq" fill="hsl(120, 100%, 90%)" height="22" stroke="black" stroke-width="3" width="105" x="366" y="40"></rect><text text-anchor="middle" x="418.5" y="55">TopStatSeq</text></g><path d="M471.0 51h10" /><path d="M481.0 51h10" /><g class="terminal ">
<rect data-text="}" fill="hsl(120, 100%, 90%)" height="22" stroke="black" stroke-width="3" width="28.5" x="491" y="40"></rect><text text-anchor="middle" x="505.25" y="55">}</text></g></g><path d="M519.5 51h10" /><path d="M 529.5 51 h 20 m -10 -10 v 20 m 10 -20 v 20"></path></g><style>/* <![CDATA[ */
	svg.railroad-diagram {
		background-color:hsl(30,20%,95%);
	}
	svg.railroad-diagram path {
		stroke-width:3;
		stroke:black;
		fill:rgba(0,0,0,0);
	}
	svg.railroad-diagram text {
		font:bold 14px monospace;
		text-anchor:middle;
	}
	svg.railroad-diagram text.label{
		text-anchor:start;
	}
	svg.railroad-diagram text.comment{
		font:italic 12px monospace;
	}
	svg.railroad-diagram rect{
		stroke-width:3;
		stroke:black;
		fill:hsl(120,100%,90%);
	}
	svg.railroad-diagram rect.group-box {
		stroke: gray;
		stroke-dasharray: 10 5;
		fill: none;
	}

/* ]]> */
</style></svg>