<svg class="railroad-diagram" height="62" viewBox="0 0 387.0 62" width="387.0" xmlns="http://www.w3.org/2000/svg" xmlns:xlink="http://www.w3.org/1999/xlink">
<g transform="translate(.5 .5)">
<g>
<path d="M20 21v20m10 -20v20m-10 -10h20" /></g><path d="M40 31h10" /><g>
<path d="M50 31h0.0" /><path d="M337.0 31h0.0" /><g class="terminal ">
<rect data-text="package" fill="hsl(120, 100%, 90%)" height="22" stroke="black" stroke-width="3" width="79.5" x="50" y="20"></rect><text text-anchor="middle" x="89.75" y="35">package</text></g><path d="M129.5 31h10" /><path d="M139.5 31h10" /><g class="terminal ">
<rect data-text="object" fill="hsl(120, 100%, 90%)" height="22" stroke="black" stroke-width="3" width="71" x="149.5" y="20"></rect><text text-anchor="middle" x="185" y="35">object</text></g><path d="M220.5 31h10" /><path d="M230.5 31h10" /><g class="terminal ">
<rect data-text="ObjectDef" fill="hsl(120, 100%, 90%)" height="22" stroke="black" stroke-width="3" width="96.5" x="240.5" y="20"></rect><text text-anchor="middle" x="288.75" y="35">ObjectDef</text></g></g><path d="M337.0 31h10" /><path d="M 347.0 31 h 20 m -10 -10 v 20 m 10 -20 v 20"></path></g><style>/* <![CDATA[ */
	svg.railroad-diagram {
		background-color:hsl(30,20%,95%);
	}
	svg.railroad-diagram path {
		stroke-width:3;
		stroke:black;
		fill:rgba(0,0,0,0);
	}
	svg.railroad-diagram text {
		font:bold 14px monospace;
		text-anchor:middle;
	}
	svg.railroad-diagram text.label{
		text-anchor:start;
	}
	svg.railroad-diagram text.comment{
		font:italic 12px monospace;
	}
	svg.railroad-diagram rect{
		stroke-width:3;
		stroke:black;
		fill:hsl(120,100%,90%);
	}
	svg.railroad-diagram rect.group-box {
		stroke: gray;
		stroke-dasharray: 10 5;
		fill: none;
	}

/* ]]> */
</style></svg>