<svg class="railroad-diagram" height="102" viewBox="0 0 649.5 102" width="649.5" xmlns="http://www.w3.org/2000/svg" xmlns:xlink="http://www.w3.org/1999/xlink">
<g transform="translate(.5 .5)">
<g>
<path d="M20 41v20m10 -20v20m-10 -10h20" /></g><path d="M40 51h10" /><g>
<path d="M50 51h0.0" /><path d="M599.5 51h0.0" /><g>
<path d="M50.0 51h0.0" /><path d="M215.0 51h0.0" /><path d="M50.0 51a10 10 0 0 0 10 -10v-11a10 10 0 0 1 10 -10" /><g>
<path d="M70.0 20h125.0" /></g><path d="M195.0 20a10 10 0 0 1 10 10v11a10 10 0 0 0 10 10" /><path d="M50.0 51h20" /><g>
<path d="M70.0 51h0.0" /><path d="M195.0 51h0.0" /><path d="M70.0 51h10" /><g class="terminal ">
<rect data-text="Annotation" fill="hsl(120, 100%, 90%)" height="22" stroke="black" stroke-width="3" width="105" x="80" y="40"></rect><text text-anchor="middle" x="132.5" y="55">Annotation</text></g><path d="M185.0 51h10" /><path d="M80.0 51a10 10 0 0 0 -10 10v11a10 10 0 0 0 10 10" /><g>
<path d="M80.0 82h105.0" /></g><path d="M185.0 82a10 10 0 0 0 10 -10v-11a10 10 0 0 0 -10 -10" /></g><path d="M195.0 51h20" /></g><path d="M215.0 51h10" /><g class="terminal ">
<rect data-text="id" fill="hsl(120, 100%, 90%)" height="22" stroke="black" stroke-width="3" width="37" x="225" y="40"></rect><text text-anchor="middle" x="243.5" y="55">id</text></g><path d="M262.0 51h10" /><g>
<path d="M272.0 51h0.0" /><path d="M457.0 51h0.0" /><path d="M272.0 51a10 10 0 0 0 10 -10v-11a10 10 0 0 1 10 -10" /><g>
<path d="M292.0 20h145.0" /></g><path d="M437.0 20a10 10 0 0 1 10 10v11a10 10 0 0 0 10 10" /><path d="M272.0 51h20" /><g>
<path d="M292.0 51h0.0" /><path d="M437.0 51h0.0" /><g class="terminal ">
<rect data-text=":" fill="hsl(120, 100%, 90%)" height="22" stroke="black" stroke-width="3" width="28.5" x="292" y="40"></rect><text text-anchor="middle" x="306.25" y="55">:</text></g><path d="M320.5 51h10" /><path d="M330.5 51h10" /><g class="terminal ">
<rect data-text="ParamType" fill="hsl(120, 100%, 90%)" height="22" stroke="black" stroke-width="3" width="96.5" x="340.5" y="40"></rect><text text-anchor="middle" x="388.75" y="55">ParamType</text></g></g><path d="M437.0 51h20" /></g><g>
<path d="M457.0 51h0.0" /><path d="M599.5 51h0.0" /><path d="M457.0 51a10 10 0 0 0 10 -10v-11a10 10 0 0 1 10 -10" /><g>
<path d="M477.0 20h102.5" /></g><path d="M579.5 20a10 10 0 0 1 10 10v11a10 10 0 0 0 10 10" /><path d="M457.0 51h20" /><g>
<path d="M477.0 51h0.0" /><path d="M579.5 51h0.0" /><g class="terminal ">
<rect data-text="=" fill="hsl(120, 100%, 90%)" height="22" stroke="black" stroke-width="3" width="28.5" x="477" y="40"></rect><text text-anchor="middle" x="491.25" y="55">=</text></g><path d="M505.5 51h10" /><path d="M515.5 51h10" /><g class="terminal ">
<rect data-text="Expr" fill="hsl(120, 100%, 90%)" height="22" stroke="black" stroke-width="3" width="54" x="525.5" y="40"></rect><text text-anchor="middle" x="552.5" y="55">Expr</text></g></g><path d="M579.5 51h20" /></g></g><path d="M599.5 51h10" /><path d="M 609.5 51 h 20 m -10 -10 v 20 m 10 -20 v 20"></path></g><style>/* <![CDATA[ */
	svg.railroad-diagram {
		background-color:hsl(30,20%,95%);
	}
	svg.railroad-diagram path {
		stroke-width:3;
		stroke:black;
		fill:rgba(0,0,0,0);
	}
	svg.railroad-diagram text {
		font:bold 14px monospace;
		text-anchor:middle;
	}
	svg.railroad-diagram text.label{
		text-anchor:start;
	}
	svg.railroad-diagram text.comment{
		font:italic 12px monospace;
	}
	svg.railroad-diagram rect{
		stroke-width:3;
		stroke:black;
		fill:hsl(120,100%,90%);
	}
	svg.railroad-diagram rect.group-box {
		stroke: gray;
		stroke-dasharray: 10 5;
		fill: none;
	}

/* ]]> */
</style></svg>