<svg class="railroad-diagram" height="104" viewBox="0 0 335.0 104" width="335.0" xmlns="http://www.w3.org/2000/svg" xmlns:xlink="http://www.w3.org/1999/xlink">
<g transform="translate(.5 .5)">
<g>
<path d="M20 63v20m10 -20v20m-10 -10h20" /></g><path d="M40 73h10" /><g>
<path d="M50 73h0.0" /><path d="M285.0 73h0.0" /><g>
<path d="M50.0 73h0.0" /><path d="M285.0 73h0.0" /><g>
<path d="M50.0 73h0.0" /><path d="M152.5 73h0.0" /><path d="M50.0 73a10 10 0 0 0 10 -10v-22a10 10 0 0 1 10 -10" /><g>
<path d="M70.0 31h4.25" /><path d="M128.25 31h4.25" /><g class="terminal ">
<rect data-text="Type" fill="hsl(120, 100%, 90%)" height="22" stroke="black" stroke-width="3" width="54" x="74.25" y="20"></rect><text text-anchor="middle" x="101.25" y="35">Type</text></g></g><path d="M132.5 31a10 10 0 0 1 10 10v22a10 10 0 0 0 10 10" /><path d="M50.0 73h20" /><g>
<path d="M70.0 73h0.0" /><path d="M132.5 73h0.0" /><g class="terminal ">
<rect data-text="=&amp;gt;" fill="hsl(120, 100%, 90%)" height="22" stroke="black" stroke-width="3" width="62.5" x="70" y="62"></rect><text text-anchor="middle" x="101.25" y="77">=&amp;gt;</text></g></g><path d="M132.5 73h20" /></g><g>
<path d="M152.5 73h0.0" /><path d="M246.5 73h0.0" /><path d="M152.5 73a10 10 0 0 0 10 -10v-22a10 10 0 0 1 10 -10" /><g>
<path d="M172.5 31h0.0" /><path d="M226.5 31h0.0" /><g class="terminal ">
<rect data-text="Type" fill="hsl(120, 100%, 90%)" height="22" stroke="black" stroke-width="3" width="54" x="172.5" y="20"></rect><text text-anchor="middle" x="199.5" y="35">Type</text></g></g><path d="M226.5 31a10 10 0 0 1 10 10v22a10 10 0 0 0 10 10" /><path d="M152.5 73h20" /><g>
<path d="M172.5 73h0.0" /><path d="M226.5 73h0.0" /><g class="terminal ">
<rect data-text="Type" fill="hsl(120, 100%, 90%)" height="22" stroke="black" stroke-width="3" width="54" x="172.5" y="62"></rect><text text-anchor="middle" x="199.5" y="77">Type</text></g></g><path d="M226.5 73h20" /></g><path d="M246.5 73h10" /><g class="terminal ">
<rect data-text="*" fill="hsl(120, 100%, 90%)" height="22" stroke="black" stroke-width="3" width="28.5" x="256.5" y="62"></rect><text text-anchor="middle" x="270.75" y="77">*</text></g></g></g><path d="M285.0 73h10" /><path d="M 295.0 73 h 20 m -10 -10 v 20 m 10 -20 v 20"></path></g><style>/* <![CDATA[ */
	svg.railroad-diagram {
		background-color:hsl(30,20%,95%);
	}
	svg.railroad-diagram path {
		stroke-width:3;
		stroke:black;
		fill:rgba(0,0,0,0);
	}
	svg.railroad-diagram text {
		font:bold 14px monospace;
		text-anchor:middle;
	}
	svg.railroad-diagram text.label{
		text-anchor:start;
	}
	svg.railroad-diagram text.comment{
		font:italic 12px monospace;
	}
	svg.railroad-diagram rect{
		stroke-width:3;
		stroke:black;
		fill:hsl(120,100%,90%);
	}
	svg.railroad-diagram rect.group-box {
		stroke: gray;
		stroke-dasharray: 10 5;
		fill: none;
	}

/* ]]> */
</style></svg>