<svg class="railroad-diagram" height="124" viewBox="0 0 329.5 124" width="329.5" xmlns="http://www.w3.org/2000/svg" xmlns:xlink="http://www.w3.org/1999/xlink">
<g transform="translate(.5 .5)">
<g>
<path d="M20 83v20m10 -20v20m-10 -10h20" /></g><path d="M40 93h10" /><g>
<path d="M50 93h0.0" /><path d="M279.5 93h0.0" /><g>
<path d="M50.0 93h0.0" /><path d="M279.5 93h0.0" /><g>
<path d="M50.0 93h0.0" /><path d="M279.5 93h0.0" /><path d="M50.0 93a10 10 0 0 0 10 -10v-42a10 10 0 0 1 10 -10" /><g>
<path d="M70.0 31h50.75" /><path d="M208.75 31h50.75" /><g class="terminal ">
<rect data-text="StableId" fill="hsl(120, 100%, 90%)" height="22" stroke="black" stroke-width="3" width="88" x="120.75" y="20"></rect><text text-anchor="middle" x="164.75" y="35">StableId</text></g></g><path d="M259.5 31a10 10 0 0 1 10 10v42a10 10 0 0 0 10 10" /><path d="M50.0 93h20" /><g>
<path d="M70.0 93h0.0" /><path d="M259.5 93h0.0" /><g>
<path d="M70.0 93h0.0" /><path d="M195.5 93h0.0" /><path d="M70.0 93a10 10 0 0 0 10 -10v-11a10 10 0 0 1 10 -10" /><g>
<path d="M90.0 62h85.5" /></g><path d="M175.5 62a10 10 0 0 1 10 10v11a10 10 0 0 0 10 10" /><path d="M70.0 93h20" /><g>
<path d="M90.0 93h0.0" /><path d="M175.5 93h0.0" /><g class="terminal ">
<rect data-text="id" fill="hsl(120, 100%, 90%)" height="22" stroke="black" stroke-width="3" width="37" x="90" y="82"></rect><text text-anchor="middle" x="108.5" y="97">id</text></g><path d="M127.0 93h10" /><path d="M137.0 93h10" /><g class="terminal ">
<rect data-text="." fill="hsl(120, 100%, 90%)" height="22" stroke="black" stroke-width="3" width="28.5" x="147" y="82"></rect><text text-anchor="middle" x="161.25" y="97">.</text></g></g><path d="M175.5 93h20" /></g><path d="M195.5 93h10" /><g class="terminal ">
<rect data-text="this" fill="hsl(120, 100%, 90%)" height="22" stroke="black" stroke-width="3" width="54" x="205.5" y="82"></rect><text text-anchor="middle" x="232.5" y="97">this</text></g></g><path d="M259.5 93h20" /></g></g></g><path d="M279.5 93h10" /><path d="M 289.5 93 h 20 m -10 -10 v 20 m 10 -20 v 20"></path></g><style>/* <![CDATA[ */
	svg.railroad-diagram {
		background-color:hsl(30,20%,95%);
	}
	svg.railroad-diagram path {
		stroke-width:3;
		stroke:black;
		fill:rgba(0,0,0,0);
	}
	svg.railroad-diagram text {
		font:bold 14px monospace;
		text-anchor:middle;
	}
	svg.railroad-diagram text.label{
		text-anchor:start;
	}
	svg.railroad-diagram text.comment{
		font:italic 12px monospace;
	}
	svg.railroad-diagram rect{
		stroke-width:3;
		stroke:black;
		fill:hsl(120,100%,90%);
	}
	svg.railroad-diagram rect.group-box {
		stroke: gray;
		stroke-dasharray: 10 5;
		fill: none;
	}

/* ]]> */
</style></svg>