<svg class="railroad-diagram" height="208" viewBox="0 0 323.5 208" width="323.5" xmlns="http://www.w3.org/2000/svg" xmlns:xlink="http://www.w3.org/1999/xlink">
<g transform="translate(.5 .5)">
<g>
<path d="M20 125v20m10 -20v20m-10 -10h20" /></g><path d="M40 135h10" /><g>
<path d="M50 135h0.0" /><path d="M273.5 135h0.0" /><g>
<path d="M50.0 135h0.0" /><path d="M158.5 135h0.0" /><path d="M50.0 135a10 10 0 0 0 10 -10v-95a10 10 0 0 1 10 -10" /><g>
<path d="M70.0 20h68.5" /></g><path d="M138.5 20a10 10 0 0 1 10 10v95a10 10 0 0 0 10 10" /><path d="M50.0 135h20" /><g>
<path d="M70.0 135h0.0" /><path d="M138.5 135h0.0" /><g>
<path d="M70.0 135h0.0" /><path d="M138.5 135h0.0" /><path d="M70.0 135a10 10 0 0 0 10 -10v-22a10 10 0 0 1 10 -10" /><g>
<path d="M90.0 93h0.0" /><path d="M118.5 93h0.0" /><g class="terminal ">
<rect data-text="+" fill="hsl(120, 100%, 90%)" height="22" stroke="black" stroke-width="3" width="28.5" x="90" y="82"></rect><text text-anchor="middle" x="104.25" y="97">+</text></g></g><path d="M118.5 93a10 10 0 0 1 10 10v22a10 10 0 0 0 10 10" /><path d="M70.0 135a10 10 0 0 0 10 -10v-64a10 10 0 0 1 10 -10" /><g>
<path d="M90.0 51h0.0" /><path d="M118.5 51h0.0" /><g class="terminal ">
<rect data-text="-" fill="hsl(120, 100%, 90%)" height="22" stroke="black" stroke-width="3" width="28.5" x="90" y="40"></rect><text text-anchor="middle" x="104.25" y="55">-</text></g></g><path d="M118.5 51a10 10 0 0 1 10 10v64a10 10 0 0 0 10 10" /><path d="M70.0 135h20" /><g>
<path d="M90.0 135h0.0" /><path d="M118.5 135h0.0" /><g class="terminal ">
<rect data-text="~" fill="hsl(120, 100%, 90%)" height="22" stroke="black" stroke-width="3" width="28.5" x="90" y="124"></rect><text text-anchor="middle" x="104.25" y="139">~</text></g></g><path d="M118.5 135h20" /><path d="M70.0 135a10 10 0 0 1 10 10v22a10 10 0 0 0 10 10" /><g>
<path d="M90.0 177h0.0" /><path d="M118.5 177h0.0" /><g class="terminal ">
<rect data-text="!" fill="hsl(120, 100%, 90%)" height="22" stroke="black" stroke-width="3" width="28.5" x="90" y="166"></rect><text text-anchor="middle" x="104.25" y="181">!</text></g></g><path d="M118.5 177a10 10 0 0 0 10 -10v-22a10 10 0 0 1 10 -10" /></g></g><path d="M138.5 135h20" /></g><path d="M158.5 135h10" /><g class="terminal ">
<rect data-text="SimpleExpr" fill="hsl(120, 100%, 90%)" height="22" stroke="black" stroke-width="3" width="105" x="168.5" y="124"></rect><text text-anchor="middle" x="221" y="139">SimpleExpr</text></g></g><path d="M273.5 135h10" /><path d="M 283.5 135 h 20 m -10 -10 v 20 m 10 -20 v 20"></path></g><style>/* <![CDATA[ */
	svg.railroad-diagram {
		background-color:hsl(30,20%,95%);
	}
	svg.railroad-diagram path {
		stroke-width:3;
		stroke:black;
		fill:rgba(0,0,0,0);
	}
	svg.railroad-diagram text {
		font:bold 14px monospace;
		text-anchor:middle;
	}
	svg.railroad-diagram text.label{
		text-anchor:start;
	}
	svg.railroad-diagram text.comment{
		font:italic 12px monospace;
	}
	svg.railroad-diagram rect{
		stroke-width:3;
		stroke:black;
		fill:hsl(120,100%,90%);
	}
	svg.railroad-diagram rect.group-box {
		stroke: gray;
		stroke-dasharray: 10 5;
		fill: none;
	}

/* ]]> */
</style></svg>