<svg class="railroad-diagram" height="102" viewBox="0 0 648.0 102" width="648.0" xmlns="http://www.w3.org/2000/svg" xmlns:xlink="http://www.w3.org/1999/xlink">
<g transform="translate(.5 .5)">
<g>
<path d="M20 41v20m10 -20v20m-10 -10h20" /></g><path d="M40 51h10" /><g>
<path d="M50 51h0.0" /><path d="M598.0 51h0.0" /><g>
<path d="M50.0 51h0.0" /><path d="M127.0 51h0.0" /><path d="M50.0 51a10 10 0 0 0 10 -10v-11a10 10 0 0 1 10 -10" /><g>
<path d="M70.0 20h37.0" /></g><path d="M107.0 20a10 10 0 0 1 10 10v11a10 10 0 0 0 10 10" /><path d="M50.0 51h20" /><g class="terminal ">
<rect data-text="nl" fill="hsl(120, 100%, 90%)" height="22" stroke="black" stroke-width="3" width="37" x="70" y="40"></rect><text text-anchor="middle" x="88.5" y="55">nl</text></g><path d="M107.0 51h20" /></g><path d="M127.0 51h10" /><g class="terminal ">
<rect data-text="{" fill="hsl(120, 100%, 90%)" height="22" stroke="black" stroke-width="3" width="28.5" x="137" y="40"></rect><text text-anchor="middle" x="151.25" y="55">{</text></g><path d="M165.5 51h10" /><g>
<path d="M175.5 51h0.0" /><path d="M320.5 51h0.0" /><path d="M175.5 51a10 10 0 0 0 10 -10v-11a10 10 0 0 1 10 -10" /><g>
<path d="M195.5 20h105.0" /></g><path d="M300.5 20a10 10 0 0 1 10 10v11a10 10 0 0 0 10 10" /><path d="M175.5 51h20" /><g class="terminal ">
<rect data-text="RefineStat" fill="hsl(120, 100%, 90%)" height="22" stroke="black" stroke-width="3" width="105" x="195.5" y="40"></rect><text text-anchor="middle" x="248" y="55">RefineStat</text></g><path d="M300.5 51h20" /></g><g>
<path d="M320.5 51h0.0" /><path d="M559.5 51h0.0" /><path d="M320.5 51a10 10 0 0 0 10 -10v-11a10 10 0 0 1 10 -10" /><g>
<path d="M340.5 20h199.0" /></g><path d="M539.5 20a10 10 0 0 1 10 10v11a10 10 0 0 0 10 10" /><path d="M320.5 51h20" /><g>
<path d="M340.5 51h0.0" /><path d="M539.5 51h0.0" /><path d="M340.5 51h10" /><g>
<path d="M350.5 51h0.0" /><path d="M529.5 51h0.0" /><g class="terminal ">
<rect data-text="semi" fill="hsl(120, 100%, 90%)" height="22" stroke="black" stroke-width="3" width="54" x="350.5" y="40"></rect><text text-anchor="middle" x="377.5" y="55">semi</text></g><path d="M404.5 51h10" /><path d="M414.5 51h10" /><g class="terminal ">
<rect data-text="RefineStat" fill="hsl(120, 100%, 90%)" height="22" stroke="black" stroke-width="3" width="105" x="424.5" y="40"></rect><text text-anchor="middle" x="477" y="55">RefineStat</text></g></g><path d="M529.5 51h10" /><path d="M350.5 51a10 10 0 0 0 -10 10v11a10 10 0 0 0 10 10" /><g>
<path d="M350.5 82h179.0" /></g><path d="M529.5 82a10 10 0 0 0 10 -10v-11a10 10 0 0 0 -10 -10" /></g><path d="M539.5 51h20" /></g><path d="M559.5 51h10" /><g class="terminal ">
<rect data-text="}" fill="hsl(120, 100%, 90%)" height="22" stroke="black" stroke-width="3" width="28.5" x="569.5" y="40"></rect><text text-anchor="middle" x="583.75" y="55">}</text></g></g><path d="M598.0 51h10" /><path d="M 608.0 51 h 20 m -10 -10 v 20 m 10 -20 v 20"></path></g><style>/* <![CDATA[ */
	svg.railroad-diagram {
		background-color:hsl(30,20%,95%);
	}
	svg.railroad-diagram path {
		stroke-width:3;
		stroke:black;
		fill:rgba(0,0,0,0);
	}
	svg.railroad-diagram text {
		font:bold 14px monospace;
		text-anchor:middle;
	}
	svg.railroad-diagram text.label{
		text-anchor:start;
	}
	svg.railroad-diagram text.comment{
		font:italic 12px monospace;
	}
	svg.railroad-diagram rect{
		stroke-width:3;
		stroke:black;
		fill:hsl(120,100%,90%);
	}
	svg.railroad-diagram rect.group-box {
		stroke: gray;
		stroke-dasharray: 10 5;
		fill: none;
	}

/* ]]> */
</style></svg>