<svg class="railroad-diagram" height="102" viewBox="0 0 505.0 102" width="505.0" xmlns="http://www.w3.org/2000/svg" xmlns:xlink="http://www.w3.org/1999/xlink">
<g transform="translate(.5 .5)">
<g>
<path d="M20 41v20m10 -20v20m-10 -10h20" /></g><path d="M40 51h10" /><g>
<path d="M50 51h0.0" /><path d="M455.0 51h0.0" /><g class="terminal ">
<rect data-text="this" fill="hsl(120, 100%, 90%)" height="22" stroke="black" stroke-width="3" width="54" x="50" y="40"></rect><text text-anchor="middle" x="77" y="55">this</text></g><path d="M104.0 51h10" /><path d="M114.0 51h10" /><g class="terminal ">
<rect data-text="ArgumentExprs" fill="hsl(120, 100%, 90%)" height="22" stroke="black" stroke-width="3" width="130.5" x="124" y="40"></rect><text text-anchor="middle" x="189.25" y="55">ArgumentExprs</text></g><path d="M254.5 51h10" /><g>
<path d="M264.5 51h0.0" /><path d="M455.0 51h0.0" /><path d="M264.5 51a10 10 0 0 0 10 -10v-11a10 10 0 0 1 10 -10" /><g>
<path d="M284.5 20h150.5" /></g><path d="M435.0 20a10 10 0 0 1 10 10v11a10 10 0 0 0 10 10" /><path d="M264.5 51h20" /><g>
<path d="M284.5 51h0.0" /><path d="M435.0 51h0.0" /><path d="M284.5 51h10" /><g class="terminal ">
<rect data-text="ArgumentExprs" fill="hsl(120, 100%, 90%)" height="22" stroke="black" stroke-width="3" width="130.5" x="294.5" y="40"></rect><text text-anchor="middle" x="359.75" y="55">ArgumentExprs</text></g><path d="M425.0 51h10" /><path d="M294.5 51a10 10 0 0 0 -10 10v11a10 10 0 0 0 10 10" /><g>
<path d="M294.5 82h130.5" /></g><path d="M425.0 82a10 10 0 0 0 10 -10v-11a10 10 0 0 0 -10 -10" /></g><path d="M435.0 51h20" /></g></g><path d="M455.0 51h10" /><path d="M 465.0 51 h 20 m -10 -10 v 20 m 10 -20 v 20"></path></g><style>/* <![CDATA[ */
	svg.railroad-diagram {
		background-color:hsl(30,20%,95%);
	}
	svg.railroad-diagram path {
		stroke-width:3;
		stroke:black;
		fill:rgba(0,0,0,0);
	}
	svg.railroad-diagram text {
		font:bold 14px monospace;
		text-anchor:middle;
	}
	svg.railroad-diagram text.label{
		text-anchor:start;
	}
	svg.railroad-diagram text.comment{
		font:italic 12px monospace;
	}
	svg.railroad-diagram rect{
		stroke-width:3;
		stroke:black;
		fill:hsl(120,100%,90%);
	}
	svg.railroad-diagram rect.group-box {
		stroke: gray;
		stroke-dasharray: 10 5;
		fill: none;
	}

/* ]]> */
</style></svg>