<svg class="railroad-diagram" height="230" viewBox="0 0 586.5 230" width="586.5" xmlns="http://www.w3.org/2000/svg" xmlns:xlink="http://www.w3.org/1999/xlink">
<g transform="translate(.5 .5)">
<g>
<path d="M20 105v20m10 -20v20m-10 -10h20" /></g><path d="M40 115h10" /><g>
<path d="M50 115h0.0" /><path d="M536.5 115h0.0" /><g class="terminal ">
<rect data-text="SimpleType" fill="hsl(120, 100%, 90%)" height="22" stroke="black" stroke-width="3" width="105" x="50" y="104"></rect><text text-anchor="middle" x="102.5" y="119">SimpleType</text></g><path d="M155.0 115h10" /><g>
<path d="M165.0 115h0.0" /><path d="M415.5 115h0.0" /><path d="M165.0 115a10 10 0 0 0 10 -10v-22a10 10 0 0 1 10 -10" /><g>
<path d="M185.0 73h0.0" /><path d="M395.5 73h0.0" /><g class="terminal ">
<rect data-text="SimpleType" fill="hsl(120, 100%, 90%)" height="22" stroke="black" stroke-width="3" width="105" x="185" y="62"></rect><text text-anchor="middle" x="237.5" y="77">SimpleType</text></g><path d="M290.0 73h10" /><path d="M300.0 73h10" /><g class="terminal ">
<rect data-text="#" fill="hsl(120, 100%, 90%)" height="22" stroke="black" stroke-width="3" width="28.5" x="310" y="62"></rect><text text-anchor="middle" x="324.25" y="77">#</text></g><path d="M338.5 73h10" /><path d="M348.5 73h10" /><g class="terminal ">
<rect data-text="id" fill="hsl(120, 100%, 90%)" height="22" stroke="black" stroke-width="3" width="37" x="358.5" y="62"></rect><text text-anchor="middle" x="377" y="77">id</text></g></g><path d="M395.5 73a10 10 0 0 1 10 10v22a10 10 0 0 0 10 10" /><path d="M165.0 115a10 10 0 0 0 10 -10v-64a10 10 0 0 1 10 -10" /><g>
<path d="M185.0 31h61.25" /><path d="M334.25 31h61.25" /><g class="terminal ">
<rect data-text="TypeArgs" fill="hsl(120, 100%, 90%)" height="22" stroke="black" stroke-width="3" width="88" x="246.25" y="20"></rect><text text-anchor="middle" x="290.25" y="35">TypeArgs</text></g></g><path d="M395.5 31a10 10 0 0 1 10 10v64a10 10 0 0 0 10 10" /><path d="M165.0 115h20" /><g>
<path d="M185.0 115h61.25" /><path d="M334.25 115h61.25" /><g class="terminal ">
<rect data-text="StableId" fill="hsl(120, 100%, 90%)" height="22" stroke="black" stroke-width="3" width="88" x="246.25" y="104"></rect><text text-anchor="middle" x="290.25" y="119">StableId</text></g></g><path d="M395.5 115h20" /><path d="M165.0 115a10 10 0 0 1 10 10v22a10 10 0 0 0 10 10" /><g>
<path d="M185.0 157h17.0" /><path d="M378.5 157h17.0" /><g class="terminal ">
<rect data-text="Path" fill="hsl(120, 100%, 90%)" height="22" stroke="black" stroke-width="3" width="54" x="202" y="146"></rect><text text-anchor="middle" x="229" y="161">Path</text></g><path d="M256.0 157h10" /><path d="M266.0 157h10" /><g class="terminal ">
<rect data-text="." fill="hsl(120, 100%, 90%)" height="22" stroke="black" stroke-width="3" width="28.5" x="276" y="146"></rect><text text-anchor="middle" x="290.25" y="161">.</text></g><path d="M304.5 157h10" /><path d="M314.5 157h10" /><g class="terminal ">
<rect data-text="type" fill="hsl(120, 100%, 90%)" height="22" stroke="black" stroke-width="3" width="54" x="324.5" y="146"></rect><text text-anchor="middle" x="351.5" y="161">type</text></g></g><path d="M395.5 157a10 10 0 0 0 10 -10v-22a10 10 0 0 1 10 -10" /><path d="M165.0 115a10 10 0 0 1 10 10v64a10 10 0 0 0 10 10" /><g>
<path d="M185.0 199h91.0" /><path d="M304.5 199h91.0" /><g class="terminal ">
<rect data-text="(" fill="hsl(120, 100%, 90%)" height="22" stroke="black" stroke-width="3" width="28.5" x="276" y="188"></rect><text text-anchor="middle" x="290.25" y="203">(</text></g></g><path d="M395.5 199a10 10 0 0 0 10 -10v-64a10 10 0 0 1 10 -10" /></g><path d="M415.5 115h10" /><g class="terminal ">
<rect data-text="Types" fill="hsl(120, 100%, 90%)" height="22" stroke="black" stroke-width="3" width="62.5" x="425.5" y="104"></rect><text text-anchor="middle" x="456.75" y="119">Types</text></g><path d="M488.0 115h10" /><path d="M498.0 115h10" /><g class="terminal ">
<rect data-text=")" fill="hsl(120, 100%, 90%)" height="22" stroke="black" stroke-width="3" width="28.5" x="508" y="104"></rect><text text-anchor="middle" x="522.25" y="119">)</text></g></g><path d="M536.5 115h10" /><path d="M 546.5 115 h 20 m -10 -10 v 20 m 10 -20 v 20"></path></g><style>/* <![CDATA[ */
	svg.railroad-diagram {
		background-color:hsl(30,20%,95%);
	}
	svg.railroad-diagram path {
		stroke-width:3;
		stroke:black;
		fill:rgba(0,0,0,0);
	}
	svg.railroad-diagram text {
		font:bold 14px monospace;
		text-anchor:middle;
	}
	svg.railroad-diagram text.label{
		text-anchor:start;
	}
	svg.railroad-diagram text.comment{
		font:italic 12px monospace;
	}
	svg.railroad-diagram rect{
		stroke-width:3;
		stroke:black;
		fill:hsl(120,100%,90%);
	}
	svg.railroad-diagram rect.group-box {
		stroke: gray;
		stroke-dasharray: 10 5;
		fill: none;
	}

/* ]]> */
</style></svg>