<svg class="railroad-diagram" height="188" viewBox="0 0 540.0 188" width="540.0" xmlns="http://www.w3.org/2000/svg" xmlns:xlink="http://www.w3.org/1999/xlink">
<g transform="translate(.5 .5)">
<g>
<path d="M20 105v20m10 -20v20m-10 -10h20" /></g><path d="M40 115h10" /><g>
<path d="M50 115h0.0" /><path d="M490.0 115h0.0" /><g class="terminal ">
<rect data-text="new" fill="hsl(120, 100%, 90%)" height="22" stroke="black" stroke-width="3" width="45.5" x="50" y="104"></rect><text text-anchor="middle" x="72.75" y="119">new</text></g><path d="M95.5 115h10" /><g>
<path d="M105.5 115h0.0" /><path d="M316.0 115h0.0" /><path d="M105.5 115a10 10 0 0 0 10 -10v-22a10 10 0 0 1 10 -10" /><g>
<path d="M125.5 73h0.0" /><path d="M296.0 73h0.0" /><g>
<path d="M125.5 73h0.0" /><path d="M296.0 73h0.0" /><g>
<path d="M125.5 73h0.0" /><path d="M296.0 73h0.0" /><path d="M125.5 73a10 10 0 0 0 10 -10v-22a10 10 0 0 1 10 -10" /><g>
<path d="M145.5 31h0.0" /><path d="M276.0 31h0.0" /><g class="terminal ">
<rect data-text="ClassTemplate" fill="hsl(120, 100%, 90%)" height="22" stroke="black" stroke-width="3" width="130.5" x="145.5" y="20"></rect><text text-anchor="middle" x="210.75" y="35">ClassTemplate</text></g></g><path d="M276.0 31a10 10 0 0 1 10 10v22a10 10 0 0 0 10 10" /><path d="M125.5 73h20" /><g>
<path d="M145.5 73h4.25" /><path d="M271.75 73h4.25" /><g class="terminal ">
<rect data-text="TemplateBody" fill="hsl(120, 100%, 90%)" height="22" stroke="black" stroke-width="3" width="122" x="149.75" y="62"></rect><text text-anchor="middle" x="210.75" y="77">TemplateBody</text></g></g><path d="M276.0 73h20" /></g></g></g><path d="M296.0 73a10 10 0 0 1 10 10v22a10 10 0 0 0 10 10" /><path d="M105.5 115h20" /><g>
<path d="M125.5 115h37.0" /><path d="M259.0 115h37.0" /><g class="terminal ">
<rect data-text="BlockExpr" fill="hsl(120, 100%, 90%)" height="22" stroke="black" stroke-width="3" width="96.5" x="162.5" y="104"></rect><text text-anchor="middle" x="210.75" y="119">BlockExpr</text></g></g><path d="M296.0 115h20" /><path d="M105.5 115a10 10 0 0 1 10 10v22a10 10 0 0 0 10 10" /><g>
<path d="M125.5 157h32.75" /><path d="M263.25 157h32.75" /><g class="terminal ">
<rect data-text="SimpleExpr" fill="hsl(120, 100%, 90%)" height="22" stroke="black" stroke-width="3" width="105" x="158.25" y="146"></rect><text text-anchor="middle" x="210.75" y="161">SimpleExpr</text></g></g><path d="M296.0 157a10 10 0 0 0 10 -10v-22a10 10 0 0 1 10 -10" /></g><path d="M316.0 115h10" /><g class="terminal ">
<rect data-text="1 &apos;" fill="hsl(120, 100%, 90%)" height="22" stroke="black" stroke-width="3" width="45.5" x="326" y="104"></rect><text text-anchor="middle" x="348.75" y="119">1 &apos;</text></g><path d="M371.5 115h10" /><path d="M381.5 115h10" /><g class="terminal ">
<rect data-text="_" fill="hsl(120, 100%, 90%)" height="22" stroke="black" stroke-width="3" width="28.5" x="391.5" y="104"></rect><text text-anchor="middle" x="405.75" y="119">_</text></g><path d="M420.0 115h10" /><g>
<path d="M430.0 115h0.0" /><path d="M490.0 115h0.0" /><path d="M430.0 115a10 10 0 0 0 10 -10v-11a10 10 0 0 1 10 -10" /><g>
<path d="M450.0 84h20.0" /></g><path d="M470.0 84a10 10 0 0 1 10 10v11a10 10 0 0 0 10 10" /><path d="M430.0 115h20" /><g class="terminal ">
<rect data-text="" fill="hsl(120, 100%, 90%)" height="22" stroke="black" stroke-width="3" width="20" x="450" y="104"></rect><text text-anchor="middle" x="460" y="119"></text></g><path d="M470.0 115h20" /></g></g><path d="M490.0 115h10" /><path d="M 500.0 115 h 20 m -10 -10 v 20 m 10 -20 v 20"></path></g><style>/* <![CDATA[ */
	svg.railroad-diagram {
		background-color:hsl(30,20%,95%);
	}
	svg.railroad-diagram path {
		stroke-width:3;
		stroke:black;
		fill:rgba(0,0,0,0);
	}
	svg.railroad-diagram text {
		font:bold 14px monospace;
		text-anchor:middle;
	}
	svg.railroad-diagram text.label{
		text-anchor:start;
	}
	svg.railroad-diagram text.comment{
		font:italic 12px monospace;
	}
	svg.railroad-diagram rect{
		stroke-width:3;
		stroke:black;
		fill:hsl(120,100%,90%);
	}
	svg.railroad-diagram rect.group-box {
		stroke: gray;
		stroke-dasharray: 10 5;
		fill: none;
	}

/* ]]> */
</style></svg>