<svg class="railroad-diagram" height="144" viewBox="0 0 632.0 144" width="632.0" xmlns="http://www.w3.org/2000/svg" xmlns:xlink="http://www.w3.org/1999/xlink">
<g transform="translate(.5 .5)">
<g>
<path d="M20 83v20m10 -20v20m-10 -10h20" /></g><path d="M40 93h10" /><g>
<path d="M50 93h0.0" /><path d="M582.0 93h0.0" /><g>
<path d="M50.0 93h0.0" /><path d="M478.0 93h0.0" /><g>
<path d="M50.0 93h0.0" /><path d="M478.0 93h0.0" /><path d="M50.0 93a10 10 0 0 0 10 -10v-42a10 10 0 0 1 10 -10" /><g>
<path d="M70.0 31h120.25" /><path d="M337.75 31h120.25" /><g class="terminal ">
<rect data-text="CompilationUnit" fill="hsl(120, 100%, 90%)" height="22" stroke="black" stroke-width="3" width="147.5" x="190.25" y="20"></rect><text text-anchor="middle" x="264" y="35">CompilationUnit</text></g></g><path d="M458.0 31a10 10 0 0 1 10 10v42a10 10 0 0 0 10 10" /><path d="M50.0 93h20" /><g>
<path d="M70.0 93h0.0" /><path d="M458.0 93h0.0" /><g class="terminal ">
<rect data-text="TemplateStat" fill="hsl(120, 100%, 90%)" height="22" stroke="black" stroke-width="3" width="122" x="70" y="82"></rect><text text-anchor="middle" x="131" y="97">TemplateStat</text></g><path d="M192.0 93h10" /><g>
<path d="M202.0 93h0.0" /><path d="M458.0 93h0.0" /><path d="M202.0 93a10 10 0 0 0 10 -10v-11a10 10 0 0 1 10 -10" /><g>
<path d="M222.0 62h216.0" /></g><path d="M438.0 62a10 10 0 0 1 10 10v11a10 10 0 0 0 10 10" /><path d="M202.0 93h20" /><g>
<path d="M222.0 93h0.0" /><path d="M438.0 93h0.0" /><path d="M222.0 93h10" /><g>
<path d="M232.0 93h0.0" /><path d="M428.0 93h0.0" /><g class="terminal ">
<rect data-text="semi" fill="hsl(120, 100%, 90%)" height="22" stroke="black" stroke-width="3" width="54" x="232" y="82"></rect><text text-anchor="middle" x="259" y="97">semi</text></g><path d="M286.0 93h10" /><path d="M296.0 93h10" /><g class="terminal ">
<rect data-text="TemplateStat" fill="hsl(120, 100%, 90%)" height="22" stroke="black" stroke-width="3" width="122" x="306" y="82"></rect><text text-anchor="middle" x="367" y="97">TemplateStat</text></g></g><path d="M428.0 93h10" /><path d="M232.0 93a10 10 0 0 0 -10 10v11a10 10 0 0 0 10 10" /><g>
<path d="M232.0 124h196.0" /></g><path d="M428.0 124a10 10 0 0 0 10 -10v-11a10 10 0 0 0 -10 -10" /></g><path d="M438.0 93h20" /></g></g><path d="M458.0 93h20" /></g></g><path d="M478.0 93h10" /><g>
<path d="M488.0 93h0.0" /><path d="M582.0 93h0.0" /><path d="M488.0 93a10 10 0 0 0 10 -10v-11a10 10 0 0 1 10 -10" /><g>
<path d="M508.0 62h54.0" /></g><path d="M562.0 62a10 10 0 0 1 10 10v11a10 10 0 0 0 10 10" /><path d="M488.0 93h20" /><g class="terminal ">
<rect data-text="semi" fill="hsl(120, 100%, 90%)" height="22" stroke="black" stroke-width="3" width="54" x="508" y="82"></rect><text text-anchor="middle" x="535" y="97">semi</text></g><path d="M562.0 93h20" /></g></g><path d="M582.0 93h10" /><path d="M 592.0 93 h 20 m -10 -10 v 20 m 10 -20 v 20"></path></g><style>/* <![CDATA[ */
	svg.railroad-diagram {
		background-color:hsl(30,20%,95%);
	}
	svg.railroad-diagram path {
		stroke-width:3;
		stroke:black;
		fill:rgba(0,0,0,0);
	}
	svg.railroad-diagram text {
		font:bold 14px monospace;
		text-anchor:middle;
	}
	svg.railroad-diagram text.label{
		text-anchor:start;
	}
	svg.railroad-diagram text.comment{
		font:italic 12px monospace;
	}
	svg.railroad-diagram rect{
		stroke-width:3;
		stroke:black;
		fill:hsl(120,100%,90%);
	}
	svg.railroad-diagram rect.group-box {
		stroke: gray;
		stroke-dasharray: 10 5;
		fill: none;
	}

/* ]]> */
</style></svg>