<svg class="railroad-diagram" height="82" viewBox="0 0 599.5 82" width="599.5" xmlns="http://www.w3.org/2000/svg" xmlns:xlink="http://www.w3.org/1999/xlink">
<g transform="translate(.5 .5)">
<g>
<path d="M20 41v20m10 -20v20m-10 -10h20" /></g><path d="M40 51h10" /><g>
<path d="M50 51h0.0" /><path d="M549.5 51h0.0" /><g>
<path d="M50.0 51h0.0" /><path d="M549.5 51h0.0" /><g class="terminal ">
<rect data-text="try" fill="hsl(120, 100%, 90%)" height="22" stroke="black" stroke-width="3" width="45.5" x="50" y="40"></rect><text text-anchor="middle" x="72.75" y="55">try</text></g><path d="M95.5 51h10" /><path d="M105.5 51h10" /><g class="terminal ">
<rect data-text="Expr" fill="hsl(120, 100%, 90%)" height="22" stroke="black" stroke-width="3" width="54" x="115.5" y="40"></rect><text text-anchor="middle" x="142.5" y="55">Expr</text></g><path d="M169.5 51h10" /><g>
<path d="M179.5 51h0.0" /><path d="M356.0 51h0.0" /><path d="M179.5 51a10 10 0 0 0 10 -10v-11a10 10 0 0 1 10 -10" /><g>
<path d="M199.5 20h136.5" /></g><path d="M336.0 20a10 10 0 0 1 10 10v11a10 10 0 0 0 10 10" /><path d="M179.5 51h20" /><g>
<path d="M199.5 51h0.0" /><path d="M336.0 51h0.0" /><g class="terminal ">
<rect data-text="catch" fill="hsl(120, 100%, 90%)" height="22" stroke="black" stroke-width="3" width="62.5" x="199.5" y="40"></rect><text text-anchor="middle" x="230.75" y="55">catch</text></g><path d="M262.0 51h10" /><path d="M272.0 51h10" /><g class="terminal ">
<rect data-text="Expr" fill="hsl(120, 100%, 90%)" height="22" stroke="black" stroke-width="3" width="54" x="282" y="40"></rect><text text-anchor="middle" x="309" y="55">Expr</text></g></g><path d="M336.0 51h20" /></g><g>
<path d="M356.0 51h0.0" /><path d="M549.5 51h0.0" /><path d="M356.0 51a10 10 0 0 0 10 -10v-11a10 10 0 0 1 10 -10" /><g>
<path d="M376.0 20h153.5" /></g><path d="M529.5 20a10 10 0 0 1 10 10v11a10 10 0 0 0 10 10" /><path d="M356.0 51h20" /><g>
<path d="M376.0 51h0.0" /><path d="M529.5 51h0.0" /><g class="terminal ">
<rect data-text="finally" fill="hsl(120, 100%, 90%)" height="22" stroke="black" stroke-width="3" width="79.5" x="376" y="40"></rect><text text-anchor="middle" x="415.75" y="55">finally</text></g><path d="M455.5 51h10" /><path d="M465.5 51h10" /><g class="terminal ">
<rect data-text="Expr" fill="hsl(120, 100%, 90%)" height="22" stroke="black" stroke-width="3" width="54" x="475.5" y="40"></rect><text text-anchor="middle" x="502.5" y="55">Expr</text></g></g><path d="M529.5 51h20" /></g></g></g><path d="M549.5 51h10" /><path d="M 559.5 51 h 20 m -10 -10 v 20 m 10 -20 v 20"></path></g><style>/* <![CDATA[ */
	svg.railroad-diagram {
		background-color:hsl(30,20%,95%);
	}
	svg.railroad-diagram path {
		stroke-width:3;
		stroke:black;
		fill:rgba(0,0,0,0);
	}
	svg.railroad-diagram text {
		font:bold 14px monospace;
		text-anchor:middle;
	}
	svg.railroad-diagram text.label{
		text-anchor:start;
	}
	svg.railroad-diagram text.comment{
		font:italic 12px monospace;
	}
	svg.railroad-diagram rect{
		stroke-width:3;
		stroke:black;
		fill:hsl(120,100%,90%);
	}
	svg.railroad-diagram rect.group-box {
		stroke: gray;
		stroke-dasharray: 10 5;
		fill: none;
	}

/* ]]> */
</style></svg>