<svg class="railroad-diagram" height="82" viewBox="0 0 447.0 82" width="447.0" xmlns="http://www.w3.org/2000/svg" xmlns:xlink="http://www.w3.org/1999/xlink">
<g transform="translate(.5 .5)">
<g>
<path d="M20 41v20m10 -20v20m-10 -10h20" /></g><path d="M40 51h10" /><g>
<path d="M50 51h0.0" /><path d="M397.0 51h0.0" /><g class="terminal ">
<rect data-text="id" fill="hsl(120, 100%, 90%)" height="22" stroke="black" stroke-width="3" width="37" x="50" y="40"></rect><text text-anchor="middle" x="68.5" y="55">id</text></g><path d="M87.0 51h10" /><g>
<path d="M97.0 51h0.0" /><path d="M284.5 51h0.0" /><path d="M97.0 51a10 10 0 0 0 10 -10v-11a10 10 0 0 1 10 -10" /><g>
<path d="M117.0 20h147.5" /></g><path d="M264.5 20a10 10 0 0 1 10 10v11a10 10 0 0 0 10 10" /><path d="M97.0 51h20" /><g class="terminal ">
<rect data-text="TypeParamClause" fill="hsl(120, 100%, 90%)" height="22" stroke="black" stroke-width="3" width="147.5" x="117" y="40"></rect><text text-anchor="middle" x="190.75" y="55">TypeParamClause</text></g><path d="M264.5 51h20" /></g><path d="M284.5 51h10" /><g class="terminal ">
<rect data-text="=" fill="hsl(120, 100%, 90%)" height="22" stroke="black" stroke-width="3" width="28.5" x="294.5" y="40"></rect><text text-anchor="middle" x="308.75" y="55">=</text></g><path d="M323.0 51h10" /><path d="M333.0 51h10" /><g class="terminal ">
<rect data-text="Type" fill="hsl(120, 100%, 90%)" height="22" stroke="black" stroke-width="3" width="54" x="343" y="40"></rect><text text-anchor="middle" x="370" y="55">Type</text></g></g><path d="M397.0 51h10" /><path d="M 407.0 51 h 20 m -10 -10 v 20 m 10 -20 v 20"></path></g><style>/* <![CDATA[ */
	svg.railroad-diagram {
		background-color:hsl(30,20%,95%);
	}
	svg.railroad-diagram path {
		stroke-width:3;
		stroke:black;
		fill:rgba(0,0,0,0);
	}
	svg.railroad-diagram text {
		font:bold 14px monospace;
		text-anchor:middle;
	}
	svg.railroad-diagram text.label{
		text-anchor:start;
	}
	svg.railroad-diagram text.comment{
		font:italic 12px monospace;
	}
	svg.railroad-diagram rect{
		stroke-width:3;
		stroke:black;
		fill:hsl(120,100%,90%);
	}
	svg.railroad-diagram rect.group-box {
		stroke: gray;
		stroke-dasharray: 10 5;
		fill: none;
	}

/* ]]> */
</style></svg>