<svg class="railroad-diagram" height="104" viewBox="0 0 405.0 104" width="405.0" xmlns="http://www.w3.org/2000/svg" xmlns:xlink="http://www.w3.org/1999/xlink">
<g transform="translate(.5 .5)">
<g>
<path d="M20 63v20m10 -20v20m-10 -10h20" /></g><path d="M40 73h10" /><g>
<path d="M50 73h0.0" /><path d="M355.0 73h0.0" /><g>
<path d="M50.0 73h0.0" /><path d="M355.0 73h0.0" /><path d="M50.0 73a10 10 0 0 0 10 -10v-22a10 10 0 0 1 10 -10" /><g>
<path d="M70.0 31h97.0" /><path d="M238.0 31h97.0" /><g class="terminal ">
<rect data-text="PatDef" fill="hsl(120, 100%, 90%)" height="22" stroke="black" stroke-width="3" width="71" x="167" y="20"></rect><text text-anchor="middle" x="202.5" y="35">PatDef</text></g></g><path d="M335.0 31a10 10 0 0 1 10 10v22a10 10 0 0 0 10 10" /><path d="M50.0 73h20" /><g>
<path d="M70.0 73h0.0" /><path d="M335.0 73h0.0" /><g class="terminal ">
<rect data-text="ids" fill="hsl(120, 100%, 90%)" height="22" stroke="black" stroke-width="3" width="45.5" x="70" y="62"></rect><text text-anchor="middle" x="92.75" y="77">ids</text></g><path d="M115.5 73h10" /><path d="M125.5 73h10" /><g class="terminal ">
<rect data-text=":" fill="hsl(120, 100%, 90%)" height="22" stroke="black" stroke-width="3" width="28.5" x="135.5" y="62"></rect><text text-anchor="middle" x="149.75" y="77">:</text></g><path d="M164.0 73h10" /><path d="M174.0 73h10" /><g class="terminal ">
<rect data-text="Type" fill="hsl(120, 100%, 90%)" height="22" stroke="black" stroke-width="3" width="54" x="184" y="62"></rect><text text-anchor="middle" x="211" y="77">Type</text></g><path d="M238.0 73h10" /><path d="M248.0 73h10" /><g class="terminal ">
<rect data-text="=" fill="hsl(120, 100%, 90%)" height="22" stroke="black" stroke-width="3" width="28.5" x="258" y="62"></rect><text text-anchor="middle" x="272.25" y="77">=</text></g><path d="M286.5 73h10" /><path d="M296.5 73h10" /><g class="terminal ">
<rect data-text="_" fill="hsl(120, 100%, 90%)" height="22" stroke="black" stroke-width="3" width="28.5" x="306.5" y="62"></rect><text text-anchor="middle" x="320.75" y="77">_</text></g></g><path d="M335.0 73h20" /></g></g><path d="M355.0 73h10" /><path d="M 365.0 73 h 20 m -10 -10 v 20 m 10 -20 v 20"></path></g><style>/* <![CDATA[ */
	svg.railroad-diagram {
		background-color:hsl(30,20%,95%);
	}
	svg.railroad-diagram path {
		stroke-width:3;
		stroke:black;
		fill:rgba(0,0,0,0);
	}
	svg.railroad-diagram text {
		font:bold 14px monospace;
		text-anchor:middle;
	}
	svg.railroad-diagram text.label{
		text-anchor:start;
	}
	svg.railroad-diagram text.comment{
		font:italic 12px monospace;
	}
	svg.railroad-diagram rect{
		stroke-width:3;
		stroke:black;
		fill:hsl(120,100%,90%);
	}
	svg.railroad-diagram rect.group-box {
		stroke: gray;
		stroke-dasharray: 10 5;
		fill: none;
	}

/* ]]> */
</style></svg>