<svg class="railroad-diagram" height="228" viewBox="0 0 825.0 228" width="825.0" xmlns="http://www.w3.org/2000/svg" xmlns:xlink="http://www.w3.org/1999/xlink">
<g transform="translate(.5 .5)">
<g>
<path d="M20 125v20m10 -20v20m-10 -10h20" /></g><path d="M40 135h10" /><g>
<path d="M50 135h0.0" /><path d="M775.0 135h0.0" /><g>
<path d="M50.0 135h0.0" /><path d="M696.5 135h0.0" /><g>
<path d="M50.0 135h0.0" /><path d="M314.0 135h0.0" /><g>
<path d="M50.0 135h0.0" /><path d="M314.0 135h0.0" /><path d="M50.0 135a10 10 0 0 0 10 -10v-22a10 10 0 0 1 10 -10" /><g>
<path d="M70.0 93h80.75" /><path d="M213.25 93h80.75" /><g class="terminal ">
<rect data-text="yield" fill="hsl(120, 100%, 90%)" height="22" stroke="black" stroke-width="3" width="62.5" x="150.75" y="82"></rect><text text-anchor="middle" x="182" y="97">yield</text></g></g><path d="M294.0 93a10 10 0 0 1 10 10v22a10 10 0 0 0 10 10" /><path d="M50.0 135a10 10 0 0 0 10 -10v-64a10 10 0 0 1 10 -10" /><g>
<path d="M70.0 51h59.5" /><path d="M234.5 51h59.5" /><g class="terminal ">
<rect data-text="expression" fill="hsl(120, 100%, 90%)" height="22" stroke="black" stroke-width="3" width="105" x="129.5" y="40"></rect><text text-anchor="middle" x="182" y="55">expression</text></g></g><path d="M294.0 51a10 10 0 0 1 10 10v64a10 10 0 0 0 10 10" /><path d="M50.0 135h20" /><g>
<path d="M70.0 135h59.5" /><path d="M234.5 135h59.5" /><g class="terminal ">
<rect data-text="list_splat" fill="hsl(120, 100%, 90%)" height="22" stroke="black" stroke-width="3" width="105" x="129.5" y="124"></rect><text text-anchor="middle" x="182" y="139">list_splat</text></g></g><path d="M294.0 135h20" /><path d="M50.0 135a10 10 0 0 1 10 10v22a10 10 0 0 0 10 10" /><g>
<path d="M70.0 177h0.0" /><path d="M294.0 177h0.0" /><g class="terminal ">
<rect data-text="parenthesized_list_splat" fill="hsl(120, 100%, 90%)" height="22" stroke="black" stroke-width="3" width="224" x="70" y="166"></rect><text text-anchor="middle" x="182" y="181">parenthesized_list_splat</text></g></g><path d="M294.0 177a10 10 0 0 0 10 -10v-22a10 10 0 0 1 10 -10" /></g></g><path d="M314.0 135h10" /><g>
<path d="M324.0 135h0.0" /><path d="M696.5 135h0.0" /><path d="M324.0 135a10 10 0 0 0 10 -10v-95a10 10 0 0 1 10 -10" /><g>
<path d="M344.0 20h332.5" /></g><path d="M676.5 20a10 10 0 0 1 10 10v95a10 10 0 0 0 10 10" /><path d="M324.0 135h20" /><g>
<path d="M344.0 135h0.0" /><path d="M676.5 135h0.0" /><path d="M344.0 135h10" /><g>
<path d="M354.0 135h0.0" /><path d="M666.5 135h0.0" /><g class="terminal ">
<rect data-text="," fill="hsl(120, 100%, 90%)" height="22" stroke="black" stroke-width="3" width="28.5" x="354" y="124"></rect><text text-anchor="middle" x="368.25" y="139">,</text></g><path d="M382.5 135h10" /><path d="M392.5 135h10" /><g>
<path d="M402.5 135h0.0" /><path d="M666.5 135h0.0" /><g>
<path d="M402.5 135h0.0" /><path d="M666.5 135h0.0" /><path d="M402.5 135a10 10 0 0 0 10 -10v-22a10 10 0 0 1 10 -10" /><g>
<path d="M422.5 93h80.75" /><path d="M565.75 93h80.75" /><g class="terminal ">
<rect data-text="yield" fill="hsl(120, 100%, 90%)" height="22" stroke="black" stroke-width="3" width="62.5" x="503.25" y="82"></rect><text text-anchor="middle" x="534.5" y="97">yield</text></g></g><path d="M646.5 93a10 10 0 0 1 10 10v22a10 10 0 0 0 10 10" /><path d="M402.5 135a10 10 0 0 0 10 -10v-64a10 10 0 0 1 10 -10" /><g>
<path d="M422.5 51h59.5" /><path d="M587.0 51h59.5" /><g class="terminal ">
<rect data-text="expression" fill="hsl(120, 100%, 90%)" height="22" stroke="black" stroke-width="3" width="105" x="482" y="40"></rect><text text-anchor="middle" x="534.5" y="55">expression</text></g></g><path d="M646.5 51a10 10 0 0 1 10 10v64a10 10 0 0 0 10 10" /><path d="M402.5 135h20" /><g>
<path d="M422.5 135h59.5" /><path d="M587.0 135h59.5" /><g class="terminal ">
<rect data-text="list_splat" fill="hsl(120, 100%, 90%)" height="22" stroke="black" stroke-width="3" width="105" x="482" y="124"></rect><text text-anchor="middle" x="534.5" y="139">list_splat</text></g></g><path d="M646.5 135h20" /><path d="M402.5 135a10 10 0 0 1 10 10v22a10 10 0 0 0 10 10" /><g>
<path d="M422.5 177h0.0" /><path d="M646.5 177h0.0" /><g class="terminal ">
<rect data-text="parenthesized_list_splat" fill="hsl(120, 100%, 90%)" height="22" stroke="black" stroke-width="3" width="224" x="422.5" y="166"></rect><text text-anchor="middle" x="534.5" y="181">parenthesized_list_splat</text></g></g><path d="M646.5 177a10 10 0 0 0 10 -10v-22a10 10 0 0 1 10 -10" /></g></g></g><path d="M666.5 135h10" /><path d="M354.0 135a10 10 0 0 0 -10 10v53a10 10 0 0 0 10 10" /><g>
<path d="M354.0 208h312.5" /></g><path d="M666.5 208a10 10 0 0 0 10 -10v-53a10 10 0 0 0 -10 -10" /></g><path d="M676.5 135h20" /></g></g><path d="M696.5 135h10" /><g>
<path d="M706.5 135h0.0" /><path d="M775.0 135h0.0" /><path d="M706.5 135a10 10 0 0 0 10 -10v-11a10 10 0 0 1 10 -10" /><g>
<path d="M726.5 104h28.5" /></g><path d="M755.0 104a10 10 0 0 1 10 10v11a10 10 0 0 0 10 10" /><path d="M706.5 135h20" /><g class="terminal ">
<rect data-text="," fill="hsl(120, 100%, 90%)" height="22" stroke="black" stroke-width="3" width="28.5" x="726.5" y="124"></rect><text text-anchor="middle" x="740.75" y="139">,</text></g><path d="M755.0 135h20" /></g></g><path d="M775.0 135h10" /><path d="M 785.0 135 h 20 m -10 -10 v 20 m 10 -20 v 20"></path></g><style>/* <![CDATA[ */
	svg.railroad-diagram {
		background-color:hsl(30,20%,95%);
	}
	svg.railroad-diagram path {
		stroke-width:3;
		stroke:black;
		fill:rgba(0,0,0,0);
	}
	svg.railroad-diagram text {
		font:bold 14px monospace;
		text-anchor:middle;
	}
	svg.railroad-diagram text.label{
		text-anchor:start;
	}
	svg.railroad-diagram text.comment{
		font:italic 12px monospace;
	}
	svg.railroad-diagram rect{
		stroke-width:3;
		stroke:black;
		fill:hsl(120,100%,90%);
	}
	svg.railroad-diagram rect.group-box {
		stroke: gray;
		stroke-dasharray: 10 5;
		fill: none;
	}

/* ]]> */
</style></svg>