<svg class="railroad-diagram" height="398" viewBox="0 0 330.0 398" width="330.0" xmlns="http://www.w3.org/2000/svg" xmlns:xlink="http://www.w3.org/1999/xlink">
<g transform="translate(.5 .5)">
<g>
<path d="M20 189v20m10 -20v20m-10 -10h20" /></g><path d="M40 199h10" /><g>
<path d="M50 199h0.0" /><path d="M280.0 199h0.0" /><g>
<path d="M50.0 199h0.0" /><path d="M280.0 199h0.0" /><path d="M50.0 199a10 10 0 0 0 10 -10v-22a10 10 0 0 1 10 -10" /><g>
<path d="M70.0 157h29.75" /><path d="M230.25 157h29.75" /><g class="terminal ">
<rect data-text="try_statement" fill="hsl(120, 100%, 90%)" height="22" stroke="black" stroke-width="3" width="130.5" x="99.75" y="146"></rect><text text-anchor="middle" x="165" y="161">try_statement</text></g></g><path d="M260.0 157a10 10 0 0 1 10 10v22a10 10 0 0 0 10 10" /><path d="M50.0 199a10 10 0 0 0 10 -10v-64a10 10 0 0 1 10 -10" /><g>
<path d="M70.0 115h21.25" /><path d="M238.75 115h21.25" /><g class="terminal ">
<rect data-text="while_statement" fill="hsl(120, 100%, 90%)" height="22" stroke="black" stroke-width="3" width="147.5" x="91.25" y="104"></rect><text text-anchor="middle" x="165" y="119">while_statement</text></g></g><path d="M260.0 115a10 10 0 0 1 10 10v64a10 10 0 0 0 10 10" /><path d="M50.0 199a10 10 0 0 0 10 -10v-106a10 10 0 0 1 10 -10" /><g>
<path d="M70.0 73h29.75" /><path d="M230.25 73h29.75" /><g class="terminal ">
<rect data-text="for_statement" fill="hsl(120, 100%, 90%)" height="22" stroke="black" stroke-width="3" width="130.5" x="99.75" y="62"></rect><text text-anchor="middle" x="165" y="77">for_statement</text></g></g><path d="M260.0 73a10 10 0 0 1 10 10v106a10 10 0 0 0 10 10" /><path d="M50.0 199a10 10 0 0 0 10 -10v-148a10 10 0 0 1 10 -10" /><g>
<path d="M70.0 31h34.0" /><path d="M226.0 31h34.0" /><g class="terminal ">
<rect data-text="if_statement" fill="hsl(120, 100%, 90%)" height="22" stroke="black" stroke-width="3" width="122" x="104" y="20"></rect><text text-anchor="middle" x="165" y="35">if_statement</text></g></g><path d="M260.0 31a10 10 0 0 1 10 10v148a10 10 0 0 0 10 10" /><path d="M50.0 199h20" /><g>
<path d="M70.0 199h25.5" /><path d="M234.5 199h25.5" /><g class="terminal ">
<rect data-text="with_statement" fill="hsl(120, 100%, 90%)" height="22" stroke="black" stroke-width="3" width="139" x="95.5" y="188"></rect><text text-anchor="middle" x="165" y="203">with_statement</text></g></g><path d="M260.0 199h20" /><path d="M50.0 199a10 10 0 0 1 10 10v22a10 10 0 0 0 10 10" /><g>
<path d="M70.0 241h4.25" /><path d="M255.75 241h4.25" /><g class="terminal ">
<rect data-text="function_definition" fill="hsl(120, 100%, 90%)" height="22" stroke="black" stroke-width="3" width="181.5" x="74.25" y="230"></rect><text text-anchor="middle" x="165" y="245">function_definition</text></g></g><path d="M260.0 241a10 10 0 0 0 10 -10v-22a10 10 0 0 1 10 -10" /><path d="M50.0 199a10 10 0 0 1 10 10v64a10 10 0 0 0 10 10" /><g>
<path d="M70.0 283h17.0" /><path d="M243.0 283h17.0" /><g class="terminal ">
<rect data-text="class_definition" fill="hsl(120, 100%, 90%)" height="22" stroke="black" stroke-width="3" width="156" x="87" y="272"></rect><text text-anchor="middle" x="165" y="287">class_definition</text></g></g><path d="M260.0 283a10 10 0 0 0 10 -10v-64a10 10 0 0 1 10 -10" /><path d="M50.0 199a10 10 0 0 1 10 10v106a10 10 0 0 0 10 10" /><g>
<path d="M70.0 325h0.0" /><path d="M260.0 325h0.0" /><g class="terminal ">
<rect data-text="decorated_definition" fill="hsl(120, 100%, 90%)" height="22" stroke="black" stroke-width="3" width="190" x="70" y="314"></rect><text text-anchor="middle" x="165" y="329">decorated_definition</text></g></g><path d="M260.0 325a10 10 0 0 0 10 -10v-106a10 10 0 0 1 10 -10" /><path d="M50.0 199a10 10 0 0 1 10 10v148a10 10 0 0 0 10 10" /><g>
<path d="M70.0 367h21.25" /><path d="M238.75 367h21.25" /><g class="terminal ">
<rect data-text="match_statement" fill="hsl(120, 100%, 90%)" height="22" stroke="black" stroke-width="3" width="147.5" x="91.25" y="356"></rect><text text-anchor="middle" x="165" y="371">match_statement</text></g></g><path d="M260.0 367a10 10 0 0 0 10 -10v-148a10 10 0 0 1 10 -10" /></g></g><path d="M280.0 199h10" /><path d="M 290.0 199 h 20 m -10 -10 v 20 m 10 -20 v 20"></path></g><style>/* <![CDATA[ */
	svg.railroad-diagram {
		background-color:hsl(30,20%,95%);
	}
	svg.railroad-diagram path {
		stroke-width:3;
		stroke:black;
		fill:rgba(0,0,0,0);
	}
	svg.railroad-diagram text {
		font:bold 14px monospace;
		text-anchor:middle;
	}
	svg.railroad-diagram text.label{
		text-anchor:start;
	}
	svg.railroad-diagram text.comment{
		font:italic 12px monospace;
	}
	svg.railroad-diagram rect{
		stroke-width:3;
		stroke:black;
		fill:hsl(120,100%,90%);
	}
	svg.railroad-diagram rect.group-box {
		stroke: gray;
		stroke-dasharray: 10 5;
		fill: none;
	}

/* ]]> */
</style></svg>