<svg class="railroad-diagram" height="104" viewBox="0 0 313.0 104" width="313.0" xmlns="http://www.w3.org/2000/svg" xmlns:xlink="http://www.w3.org/1999/xlink">
<g transform="translate(.5 .5)">
<g>
<path d="M20 63v20m10 -20v20m-10 -10h20" /></g><path d="M40 73h10" /><g>
<path d="M50 73h0.0" /><path d="M263.0 73h0.0" /><g>
<path d="M50.0 73h0.0" /><path d="M263.0 73h0.0" /><path d="M50.0 73a10 10 0 0 0 10 -10v-22a10 10 0 0 1 10 -10" /><g>
<path d="M70.0 31h34.0" /><path d="M209.0 31h34.0" /><g class="terminal ">
<rect data-text="identifier" fill="hsl(120, 100%, 90%)" height="22" stroke="black" stroke-width="3" width="105" x="104" y="20"></rect><text text-anchor="middle" x="156.5" y="35">identifier</text></g></g><path d="M243.0 31a10 10 0 0 1 10 10v22a10 10 0 0 0 10 10" /><path d="M50.0 73h20" /><g>
<path d="M70.0 73h0.0" /><path d="M243.0 73h0.0" /><g class="terminal ">
<rect data-text="keyword_identifier" fill="hsl(120, 100%, 90%)" height="22" stroke="black" stroke-width="3" width="173" x="70" y="62"></rect><text text-anchor="middle" x="156.5" y="77">keyword_identifier</text></g></g><path d="M243.0 73h20" /></g></g><path d="M263.0 73h10" /><path d="M 273.0 73 h 20 m -10 -10 v 20 m 10 -20 v 20"></path></g><style>/* <![CDATA[ */
	svg.railroad-diagram {
		background-color:hsl(30,20%,95%);
	}
	svg.railroad-diagram path {
		stroke-width:3;
		stroke:black;
		fill:rgba(0,0,0,0);
	}
	svg.railroad-diagram text {
		font:bold 14px monospace;
		text-anchor:middle;
	}
	svg.railroad-diagram text.label{
		text-anchor:start;
	}
	svg.railroad-diagram text.comment{
		font:italic 12px monospace;
	}
	svg.railroad-diagram rect{
		stroke-width:3;
		stroke:black;
		fill:hsl(120,100%,90%);
	}
	svg.railroad-diagram rect.group-box {
		stroke: gray;
		stroke-dasharray: 10 5;
		fill: none;
	}

/* ]]> */
</style></svg>