<svg class="railroad-diagram" height="102" viewBox="0 0 456.0 102" width="456.0" xmlns="http://www.w3.org/2000/svg" xmlns:xlink="http://www.w3.org/1999/xlink">
<g transform="translate(.5 .5)">
<g>
<path d="M20 41v20m10 -20v20m-10 -10h20" /></g><path d="M40 51h10" /><g>
<path d="M50 51h0.0" /><path d="M406.0 51h0.0" /><g>
<path d="M50.0 51h0.0" /><path d="M327.5 51h0.0" /><g class="terminal ">
<rect data-text="pattern" fill="hsl(120, 100%, 90%)" height="22" stroke="black" stroke-width="3" width="79.5" x="50" y="40"></rect><text text-anchor="middle" x="89.75" y="55">pattern</text></g><path d="M129.5 51h10" /><g>
<path d="M139.5 51h0.0" /><path d="M327.5 51h0.0" /><path d="M139.5 51a10 10 0 0 0 10 -10v-11a10 10 0 0 1 10 -10" /><g>
<path d="M159.5 20h148.0" /></g><path d="M307.5 20a10 10 0 0 1 10 10v11a10 10 0 0 0 10 10" /><path d="M139.5 51h20" /><g>
<path d="M159.5 51h0.0" /><path d="M307.5 51h0.0" /><path d="M159.5 51h10" /><g>
<path d="M169.5 51h0.0" /><path d="M297.5 51h0.0" /><g class="terminal ">
<rect data-text="," fill="hsl(120, 100%, 90%)" height="22" stroke="black" stroke-width="3" width="28.5" x="169.5" y="40"></rect><text text-anchor="middle" x="183.75" y="55">,</text></g><path d="M198.0 51h10" /><path d="M208.0 51h10" /><g class="terminal ">
<rect data-text="pattern" fill="hsl(120, 100%, 90%)" height="22" stroke="black" stroke-width="3" width="79.5" x="218" y="40"></rect><text text-anchor="middle" x="257.75" y="55">pattern</text></g></g><path d="M297.5 51h10" /><path d="M169.5 51a10 10 0 0 0 -10 10v11a10 10 0 0 0 10 10" /><g>
<path d="M169.5 82h128.0" /></g><path d="M297.5 82a10 10 0 0 0 10 -10v-11a10 10 0 0 0 -10 -10" /></g><path d="M307.5 51h20" /></g></g><path d="M327.5 51h10" /><g>
<path d="M337.5 51h0.0" /><path d="M406.0 51h0.0" /><path d="M337.5 51a10 10 0 0 0 10 -10v-11a10 10 0 0 1 10 -10" /><g>
<path d="M357.5 20h28.5" /></g><path d="M386.0 20a10 10 0 0 1 10 10v11a10 10 0 0 0 10 10" /><path d="M337.5 51h20" /><g class="terminal ">
<rect data-text="," fill="hsl(120, 100%, 90%)" height="22" stroke="black" stroke-width="3" width="28.5" x="357.5" y="40"></rect><text text-anchor="middle" x="371.75" y="55">,</text></g><path d="M386.0 51h20" /></g></g><path d="M406.0 51h10" /><path d="M 416.0 51 h 20 m -10 -10 v 20 m 10 -20 v 20"></path></g><style>/* <![CDATA[ */
	svg.railroad-diagram {
		background-color:hsl(30,20%,95%);
	}
	svg.railroad-diagram path {
		stroke-width:3;
		stroke:black;
		fill:rgba(0,0,0,0);
	}
	svg.railroad-diagram text {
		font:bold 14px monospace;
		text-anchor:middle;
	}
	svg.railroad-diagram text.label{
		text-anchor:start;
	}
	svg.railroad-diagram text.comment{
		font:italic 12px monospace;
	}
	svg.railroad-diagram rect{
		stroke-width:3;
		stroke:black;
		fill:hsl(120,100%,90%);
	}
	svg.railroad-diagram rect.group-box {
		stroke: gray;
		stroke-dasharray: 10 5;
		fill: none;
	}

/* ]]> */
</style></svg>