<svg class="railroad-diagram" height="146" viewBox="0 0 478.0 146" width="478.0" xmlns="http://www.w3.org/2000/svg" xmlns:xlink="http://www.w3.org/1999/xlink">
<g transform="translate(.5 .5)">
<g>
<path d="M20 63v20m10 -20v20m-10 -10h20" /></g><path d="M40 73h10" /><g>
<path d="M50 73h0.0" /><path d="M428.0 73h0.0" /><g>
<path d="M50.0 73h0.0" /><path d="M428.0 73h0.0" /><g>
<path d="M50.0 73h0.0" /><path d="M428.0 73h0.0" /><path d="M50.0 73a10 10 0 0 0 10 -10v-22a10 10 0 0 1 10 -10" /><g>
<path d="M70.0 31h0.0" /><path d="M408.0 31h0.0" /><g class="terminal ">
<rect data-text="_simple_statements" fill="hsl(120, 100%, 90%)" height="22" stroke="black" stroke-width="3" width="173" x="70" y="20"></rect><text text-anchor="middle" x="156.5" y="35">_simple_statements</text></g><path d="M243.0 31h10" /><path d="M253.0 31h10" /><g class="terminal ">
<rect data-text="-&amp;gt;" fill="hsl(120, 100%, 90%)" height="22" stroke="black" stroke-width="3" width="62.5" x="263" y="20"></rect><text text-anchor="middle" x="294.25" y="35">-&amp;gt;</text></g><path d="M325.5 31h10" /><path d="M335.5 31h10" /><g class="terminal ">
<rect data-text="block" fill="hsl(120, 100%, 90%)" height="22" stroke="black" stroke-width="3" width="62.5" x="345.5" y="20"></rect><text text-anchor="middle" x="376.75" y="35">block</text></g></g><path d="M408.0 31a10 10 0 0 1 10 10v22a10 10 0 0 0 10 10" /><path d="M50.0 73h20" /><g>
<path d="M70.0 73h137.75" /><path d="M270.25 73h137.75" /><g>
<path d="M207.75 73h0.0" /><path d="M270.25 73h0.0" /><g class="terminal ">
<rect data-text="block" fill="hsl(120, 100%, 90%)" height="22" stroke="black" stroke-width="3" width="62.5" x="207.75" y="62"></rect><text text-anchor="middle" x="239" y="77">block</text></g></g></g><path d="M408.0 73h20" /><path d="M50.0 73a10 10 0 0 1 10 10v22a10 10 0 0 0 10 10" /><g>
<path d="M70.0 115h137.75" /><path d="M270.25 115h137.75" /><g class="terminal ">
<rect data-text="-&amp;gt;" fill="hsl(120, 100%, 90%)" height="22" stroke="black" stroke-width="3" width="62.5" x="207.75" y="104"></rect><text text-anchor="middle" x="239" y="119">-&amp;gt;</text></g></g><path d="M408.0 115a10 10 0 0 0 10 -10v-22a10 10 0 0 1 10 -10" /></g></g></g><path d="M428.0 73h10" /><path d="M 438.0 73 h 20 m -10 -10 v 20 m 10 -20 v 20"></path></g><style>/* <![CDATA[ */
	svg.railroad-diagram {
		background-color:hsl(30,20%,95%);
	}
	svg.railroad-diagram path {
		stroke-width:3;
		stroke:black;
		fill:rgba(0,0,0,0);
	}
	svg.railroad-diagram text {
		font:bold 14px monospace;
		text-anchor:middle;
	}
	svg.railroad-diagram text.label{
		text-anchor:start;
	}
	svg.railroad-diagram text.comment{
		font:italic 12px monospace;
	}
	svg.railroad-diagram rect{
		stroke-width:3;
		stroke:black;
		fill:hsl(120,100%,90%);
	}
	svg.railroad-diagram rect.group-box {
		stroke: gray;
		stroke-dasharray: 10 5;
		fill: none;
	}

/* ]]> */
</style></svg>