<svg class="railroad-diagram" height="102" viewBox="0 0 615.0 102" width="615.0" xmlns="http://www.w3.org/2000/svg" xmlns:xlink="http://www.w3.org/1999/xlink">
<g transform="translate(.5 .5)">
<g>
<path d="M20 41v20m10 -20v20m-10 -10h20" /></g><path d="M40 51h10" /><g>
<path d="M50 51h0.0" /><path d="M565.0 51h0.0" /><g class="terminal ">
<rect data-text="case" fill="hsl(120, 100%, 90%)" height="22" stroke="black" stroke-width="3" width="54" x="50" y="40"></rect><text text-anchor="middle" x="77" y="55">case</text></g><path d="M104.0 51h10" /><path d="M114.0 51h10" /><g>
<path d="M124.0 51h0.0" /><path d="M486.5 51h0.0" /><g class="terminal ">
<rect data-text="case_pattern" fill="hsl(120, 100%, 90%)" height="22" stroke="black" stroke-width="3" width="122" x="124" y="40"></rect><text text-anchor="middle" x="185" y="55">case_pattern</text></g><path d="M246.0 51h10" /><g>
<path d="M256.0 51h0.0" /><path d="M486.5 51h0.0" /><path d="M256.0 51a10 10 0 0 0 10 -10v-11a10 10 0 0 1 10 -10" /><g>
<path d="M276.0 20h190.5" /></g><path d="M466.5 20a10 10 0 0 1 10 10v11a10 10 0 0 0 10 10" /><path d="M256.0 51h20" /><g>
<path d="M276.0 51h0.0" /><path d="M466.5 51h0.0" /><path d="M276.0 51h10" /><g>
<path d="M286.0 51h0.0" /><path d="M456.5 51h0.0" /><g class="terminal ">
<rect data-text="," fill="hsl(120, 100%, 90%)" height="22" stroke="black" stroke-width="3" width="28.5" x="286" y="40"></rect><text text-anchor="middle" x="300.25" y="55">,</text></g><path d="M314.5 51h10" /><path d="M324.5 51h10" /><g class="terminal ">
<rect data-text="case_pattern" fill="hsl(120, 100%, 90%)" height="22" stroke="black" stroke-width="3" width="122" x="334.5" y="40"></rect><text text-anchor="middle" x="395.5" y="55">case_pattern</text></g></g><path d="M456.5 51h10" /><path d="M286.0 51a10 10 0 0 0 -10 10v11a10 10 0 0 0 10 10" /><g>
<path d="M286.0 82h170.5" /></g><path d="M456.5 82a10 10 0 0 0 10 -10v-11a10 10 0 0 0 -10 -10" /></g><path d="M466.5 51h20" /></g></g><path d="M486.5 51h10" /><g>
<path d="M496.5 51h0.0" /><path d="M565.0 51h0.0" /><path d="M496.5 51a10 10 0 0 0 10 -10v-11a10 10 0 0 1 10 -10" /><g>
<path d="M516.5 20h28.5" /></g><path d="M545.0 20a10 10 0 0 1 10 10v11a10 10 0 0 0 10 10" /><path d="M496.5 51h20" /><g class="terminal ">
<rect data-text="," fill="hsl(120, 100%, 90%)" height="22" stroke="black" stroke-width="3" width="28.5" x="516.5" y="40"></rect><text text-anchor="middle" x="530.75" y="55">,</text></g><path d="M545.0 51h20" /></g></g><path d="M565.0 51h10" /><path d="M 575.0 51 h 20 m -10 -10 v 20 m 10 -20 v 20"></path></g><style>/* <![CDATA[ */
	svg.railroad-diagram {
		background-color:hsl(30,20%,95%);
	}
	svg.railroad-diagram path {
		stroke-width:3;
		stroke:black;
		fill:rgba(0,0,0,0);
	}
	svg.railroad-diagram text {
		font:bold 14px monospace;
		text-anchor:middle;
	}
	svg.railroad-diagram text.label{
		text-anchor:start;
	}
	svg.railroad-diagram text.comment{
		font:italic 12px monospace;
	}
	svg.railroad-diagram rect{
		stroke-width:3;
		stroke:black;
		fill:hsl(120,100%,90%);
	}
	svg.railroad-diagram rect.group-box {
		stroke: gray;
		stroke-dasharray: 10 5;
		fill: none;
	}

/* ]]> */
</style></svg>