<svg class="railroad-diagram" height="122" viewBox="0 0 791.5 122" width="791.5" xmlns="http://www.w3.org/2000/svg" xmlns:xlink="http://www.w3.org/1999/xlink">
<g transform="translate(.5 .5)">
<g>
<path d="M20 61v20m10 -20v20m-10 -10h20" /></g><path d="M40 71h10" /><g>
<path d="M50 71h0.0" /><path d="M741.5 71h0.0" /><g class="terminal ">
<rect data-text="dotted_name" fill="hsl(120, 100%, 90%)" height="22" stroke="black" stroke-width="3" width="113.5" x="50" y="60"></rect><text text-anchor="middle" x="106.75" y="75">dotted_name</text></g><path d="M163.5 71h10" /><path d="M173.5 71h10" /><g class="terminal ">
<rect data-text="(" fill="hsl(120, 100%, 90%)" height="22" stroke="black" stroke-width="3" width="28.5" x="183.5" y="60"></rect><text text-anchor="middle" x="197.75" y="75">(</text></g><path d="M212.0 71h10" /><g>
<path d="M222.0 71h0.0" /><path d="M703.0 71h0.0" /><path d="M222.0 71a10 10 0 0 0 10 -10v-31a10 10 0 0 1 10 -10" /><g>
<path d="M242.0 20h441.0" /></g><path d="M683.0 20a10 10 0 0 1 10 10v31a10 10 0 0 0 10 10" /><path d="M222.0 71h20" /><g>
<path d="M242.0 71h0.0" /><path d="M683.0 71h0.0" /><g>
<path d="M242.0 71h0.0" /><path d="M604.5 71h0.0" /><g class="terminal ">
<rect data-text="case_pattern" fill="hsl(120, 100%, 90%)" height="22" stroke="black" stroke-width="3" width="122" x="242" y="60"></rect><text text-anchor="middle" x="303" y="75">case_pattern</text></g><path d="M364.0 71h10" /><g>
<path d="M374.0 71h0.0" /><path d="M604.5 71h0.0" /><path d="M374.0 71a10 10 0 0 0 10 -10v-11a10 10 0 0 1 10 -10" /><g>
<path d="M394.0 40h190.5" /></g><path d="M584.5 40a10 10 0 0 1 10 10v11a10 10 0 0 0 10 10" /><path d="M374.0 71h20" /><g>
<path d="M394.0 71h0.0" /><path d="M584.5 71h0.0" /><path d="M394.0 71h10" /><g>
<path d="M404.0 71h0.0" /><path d="M574.5 71h0.0" /><g class="terminal ">
<rect data-text="," fill="hsl(120, 100%, 90%)" height="22" stroke="black" stroke-width="3" width="28.5" x="404" y="60"></rect><text text-anchor="middle" x="418.25" y="75">,</text></g><path d="M432.5 71h10" /><path d="M442.5 71h10" /><g class="terminal ">
<rect data-text="case_pattern" fill="hsl(120, 100%, 90%)" height="22" stroke="black" stroke-width="3" width="122" x="452.5" y="60"></rect><text text-anchor="middle" x="513.5" y="75">case_pattern</text></g></g><path d="M574.5 71h10" /><path d="M404.0 71a10 10 0 0 0 -10 10v11a10 10 0 0 0 10 10" /><g>
<path d="M404.0 102h170.5" /></g><path d="M574.5 102a10 10 0 0 0 10 -10v-11a10 10 0 0 0 -10 -10" /></g><path d="M584.5 71h20" /></g></g><path d="M604.5 71h10" /><g>
<path d="M614.5 71h0.0" /><path d="M683.0 71h0.0" /><path d="M614.5 71a10 10 0 0 0 10 -10v-11a10 10 0 0 1 10 -10" /><g>
<path d="M634.5 40h28.5" /></g><path d="M663.0 40a10 10 0 0 1 10 10v11a10 10 0 0 0 10 10" /><path d="M614.5 71h20" /><g class="terminal ">
<rect data-text="," fill="hsl(120, 100%, 90%)" height="22" stroke="black" stroke-width="3" width="28.5" x="634.5" y="60"></rect><text text-anchor="middle" x="648.75" y="75">,</text></g><path d="M663.0 71h20" /></g></g><path d="M683.0 71h20" /></g><path d="M703.0 71h10" /><g class="terminal ">
<rect data-text=")" fill="hsl(120, 100%, 90%)" height="22" stroke="black" stroke-width="3" width="28.5" x="713" y="60"></rect><text text-anchor="middle" x="727.25" y="75">)</text></g></g><path d="M741.5 71h10" /><path d="M 751.5 71 h 20 m -10 -10 v 20 m 10 -20 v 20"></path></g><style>/* <![CDATA[ */
	svg.railroad-diagram {
		background-color:hsl(30,20%,95%);
	}
	svg.railroad-diagram path {
		stroke-width:3;
		stroke:black;
		fill:rgba(0,0,0,0);
	}
	svg.railroad-diagram text {
		font:bold 14px monospace;
		text-anchor:middle;
	}
	svg.railroad-diagram text.label{
		text-anchor:start;
	}
	svg.railroad-diagram text.comment{
		font:italic 12px monospace;
	}
	svg.railroad-diagram rect{
		stroke-width:3;
		stroke:black;
		fill:hsl(120,100%,90%);
	}
	svg.railroad-diagram rect.group-box {
		stroke: gray;
		stroke-dasharray: 10 5;
		fill: none;
	}

/* ]]> */
</style></svg>