<svg class="railroad-diagram" height="164" viewBox="0 0 840.0 164" width="840.0" xmlns="http://www.w3.org/2000/svg" xmlns:xlink="http://www.w3.org/1999/xlink">
<g transform="translate(.5 .5)">
<g>
<path d="M20 103v20m10 -20v20m-10 -10h20" /></g><path d="M40 113h10" /><g>
<path d="M50 113h0.0" /><path d="M790.0 113h0.0" /><g class="terminal ">
<rect data-text="{" fill="hsl(120, 100%, 90%)" height="22" stroke="black" stroke-width="3" width="28.5" x="50" y="102"></rect><text text-anchor="middle" x="64.25" y="117">{</text></g><path d="M78.5 113h10" /><g>
<path d="M88.5 113h0.0" /><path d="M751.5 113h0.0" /><path d="M88.5 113a10 10 0 0 0 10 -10v-73a10 10 0 0 1 10 -10" /><g>
<path d="M108.5 20h623.0" /></g><path d="M731.5 20a10 10 0 0 1 10 10v73a10 10 0 0 0 10 10" /><path d="M88.5 113h20" /><g>
<path d="M108.5 113h0.0" /><path d="M731.5 113h0.0" /><g>
<path d="M108.5 113h0.0" /><path d="M653.0 113h0.0" /><g>
<path d="M108.5 113h0.0" /><path d="M321.5 113h0.0" /><g>
<path d="M108.5 113h0.0" /><path d="M321.5 113h0.0" /><path d="M108.5 113a10 10 0 0 0 10 -10v-22a10 10 0 0 1 10 -10" /><g>
<path d="M128.5 71h0.0" /><path d="M301.5 71h0.0" /><g class="terminal ">
<rect data-text="_key_value_pattern" fill="hsl(120, 100%, 90%)" height="22" stroke="black" stroke-width="3" width="173" x="128.5" y="60"></rect><text text-anchor="middle" x="215" y="75">_key_value_pattern</text></g></g><path d="M301.5 71a10 10 0 0 1 10 10v22a10 10 0 0 0 10 10" /><path d="M108.5 113h20" /><g>
<path d="M128.5 113h21.25" /><path d="M280.25 113h21.25" /><g class="terminal ">
<rect data-text="splat_pattern" fill="hsl(120, 100%, 90%)" height="22" stroke="black" stroke-width="3" width="130.5" x="149.75" y="102"></rect><text text-anchor="middle" x="215" y="117">splat_pattern</text></g></g><path d="M301.5 113h20" /></g></g><path d="M321.5 113h10" /><g>
<path d="M331.5 113h0.0" /><path d="M653.0 113h0.0" /><path d="M331.5 113a10 10 0 0 0 10 -10v-53a10 10 0 0 1 10 -10" /><g>
<path d="M351.5 40h281.5" /></g><path d="M633.0 40a10 10 0 0 1 10 10v53a10 10 0 0 0 10 10" /><path d="M331.5 113h20" /><g>
<path d="M351.5 113h0.0" /><path d="M633.0 113h0.0" /><path d="M351.5 113h10" /><g>
<path d="M361.5 113h0.0" /><path d="M623.0 113h0.0" /><g class="terminal ">
<rect data-text="," fill="hsl(120, 100%, 90%)" height="22" stroke="black" stroke-width="3" width="28.5" x="361.5" y="102"></rect><text text-anchor="middle" x="375.75" y="117">,</text></g><path d="M390.0 113h10" /><path d="M400.0 113h10" /><g>
<path d="M410.0 113h0.0" /><path d="M623.0 113h0.0" /><g>
<path d="M410.0 113h0.0" /><path d="M623.0 113h0.0" /><path d="M410.0 113a10 10 0 0 0 10 -10v-22a10 10 0 0 1 10 -10" /><g>
<path d="M430.0 71h0.0" /><path d="M603.0 71h0.0" /><g class="terminal ">
<rect data-text="_key_value_pattern" fill="hsl(120, 100%, 90%)" height="22" stroke="black" stroke-width="3" width="173" x="430" y="60"></rect><text text-anchor="middle" x="516.5" y="75">_key_value_pattern</text></g></g><path d="M603.0 71a10 10 0 0 1 10 10v22a10 10 0 0 0 10 10" /><path d="M410.0 113h20" /><g>
<path d="M430.0 113h21.25" /><path d="M581.75 113h21.25" /><g class="terminal ">
<rect data-text="splat_pattern" fill="hsl(120, 100%, 90%)" height="22" stroke="black" stroke-width="3" width="130.5" x="451.25" y="102"></rect><text text-anchor="middle" x="516.5" y="117">splat_pattern</text></g></g><path d="M603.0 113h20" /></g></g></g><path d="M623.0 113h10" /><path d="M361.5 113a10 10 0 0 0 -10 10v11a10 10 0 0 0 10 10" /><g>
<path d="M361.5 144h261.5" /></g><path d="M623.0 144a10 10 0 0 0 10 -10v-11a10 10 0 0 0 -10 -10" /></g><path d="M633.0 113h20" /></g></g><path d="M653.0 113h10" /><g>
<path d="M663.0 113h0.0" /><path d="M731.5 113h0.0" /><path d="M663.0 113a10 10 0 0 0 10 -10v-11a10 10 0 0 1 10 -10" /><g>
<path d="M683.0 82h28.5" /></g><path d="M711.5 82a10 10 0 0 1 10 10v11a10 10 0 0 0 10 10" /><path d="M663.0 113h20" /><g class="terminal ">
<rect data-text="," fill="hsl(120, 100%, 90%)" height="22" stroke="black" stroke-width="3" width="28.5" x="683" y="102"></rect><text text-anchor="middle" x="697.25" y="117">,</text></g><path d="M711.5 113h20" /></g></g><path d="M731.5 113h20" /></g><path d="M751.5 113h10" /><g class="terminal ">
<rect data-text="}" fill="hsl(120, 100%, 90%)" height="22" stroke="black" stroke-width="3" width="28.5" x="761.5" y="102"></rect><text text-anchor="middle" x="775.75" y="117">}</text></g></g><path d="M790.0 113h10" /><path d="M 800.0 113 h 20 m -10 -10 v 20 m 10 -20 v 20"></path></g><style>/* <![CDATA[ */
	svg.railroad-diagram {
		background-color:hsl(30,20%,95%);
	}
	svg.railroad-diagram path {
		stroke-width:3;
		stroke:black;
		fill:rgba(0,0,0,0);
	}
	svg.railroad-diagram text {
		font:bold 14px monospace;
		text-anchor:middle;
	}
	svg.railroad-diagram text.label{
		text-anchor:start;
	}
	svg.railroad-diagram text.comment{
		font:italic 12px monospace;
	}
	svg.railroad-diagram rect{
		stroke-width:3;
		stroke:black;
		fill:hsl(120,100%,90%);
	}
	svg.railroad-diagram rect.group-box {
		stroke: gray;
		stroke-dasharray: 10 5;
		fill: none;
	}

/* ]]> */
</style></svg>