<svg class="railroad-diagram" height="82" viewBox="0 0 656.0 82" width="656.0" xmlns="http://www.w3.org/2000/svg" xmlns:xlink="http://www.w3.org/1999/xlink">
<g transform="translate(.5 .5)">
<g>
<path d="M20 41v20m10 -20v20m-10 -10h20" /></g><path d="M40 51h10" /><g>
<path d="M50 51h0.0" /><path d="M606.0 51h0.0" /><g class="terminal ">
<rect data-text="except*" fill="hsl(120, 100%, 90%)" height="22" stroke="black" stroke-width="3" width="79.5" x="50" y="40"></rect><text text-anchor="middle" x="89.75" y="55">except*</text></g><path d="M129.5 51h10" /><path d="M139.5 51h10" /><g>
<path d="M149.5 51h0.0" /><path d="M466.5 51h0.0" /><g class="terminal ">
<rect data-text="expression" fill="hsl(120, 100%, 90%)" height="22" stroke="black" stroke-width="3" width="105" x="149.5" y="40"></rect><text text-anchor="middle" x="202" y="55">expression</text></g><path d="M254.5 51h10" /><g>
<path d="M264.5 51h0.0" /><path d="M466.5 51h0.0" /><path d="M264.5 51a10 10 0 0 0 10 -10v-11a10 10 0 0 1 10 -10" /><g>
<path d="M284.5 20h162.0" /></g><path d="M446.5 20a10 10 0 0 1 10 10v11a10 10 0 0 0 10 10" /><path d="M264.5 51h20" /><g>
<path d="M284.5 51h0.0" /><path d="M446.5 51h0.0" /><g class="terminal ">
<rect data-text="as" fill="hsl(120, 100%, 90%)" height="22" stroke="black" stroke-width="3" width="37" x="284.5" y="40"></rect><text text-anchor="middle" x="303" y="55">as</text></g><path d="M321.5 51h10" /><path d="M331.5 51h10" /><g class="terminal ">
<rect data-text="expression" fill="hsl(120, 100%, 90%)" height="22" stroke="black" stroke-width="3" width="105" x="341.5" y="40"></rect><text text-anchor="middle" x="394" y="55">expression</text></g></g><path d="M446.5 51h20" /></g></g><path d="M466.5 51h10" /><path d="M476.5 51h10" /><g class="terminal ">
<rect data-text=":" fill="hsl(120, 100%, 90%)" height="22" stroke="black" stroke-width="3" width="28.5" x="486.5" y="40"></rect><text text-anchor="middle" x="500.75" y="55">:</text></g><path d="M515.0 51h10" /><path d="M525.0 51h10" /><g class="terminal ">
<rect data-text="_suite" fill="hsl(120, 100%, 90%)" height="22" stroke="black" stroke-width="3" width="71" x="535" y="40"></rect><text text-anchor="middle" x="570.5" y="55">_suite</text></g></g><path d="M606.0 51h10" /><path d="M 616.0 51 h 20 m -10 -10 v 20 m 10 -20 v 20"></path></g><style>/* <![CDATA[ */
	svg.railroad-diagram {
		background-color:hsl(30,20%,95%);
	}
	svg.railroad-diagram path {
		stroke-width:3;
		stroke:black;
		fill:rgba(0,0,0,0);
	}
	svg.railroad-diagram text {
		font:bold 14px monospace;
		text-anchor:middle;
	}
	svg.railroad-diagram text.label{
		text-anchor:start;
	}
	svg.railroad-diagram text.comment{
		font:italic 12px monospace;
	}
	svg.railroad-diagram rect{
		stroke-width:3;
		stroke:black;
		fill:hsl(120,100%,90%);
	}
	svg.railroad-diagram rect.group-box {
		stroke: gray;
		stroke-dasharray: 10 5;
		fill: none;
	}

/* ]]> */
</style></svg>