<svg class="railroad-diagram" height="356" viewBox="0 0 347.0 356" width="347.0" xmlns="http://www.w3.org/2000/svg" xmlns:xlink="http://www.w3.org/1999/xlink">
<g transform="translate(.5 .5)">
<g>
<path d="M20 189v20m10 -20v20m-10 -10h20" /></g><path d="M40 199h10" /><g>
<path d="M50 199h0.0" /><path d="M297.0 199h0.0" /><g>
<path d="M50.0 199h0.0" /><path d="M297.0 199h0.0" /><path d="M50.0 199a10 10 0 0 0 10 -10v-22a10 10 0 0 1 10 -10" /><g>
<path d="M70.0 157h68.0" /><path d="M209.0 157h68.0" /><g class="terminal ">
<rect data-text="lambda" fill="hsl(120, 100%, 90%)" height="22" stroke="black" stroke-width="3" width="71" x="138" y="146"></rect><text text-anchor="middle" x="173.5" y="161">lambda</text></g></g><path d="M277.0 157a10 10 0 0 1 10 10v22a10 10 0 0 0 10 10" /><path d="M50.0 199a10 10 0 0 0 10 -10v-64a10 10 0 0 1 10 -10" /><g>
<path d="M70.0 115h25.5" /><path d="M251.5 115h25.5" /><g class="terminal ">
<rect data-text="boolean_operator" fill="hsl(120, 100%, 90%)" height="22" stroke="black" stroke-width="3" width="156" x="95.5" y="104"></rect><text text-anchor="middle" x="173.5" y="119">boolean_operator</text></g></g><path d="M277.0 115a10 10 0 0 1 10 10v64a10 10 0 0 0 10 10" /><path d="M50.0 199a10 10 0 0 0 10 -10v-106a10 10 0 0 1 10 -10" /><g>
<path d="M70.0 73h42.5" /><path d="M234.5 73h42.5" /><g class="terminal ">
<rect data-text="not_operator" fill="hsl(120, 100%, 90%)" height="22" stroke="black" stroke-width="3" width="122" x="112.5" y="62"></rect><text text-anchor="middle" x="173.5" y="77">not_operator</text></g></g><path d="M277.0 73a10 10 0 0 1 10 10v106a10 10 0 0 0 10 10" /><path d="M50.0 199a10 10 0 0 0 10 -10v-148a10 10 0 0 1 10 -10" /><g>
<path d="M70.0 31h12.75" /><path d="M264.25 31h12.75" /><g class="terminal ">
<rect data-text="comparison_operator" fill="hsl(120, 100%, 90%)" height="22" stroke="black" stroke-width="3" width="181.5" x="82.75" y="20"></rect><text text-anchor="middle" x="173.5" y="35">comparison_operator</text></g></g><path d="M277.0 31a10 10 0 0 1 10 10v148a10 10 0 0 0 10 10" /><path d="M50.0 199h20" /><g>
<path d="M70.0 199h17.0" /><path d="M260.0 199h17.0" /><g class="terminal ">
<rect data-text="primary_expression" fill="hsl(120, 100%, 90%)" height="22" stroke="black" stroke-width="3" width="173" x="87" y="188"></rect><text text-anchor="middle" x="173.5" y="203">primary_expression</text></g></g><path d="M277.0 199h20" /><path d="M50.0 199a10 10 0 0 1 10 10v22a10 10 0 0 0 10 10" /><g>
<path d="M70.0 241h0.0" /><path d="M277.0 241h0.0" /><g class="terminal ">
<rect data-text="conditional_expression" fill="hsl(120, 100%, 90%)" height="22" stroke="black" stroke-width="3" width="207" x="70" y="230"></rect><text text-anchor="middle" x="173.5" y="245">conditional_expression</text></g></g><path d="M277.0 241a10 10 0 0 0 10 -10v-22a10 10 0 0 1 10 -10" /><path d="M50.0 199a10 10 0 0 1 10 10v64a10 10 0 0 0 10 10" /><g>
<path d="M70.0 283h25.5" /><path d="M251.5 283h25.5" /><g class="terminal ">
<rect data-text="named_expression" fill="hsl(120, 100%, 90%)" height="22" stroke="black" stroke-width="3" width="156" x="95.5" y="272"></rect><text text-anchor="middle" x="173.5" y="287">named_expression</text></g></g><path d="M277.0 283a10 10 0 0 0 10 -10v-64a10 10 0 0 1 10 -10" /><path d="M50.0 199a10 10 0 0 1 10 10v106a10 10 0 0 0 10 10" /><g>
<path d="M70.0 325h51.0" /><path d="M226.0 325h51.0" /><g class="terminal ">
<rect data-text="as_pattern" fill="hsl(120, 100%, 90%)" height="22" stroke="black" stroke-width="3" width="105" x="121" y="314"></rect><text text-anchor="middle" x="173.5" y="329">as_pattern</text></g></g><path d="M277.0 325a10 10 0 0 0 10 -10v-106a10 10 0 0 1 10 -10" /></g></g><path d="M297.0 199h10" /><path d="M 307.0 199 h 20 m -10 -10 v 20 m 10 -20 v 20"></path></g><style>/* <![CDATA[ */
	svg.railroad-diagram {
		background-color:hsl(30,20%,95%);
	}
	svg.railroad-diagram path {
		stroke-width:3;
		stroke:black;
		fill:rgba(0,0,0,0);
	}
	svg.railroad-diagram text {
		font:bold 14px monospace;
		text-anchor:middle;
	}
	svg.railroad-diagram text.label{
		text-anchor:start;
	}
	svg.railroad-diagram text.comment{
		font:italic 12px monospace;
	}
	svg.railroad-diagram rect{
		stroke-width:3;
		stroke:black;
		fill:hsl(120,100%,90%);
	}
	svg.railroad-diagram rect.group-box {
		stroke: gray;
		stroke-dasharray: 10 5;
		fill: none;
	}

/* ]]> */
</style></svg>