<svg class="railroad-diagram" height="104" viewBox="0 0 649.0 104" width="649.0" xmlns="http://www.w3.org/2000/svg" xmlns:xlink="http://www.w3.org/1999/xlink">
<g transform="translate(.5 .5)">
<g>
<path d="M20 63v20m10 -20v20m-10 -10h20" /></g><path d="M40 73h10" /><g>
<path d="M50 73h0.0" /><path d="M599.0 73h0.0" /><g class="terminal ">
<rect data-text="from" fill="hsl(120, 100%, 90%)" height="22" stroke="black" stroke-width="3" width="54" x="50" y="62"></rect><text text-anchor="middle" x="77" y="77">from</text></g><path d="M104.0 73h10" /><path d="M114.0 73h10" /><g class="terminal ">
<rect data-text="__future__" fill="hsl(120, 100%, 90%)" height="22" stroke="black" stroke-width="3" width="105" x="124" y="62"></rect><text text-anchor="middle" x="176.5" y="77">__future__</text></g><path d="M229.0 73h10" /><path d="M239.0 73h10" /><g class="terminal ">
<rect data-text="import" fill="hsl(120, 100%, 90%)" height="22" stroke="black" stroke-width="3" width="71" x="249" y="62"></rect><text text-anchor="middle" x="284.5" y="77">import</text></g><path d="M320.0 73h10" /><path d="M330.0 73h10" /><g>
<path d="M340.0 73h0.0" /><path d="M599.0 73h0.0" /><g>
<path d="M340.0 73h0.0" /><path d="M599.0 73h0.0" /><path d="M340.0 73a10 10 0 0 0 10 -10v-22a10 10 0 0 1 10 -10" /><g>
<path d="M360.0 31h48.5" /><path d="M530.5 31h48.5" /><g class="terminal ">
<rect data-text="_import_list" fill="hsl(120, 100%, 90%)" height="22" stroke="black" stroke-width="3" width="122" x="408.5" y="20"></rect><text text-anchor="middle" x="469.5" y="35">_import_list</text></g></g><path d="M579.0 31a10 10 0 0 1 10 10v22a10 10 0 0 0 10 10" /><path d="M340.0 73h20" /><g>
<path d="M360.0 73h0.0" /><path d="M579.0 73h0.0" /><g>
<path d="M360.0 73h0.0" /><path d="M579.0 73h0.0" /><g class="terminal ">
<rect data-text="(" fill="hsl(120, 100%, 90%)" height="22" stroke="black" stroke-width="3" width="28.5" x="360" y="62"></rect><text text-anchor="middle" x="374.25" y="77">(</text></g><path d="M388.5 73h10" /><path d="M398.5 73h10" /><g class="terminal ">
<rect data-text="_import_list" fill="hsl(120, 100%, 90%)" height="22" stroke="black" stroke-width="3" width="122" x="408.5" y="62"></rect><text text-anchor="middle" x="469.5" y="77">_import_list</text></g><path d="M530.5 73h10" /><path d="M540.5 73h10" /><g class="terminal ">
<rect data-text=")" fill="hsl(120, 100%, 90%)" height="22" stroke="black" stroke-width="3" width="28.5" x="550.5" y="62"></rect><text text-anchor="middle" x="564.75" y="77">)</text></g></g></g><path d="M579.0 73h20" /></g></g></g><path d="M599.0 73h10" /><path d="M 609.0 73 h 20 m -10 -10 v 20 m 10 -20 v 20"></path></g><style>/* <![CDATA[ */
	svg.railroad-diagram {
		background-color:hsl(30,20%,95%);
	}
	svg.railroad-diagram path {
		stroke-width:3;
		stroke:black;
		fill:rgba(0,0,0,0);
	}
	svg.railroad-diagram text {
		font:bold 14px monospace;
		text-anchor:middle;
	}
	svg.railroad-diagram text.label{
		text-anchor:start;
	}
	svg.railroad-diagram text.comment{
		font:italic 12px monospace;
	}
	svg.railroad-diagram rect{
		stroke-width:3;
		stroke:black;
		fill:hsl(120,100%,90%);
	}
	svg.railroad-diagram rect.group-box {
		stroke: gray;
		stroke-dasharray: 10 5;
		fill: none;
	}

/* ]]> */
</style></svg>