<svg class="railroad-diagram" height="62" viewBox="0 0 421.0 62" width="421.0" xmlns="http://www.w3.org/2000/svg" xmlns:xlink="http://www.w3.org/1999/xlink">
<g transform="translate(.5 .5)">
<g>
<path d="M20 21v20m10 -20v20m-10 -10h20" /></g><path d="M40 31h10" /><g>
<path d="M50 31h0.0" /><path d="M371.0 31h0.0" /><g class="terminal ">
<rect data-text="identifier" fill="hsl(120, 100%, 90%)" height="22" stroke="black" stroke-width="3" width="105" x="50" y="20"></rect><text text-anchor="middle" x="102.5" y="35">identifier</text></g><path d="M155.0 31h10" /><path d="M165.0 31h10" /><g class="terminal ">
<rect data-text="=" fill="hsl(120, 100%, 90%)" height="22" stroke="black" stroke-width="3" width="28.5" x="175" y="20"></rect><text text-anchor="middle" x="189.25" y="35">=</text></g><path d="M203.5 31h10" /><path d="M213.5 31h10" /><g class="terminal ">
<rect data-text="_simple_pattern" fill="hsl(120, 100%, 90%)" height="22" stroke="black" stroke-width="3" width="147.5" x="223.5" y="20"></rect><text text-anchor="middle" x="297.25" y="35">_simple_pattern</text></g></g><path d="M371.0 31h10" /><path d="M 381.0 31 h 20 m -10 -10 v 20 m 10 -20 v 20"></path></g><style>/* <![CDATA[ */
	svg.railroad-diagram {
		background-color:hsl(30,20%,95%);
	}
	svg.railroad-diagram path {
		stroke-width:3;
		stroke:black;
		fill:rgba(0,0,0,0);
	}
	svg.railroad-diagram text {
		font:bold 14px monospace;
		text-anchor:middle;
	}
	svg.railroad-diagram text.label{
		text-anchor:start;
	}
	svg.railroad-diagram text.comment{
		font:italic 12px monospace;
	}
	svg.railroad-diagram rect{
		stroke-width:3;
		stroke:black;
		fill:hsl(120,100%,90%);
	}
	svg.railroad-diagram rect.group-box {
		stroke: gray;
		stroke-dasharray: 10 5;
		fill: none;
	}

/* ]]> */
</style></svg>