<svg class="railroad-diagram" height="398" viewBox="0 0 364.0 398" width="364.0" xmlns="http://www.w3.org/2000/svg" xmlns:xlink="http://www.w3.org/1999/xlink">
<g transform="translate(.5 .5)">
<g>
<path d="M20 189v20m10 -20v20m-10 -10h20" /></g><path d="M40 199h10" /><g>
<path d="M50 199h0.0" /><path d="M314.0 199h0.0" /><g>
<path d="M50.0 199h0.0" /><path d="M314.0 199h0.0" /><path d="M50.0 199a10 10 0 0 0 10 -10v-22a10 10 0 0 1 10 -10" /><g>
<path d="M70.0 157h4.25" /><path d="M289.75 157h4.25" /><g class="terminal ">
<rect data-text="typed_default_parameter" fill="hsl(120, 100%, 90%)" height="22" stroke="black" stroke-width="3" width="215.5" x="74.25" y="146"></rect><text text-anchor="middle" x="182" y="161">typed_default_parameter</text></g></g><path d="M294.0 157a10 10 0 0 1 10 10v22a10 10 0 0 0 10 10" /><path d="M50.0 199a10 10 0 0 0 10 -10v-64a10 10 0 0 1 10 -10" /><g>
<path d="M70.0 115h29.75" /><path d="M264.25 115h29.75" /><g class="terminal ">
<rect data-text="default_parameter" fill="hsl(120, 100%, 90%)" height="22" stroke="black" stroke-width="3" width="164.5" x="99.75" y="104"></rect><text text-anchor="middle" x="182" y="119">default_parameter</text></g></g><path d="M294.0 115a10 10 0 0 1 10 10v64a10 10 0 0 0 10 10" /><path d="M50.0 199a10 10 0 0 0 10 -10v-106a10 10 0 0 1 10 -10" /><g>
<path d="M70.0 73h38.25" /><path d="M255.75 73h38.25" /><g class="terminal ">
<rect data-text="typed_parameter" fill="hsl(120, 100%, 90%)" height="22" stroke="black" stroke-width="3" width="147.5" x="108.25" y="62"></rect><text text-anchor="middle" x="182" y="77">typed_parameter</text></g></g><path d="M294.0 73a10 10 0 0 1 10 10v106a10 10 0 0 0 10 10" /><path d="M50.0 199a10 10 0 0 0 10 -10v-148a10 10 0 0 1 10 -10" /><g>
<path d="M70.0 31h59.5" /><path d="M234.5 31h59.5" /><g class="terminal ">
<rect data-text="identifier" fill="hsl(120, 100%, 90%)" height="22" stroke="black" stroke-width="3" width="105" x="129.5" y="20"></rect><text text-anchor="middle" x="182" y="35">identifier</text></g></g><path d="M294.0 31a10 10 0 0 1 10 10v148a10 10 0 0 0 10 10" /><path d="M50.0 199h20" /><g>
<path d="M70.0 199h25.5" /><path d="M268.5 199h25.5" /><g class="terminal ">
<rect data-text="list_splat_pattern" fill="hsl(120, 100%, 90%)" height="22" stroke="black" stroke-width="3" width="173" x="95.5" y="188"></rect><text text-anchor="middle" x="182" y="203">list_splat_pattern</text></g></g><path d="M294.0 199h20" /><path d="M50.0 199a10 10 0 0 1 10 10v22a10 10 0 0 0 10 10" /><g>
<path d="M70.0 241h46.75" /><path d="M247.25 241h46.75" /><g class="terminal ">
<rect data-text="tuple_pattern" fill="hsl(120, 100%, 90%)" height="22" stroke="black" stroke-width="3" width="130.5" x="116.75" y="230"></rect><text text-anchor="middle" x="182" y="245">tuple_pattern</text></g></g><path d="M294.0 241a10 10 0 0 0 10 -10v-22a10 10 0 0 1 10 -10" /><path d="M50.0 199a10 10 0 0 1 10 10v64a10 10 0 0 0 10 10" /><g>
<path d="M70.0 283h29.75" /><path d="M264.25 283h29.75" /><g class="terminal ">
<rect data-text="keyword_separator" fill="hsl(120, 100%, 90%)" height="22" stroke="black" stroke-width="3" width="164.5" x="99.75" y="272"></rect><text text-anchor="middle" x="182" y="287">keyword_separator</text></g></g><path d="M294.0 283a10 10 0 0 0 10 -10v-64a10 10 0 0 1 10 -10" /><path d="M50.0 199a10 10 0 0 1 10 10v106a10 10 0 0 0 10 10" /><g>
<path d="M70.0 325h17.0" /><path d="M277.0 325h17.0" /><g class="terminal ">
<rect data-text="positional_separator" fill="hsl(120, 100%, 90%)" height="22" stroke="black" stroke-width="3" width="190" x="87" y="314"></rect><text text-anchor="middle" x="182" y="329">positional_separator</text></g></g><path d="M294.0 325a10 10 0 0 0 10 -10v-106a10 10 0 0 1 10 -10" /><path d="M50.0 199a10 10 0 0 1 10 10v148a10 10 0 0 0 10 10" /><g>
<path d="M70.0 367h0.0" /><path d="M294.0 367h0.0" /><g class="terminal ">
<rect data-text="dictionary_splat_pattern" fill="hsl(120, 100%, 90%)" height="22" stroke="black" stroke-width="3" width="224" x="70" y="356"></rect><text text-anchor="middle" x="182" y="371">dictionary_splat_pattern</text></g></g><path d="M294.0 367a10 10 0 0 0 10 -10v-148a10 10 0 0 1 10 -10" /></g></g><path d="M314.0 199h10" /><path d="M 324.0 199 h 20 m -10 -10 v 20 m 10 -20 v 20"></path></g><style>/* <![CDATA[ */
	svg.railroad-diagram {
		background-color:hsl(30,20%,95%);
	}
	svg.railroad-diagram path {
		stroke-width:3;
		stroke:black;
		fill:rgba(0,0,0,0);
	}
	svg.railroad-diagram text {
		font:bold 14px monospace;
		text-anchor:middle;
	}
	svg.railroad-diagram text.label{
		text-anchor:start;
	}
	svg.railroad-diagram text.comment{
		font:italic 12px monospace;
	}
	svg.railroad-diagram rect{
		stroke-width:3;
		stroke:black;
		fill:hsl(120,100%,90%);
	}
	svg.railroad-diagram rect.group-box {
		stroke: gray;
		stroke-dasharray: 10 5;
		fill: none;
	}

/* ]]> */
</style></svg>