<svg class="railroad-diagram" height="314" viewBox="0 0 313.0 314" width="313.0" xmlns="http://www.w3.org/2000/svg" xmlns:xlink="http://www.w3.org/1999/xlink">
<g transform="translate(.5 .5)">
<g>
<path d="M20 147v20m10 -20v20m-10 -10h20" /></g><path d="M40 157h10" /><g>
<path d="M50 157h0.0" /><path d="M263.0 157h0.0" /><g>
<path d="M50.0 157h0.0" /><path d="M263.0 157h0.0" /><path d="M50.0 157a10 10 0 0 0 10 -10v-22a10 10 0 0 1 10 -10" /><g>
<path d="M70.0 115h38.25" /><path d="M204.75 115h38.25" /><g class="terminal ">
<rect data-text="subscript" fill="hsl(120, 100%, 90%)" height="22" stroke="black" stroke-width="3" width="96.5" x="108.25" y="104"></rect><text text-anchor="middle" x="156.5" y="119">subscript</text></g></g><path d="M243.0 115a10 10 0 0 1 10 10v22a10 10 0 0 0 10 10" /><path d="M50.0 157a10 10 0 0 0 10 -10v-64a10 10 0 0 1 10 -10" /><g>
<path d="M70.0 73h0.0" /><path d="M243.0 73h0.0" /><g class="terminal ">
<rect data-text="keyword_identifier" fill="hsl(120, 100%, 90%)" height="22" stroke="black" stroke-width="3" width="173" x="70" y="62"></rect><text text-anchor="middle" x="156.5" y="77">keyword_identifier</text></g></g><path d="M243.0 73a10 10 0 0 1 10 10v64a10 10 0 0 0 10 10" /><path d="M50.0 157a10 10 0 0 0 10 -10v-106a10 10 0 0 1 10 -10" /><g>
<path d="M70.0 31h34.0" /><path d="M209.0 31h34.0" /><g class="terminal ">
<rect data-text="identifier" fill="hsl(120, 100%, 90%)" height="22" stroke="black" stroke-width="3" width="105" x="104" y="20"></rect><text text-anchor="middle" x="156.5" y="35">identifier</text></g></g><path d="M243.0 31a10 10 0 0 1 10 10v106a10 10 0 0 0 10 10" /><path d="M50.0 157h20" /><g>
<path d="M70.0 157h38.25" /><path d="M204.75 157h38.25" /><g class="terminal ">
<rect data-text="attribute" fill="hsl(120, 100%, 90%)" height="22" stroke="black" stroke-width="3" width="96.5" x="108.25" y="146"></rect><text text-anchor="middle" x="156.5" y="161">attribute</text></g></g><path d="M243.0 157h20" /><path d="M50.0 157a10 10 0 0 1 10 10v22a10 10 0 0 0 10 10" /><g>
<path d="M70.0 199h0.0" /><path d="M243.0 199h0.0" /><g class="terminal ">
<rect data-text="list_splat_pattern" fill="hsl(120, 100%, 90%)" height="22" stroke="black" stroke-width="3" width="173" x="70" y="188"></rect><text text-anchor="middle" x="156.5" y="203">list_splat_pattern</text></g></g><path d="M243.0 199a10 10 0 0 0 10 -10v-22a10 10 0 0 1 10 -10" /><path d="M50.0 157a10 10 0 0 1 10 10v64a10 10 0 0 0 10 10" /><g>
<path d="M70.0 241h21.25" /><path d="M221.75 241h21.25" /><g class="terminal ">
<rect data-text="tuple_pattern" fill="hsl(120, 100%, 90%)" height="22" stroke="black" stroke-width="3" width="130.5" x="91.25" y="230"></rect><text text-anchor="middle" x="156.5" y="245">tuple_pattern</text></g></g><path d="M243.0 241a10 10 0 0 0 10 -10v-64a10 10 0 0 1 10 -10" /><path d="M50.0 157a10 10 0 0 1 10 10v106a10 10 0 0 0 10 10" /><g>
<path d="M70.0 283h25.5" /><path d="M217.5 283h25.5" /><g class="terminal ">
<rect data-text="list_pattern" fill="hsl(120, 100%, 90%)" height="22" stroke="black" stroke-width="3" width="122" x="95.5" y="272"></rect><text text-anchor="middle" x="156.5" y="287">list_pattern</text></g></g><path d="M243.0 283a10 10 0 0 0 10 -10v-106a10 10 0 0 1 10 -10" /></g></g><path d="M263.0 157h10" /><path d="M 273.0 157 h 20 m -10 -10 v 20 m 10 -20 v 20"></path></g><style>/* <![CDATA[ */
	svg.railroad-diagram {
		background-color:hsl(30,20%,95%);
	}
	svg.railroad-diagram path {
		stroke-width:3;
		stroke:black;
		fill:rgba(0,0,0,0);
	}
	svg.railroad-diagram text {
		font:bold 14px monospace;
		text-anchor:middle;
	}
	svg.railroad-diagram text.label{
		text-anchor:start;
	}
	svg.railroad-diagram text.comment{
		font:italic 12px monospace;
	}
	svg.railroad-diagram rect{
		stroke-width:3;
		stroke:black;
		fill:hsl(120,100%,90%);
	}
	svg.railroad-diagram rect.group-box {
		stroke: gray;
		stroke-dasharray: 10 5;
		fill: none;
	}

/* ]]> */
</style></svg>