<svg class="railroad-diagram" height="184" viewBox="0 0 617.0 184" width="617.0" xmlns="http://www.w3.org/2000/svg" xmlns:xlink="http://www.w3.org/1999/xlink">
<g transform="translate(.5 .5)">
<g>
<path d="M20 123v20m10 -20v20m-10 -10h20" /></g><path d="M40 133h10" /><g>
<path d="M50 133h0.0" /><path d="M567.0 133h0.0" /><g>
<path d="M50.0 133h0.0" /><path d="M567.0 133h0.0" /><path d="M50.0 133a10 10 0 0 0 10 -10v-62a10 10 0 0 1 10 -10" /><g>
<path d="M70.0 51h43.5" /><path d="M503.5 51h43.5" /><g>
<path d="M113.5 51h0.0" /><path d="M503.5 51h0.0" /><g>
<path d="M113.5 51h0.0" /><path d="M425.0 51h0.0" /><g class="terminal ">
<rect data-text="with_item" fill="hsl(120, 100%, 90%)" height="22" stroke="black" stroke-width="3" width="96.5" x="113.5" y="40"></rect><text text-anchor="middle" x="161.75" y="55">with_item</text></g><path d="M210.0 51h10" /><g>
<path d="M220.0 51h0.0" /><path d="M425.0 51h0.0" /><path d="M220.0 51a10 10 0 0 0 10 -10v-11a10 10 0 0 1 10 -10" /><g>
<path d="M240.0 20h165.0" /></g><path d="M405.0 20a10 10 0 0 1 10 10v11a10 10 0 0 0 10 10" /><path d="M220.0 51h20" /><g>
<path d="M240.0 51h0.0" /><path d="M405.0 51h0.0" /><path d="M240.0 51h10" /><g>
<path d="M250.0 51h0.0" /><path d="M395.0 51h0.0" /><g class="terminal ">
<rect data-text="," fill="hsl(120, 100%, 90%)" height="22" stroke="black" stroke-width="3" width="28.5" x="250" y="40"></rect><text text-anchor="middle" x="264.25" y="55">,</text></g><path d="M278.5 51h10" /><path d="M288.5 51h10" /><g class="terminal ">
<rect data-text="with_item" fill="hsl(120, 100%, 90%)" height="22" stroke="black" stroke-width="3" width="96.5" x="298.5" y="40"></rect><text text-anchor="middle" x="346.75" y="55">with_item</text></g></g><path d="M395.0 51h10" /><path d="M250.0 51a10 10 0 0 0 -10 10v11a10 10 0 0 0 10 10" /><g>
<path d="M250.0 82h145.0" /></g><path d="M395.0 82a10 10 0 0 0 10 -10v-11a10 10 0 0 0 -10 -10" /></g><path d="M405.0 51h20" /></g></g><path d="M425.0 51h10" /><g>
<path d="M435.0 51h0.0" /><path d="M503.5 51h0.0" /><path d="M435.0 51a10 10 0 0 0 10 -10v-11a10 10 0 0 1 10 -10" /><g>
<path d="M455.0 20h28.5" /></g><path d="M483.5 20a10 10 0 0 1 10 10v11a10 10 0 0 0 10 10" /><path d="M435.0 51h20" /><g class="terminal ">
<rect data-text="," fill="hsl(120, 100%, 90%)" height="22" stroke="black" stroke-width="3" width="28.5" x="455" y="40"></rect><text text-anchor="middle" x="469.25" y="55">,</text></g><path d="M483.5 51h20" /></g></g></g><path d="M547.0 51a10 10 0 0 1 10 10v62a10 10 0 0 0 10 10" /><path d="M50.0 133h20" /><g>
<path d="M70.0 133h0.0" /><path d="M547.0 133h0.0" /><g>
<path d="M70.0 133h0.0" /><path d="M547.0 133h0.0" /><g class="terminal ">
<rect data-text="(" fill="hsl(120, 100%, 90%)" height="22" stroke="black" stroke-width="3" width="28.5" x="70" y="122"></rect><text text-anchor="middle" x="84.25" y="137">(</text></g><path d="M98.5 133h10" /><path d="M108.5 133h10" /><g>
<path d="M118.5 133h0.0" /><path d="M430.0 133h0.0" /><g class="terminal ">
<rect data-text="with_item" fill="hsl(120, 100%, 90%)" height="22" stroke="black" stroke-width="3" width="96.5" x="118.5" y="122"></rect><text text-anchor="middle" x="166.75" y="137">with_item</text></g><path d="M215.0 133h10" /><g>
<path d="M225.0 133h0.0" /><path d="M430.0 133h0.0" /><path d="M225.0 133a10 10 0 0 0 10 -10v-11a10 10 0 0 1 10 -10" /><g>
<path d="M245.0 102h165.0" /></g><path d="M410.0 102a10 10 0 0 1 10 10v11a10 10 0 0 0 10 10" /><path d="M225.0 133h20" /><g>
<path d="M245.0 133h0.0" /><path d="M410.0 133h0.0" /><path d="M245.0 133h10" /><g>
<path d="M255.0 133h0.0" /><path d="M400.0 133h0.0" /><g class="terminal ">
<rect data-text="," fill="hsl(120, 100%, 90%)" height="22" stroke="black" stroke-width="3" width="28.5" x="255" y="122"></rect><text text-anchor="middle" x="269.25" y="137">,</text></g><path d="M283.5 133h10" /><path d="M293.5 133h10" /><g class="terminal ">
<rect data-text="with_item" fill="hsl(120, 100%, 90%)" height="22" stroke="black" stroke-width="3" width="96.5" x="303.5" y="122"></rect><text text-anchor="middle" x="351.75" y="137">with_item</text></g></g><path d="M400.0 133h10" /><path d="M255.0 133a10 10 0 0 0 -10 10v11a10 10 0 0 0 10 10" /><g>
<path d="M255.0 164h145.0" /></g><path d="M400.0 164a10 10 0 0 0 10 -10v-11a10 10 0 0 0 -10 -10" /></g><path d="M410.0 133h20" /></g></g><path d="M430.0 133h10" /><g>
<path d="M440.0 133h0.0" /><path d="M508.5 133h0.0" /><path d="M440.0 133a10 10 0 0 0 10 -10v-11a10 10 0 0 1 10 -10" /><g>
<path d="M460.0 102h28.5" /></g><path d="M488.5 102a10 10 0 0 1 10 10v11a10 10 0 0 0 10 10" /><path d="M440.0 133h20" /><g class="terminal ">
<rect data-text="," fill="hsl(120, 100%, 90%)" height="22" stroke="black" stroke-width="3" width="28.5" x="460" y="122"></rect><text text-anchor="middle" x="474.25" y="137">,</text></g><path d="M488.5 133h20" /></g><path d="M508.5 133h10" /><g class="terminal ">
<rect data-text=")" fill="hsl(120, 100%, 90%)" height="22" stroke="black" stroke-width="3" width="28.5" x="518.5" y="122"></rect><text text-anchor="middle" x="532.75" y="137">)</text></g></g></g><path d="M547.0 133h20" /></g></g><path d="M567.0 133h10" /><path d="M 577.0 133 h 20 m -10 -10 v 20 m 10 -20 v 20"></path></g><style>/* <![CDATA[ */
	svg.railroad-diagram {
		background-color:hsl(30,20%,95%);
	}
	svg.railroad-diagram path {
		stroke-width:3;
		stroke:black;
		fill:rgba(0,0,0,0);
	}
	svg.railroad-diagram text {
		font:bold 14px monospace;
		text-anchor:middle;
	}
	svg.railroad-diagram text.label{
		text-anchor:start;
	}
	svg.railroad-diagram text.comment{
		font:italic 12px monospace;
	}
	svg.railroad-diagram rect{
		stroke-width:3;
		stroke:black;
		fill:hsl(120,100%,90%);
	}
	svg.railroad-diagram rect.group-box {
		stroke: gray;
		stroke-dasharray: 10 5;
		fill: none;
	}

/* ]]> */
</style></svg>