<svg class="railroad-diagram" height="104" viewBox="0 0 231.0 104" width="231.0" xmlns="http://www.w3.org/2000/svg" xmlns:xlink="http://www.w3.org/1999/xlink">
<g transform="translate(.5 .5)">
<g>
<path d="M20 21v20m10 -20v20m-10 -10h20" /></g><path d="M40 31h10" /><g class="terminal ">
<path d="M50 31h0.0" /><path d="M95.5 31h0.0" /><rect height="22" width="45.5" x="50" y="20"></rect><text x="72.75" y="35">foo</text></g><path d="M95.5 31h10" /><g>
<path d="M105.5 31h0.0" /><path d="M191.0 31h0.0" /><path d="M105.5 31h20" /><g class="terminal ">
<path d="M125.5 31h0.0" /><path d="M171.0 31h0.0" /><rect height="22" width="45.5" x="125.5" y="20"></rect><text x="148.25" y="35">bar</text></g><path d="M171.0 31h20" /><path d="M105.5 31a10 10 0 0 1 10 10v22a10 10 0 0 0 10 10" /><g class="terminal ">
<path d="M125.5 73h0.0" /><path d="M171.0 73h0.0" /><rect height="22" width="45.5" x="125.5" y="62"></rect><text x="148.25" y="77">baz</text></g><path d="M171.0 73a10 10 0 0 0 10 -10v-22a10 10 0 0 1 10 -10" /></g><path d="M 191.0 31 h 20 m -10 -10 v 20 m 10 -20 v 20"></path></g><style>/* <![CDATA[ */
	svg.railroad-diagram {
		background-color:hsl(30,20%,95%);
	}
	svg.railroad-diagram path {
		stroke-width:3;
		stroke:black;
		fill:rgba(0,0,0,0);
	}
	svg.railroad-diagram text {
		font:bold 14px monospace;
		text-anchor:middle;
	}
	svg.railroad-diagram text.label{
		text-anchor:start;
	}
	svg.railroad-diagram text.comment{
		font:italic 12px monospace;
	}
	svg.railroad-diagram rect{
		stroke-width:3;
		stroke:black;
		fill:hsl(120,100%,90%);
	}
	svg.railroad-diagram rect.group-box {
		stroke: gray;
		stroke-dasharray: 10 5;
		fill: none;
	}

/* ]]> */
</style></svg>